<?xml version="1.0" encoding="UTF-8"?>
<svg width="10px" height="10px" viewBox="0 0 10 10" version="1.1" xmlns="http://www.w3.org/2000/svg" xmlns:xlink="http://www.w3.org/1999/xlink">
    <!-- Generator: Sketch 44 (41411) - http://www.bohemiancoding.com/sketch -->
    <title>Shape</title>
    <desc>Created with Sketch.</desc>
    <defs></defs>
    <g id="Web_V1" stroke="none" stroke-width="1" fill="none" fill-rule="evenodd">
        <g id="Web-Home-V1-Copy" transform="translate(-388.000000, -374.000000)" fill-rule="nonzero" fill="#000000">
            <g id="Posts" transform="translate(332.000000, 264.000000)">
                <g id="posts">
                    <g id="2" transform="translate(0.000000, 100.000000)">
                        <g id="comment" transform="translate(46.000000, 0.000000)">
                            <g id="Shape">
                                <path d="M11.4004843,17.7524888 C11.4770232,17.8224918 11.5007161,17.9333834 11.4594729,18.0285774 C11.3974848,18.1776253 11.344495,18.3286738 11.2685097,18.4717197 C11.0845452,18.8148298 10.8075986,19.0719124 10.5286524,19.3289949 C10.4006771,19.4510341 10.2647033,19.5730733 10.1457262,19.703115 C10.0267492,19.8331568 10.0567434,19.8911754 10.2217116,19.9331889 C10.6506289,20.0422239 11.0785463,20.0032113 11.5034644,19.9201847 C12.3033101,19.7631343 13.0631636,19.4560357 13.8030209,19.1059233 C13.8871348,19.0629657 13.9827289,19.047901 14.0759683,19.0629095 C14.7900139,19.1862901 15.521488,19.1658854 16.2275533,19.0028902 C17.5562971,18.6837878 18.6340892,17.9745601 19.3759461,16.7721741 C19.9133701,15.9183334 20.1136869,14.8948371 19.9378378,13.9012524 C19.7318775,12.6608542 19.0790034,11.7055475 18.0991924,11.0003211 C17.21797,10.3523398 16.1533952,10.0019707 15.0597785,10 C14.7998287,10.0170055 14.5378792,10.0190061 14.2799289,10.0550177 C13.1621445,10.2090671 12.1673364,10.6552103 11.3454949,11.4604689 C10.5746435,12.2187123 10.1007349,13.1370071 10.0147515,14.2483639 C9.92941804,15.2588922 10.2163878,16.2657597 10.8215959,17.0792727 C11.0027941,17.3135419 11.1960165,17.5382492 11.4004843,17.7524888 L11.4004843,17.7524888 Z"></path>
                            </g>
                        </g>
                    </g>
                </g>
            </g>
        </g>
    </g>
</svg>