<?xml version="1.0" standalone="no"?>
<!DOCTYPE svg PUBLIC "-//W3C//DTD SVG 1.1//EN" "http://www.w3.org/Graphics/SVG/1.1/DTD/svg11.dtd" >
<svg xmlns="http://www.w3.org/2000/svg" xmlns:xlink="http://www.w3.org/1999/xlink" version="1.1">
<metadata>
Created by FontForge 20161003 at Thu May 25 17:59:28 2017
 By www-data
(c) Copyright (c) 2010. All rights reserved. Fakt is a design by Thomas Thiemich, published by OurType. www.ourtype.com
</metadata>
<defs>
<font id="FaktProSemiBold" horiz-adv-x="367" >
  <font-face 
    font-family="FaktProSemiBold"
    font-weight="600"
    font-stretch="normal"
    units-per-em="1000"
    panose-1="2 0 0 0 0 0 0 0 0 0"
    ascent="748"
    descent="-252"
    x-height="488"
    cap-height="688"
    bbox="-176 -313 1227 1012"
    underline-thickness="0"
    underline-position="0"
    unicode-range="U+0020-FB04"
  />
<missing-glyph horiz-adv-x="712" 
d="M0 0v720h712v-720h-712zM232 184l126 129l126 -129l52 52l-127 130l127 130l-52 52l-126 -129l-126 129l-52 -52l126 -130l-126 -130z" />
    <glyph glyph-name="ff" unicode="ff" horiz-adv-x="654" 
d="M94 0v392h-92v96h92v58q0 48 10.5 83t33 57.5t58 34t86.5 11.5h52v-100h-31q-23 0 -38 -5t-24.5 -15t-13.5 -25.5t-4 -37.5v-61h184v58q0 48 10.5 83t33 57.5t58 34t86.5 11.5h69v-100h-48q-23 0 -38 -5t-24.5 -15t-13.5 -25.5t-4 -37.5v-61h112v-96h-112v-392h-129v392
h-184v-392h-129z" />
    <glyph glyph-name="fi" unicode="fi" horiz-adv-x="606" 
d="M407 0v392h-184v-392h-129v392h-92v96h92v58q0 48 10.5 83t33 57.5t58 34t86.5 11.5h52v-100h-31q-23 0 -38 -5t-24.5 -15t-13.5 -25.5t-4 -37.5v-61h313v-488h-129zM403 612v120h137v-120h-137z" />
    <glyph glyph-name="fl" unicode="fl" horiz-adv-x="606" 
d="M94 0v392h-92v96h92v58q0 48 10.5 83t33 57.5t58 34t86.5 11.5h254v-732h-129v632h-104q-23 0 -38 -5t-24.5 -15t-13.5 -25.5t-4 -37.5v-61h97v-96h-97v-392h-129z" />
    <glyph glyph-name="ffi" unicode="ffi" horiz-adv-x="919" 
d="M407 0v392h-184v-392h-129v392h-92v96h92v58q0 48 10.5 83t33 57.5t58 34t86.5 11.5h57v-100h-36q-23 0 -38 -5t-24.5 -15t-13.5 -25.5t-4 -37.5v-61h184v58q0 48 10.5 83t33 57.5t58 34t86.5 11.5h52v-100h-31q-23 0 -38 -5t-24.5 -15t-13.5 -25.5t-4 -37.5v-61h312
v-488h-128v392h-184v-392h-129zM716 612v120h136v-120h-136z" />
    <glyph glyph-name="ffl" unicode="ffl" horiz-adv-x="919" 
d="M407 0v392h-184v-392h-129v392h-92v96h92v58q0 48 10.5 83t33 57.5t58 34t86.5 11.5h52v-100h-31q-23 0 -38 -5t-24.5 -15t-13.5 -25.5t-4 -37.5v-61h184v58q0 48 10.5 83t33 57.5t58 34t86.5 11.5h253v-732h-128v632h-104q-23 0 -38 -5t-24.5 -15t-13.5 -25.5t-4 -37.5
v-61h109v-96h-109v-392h-129z" />
    <glyph glyph-name="f_b" unicode="fb" horiz-adv-x="952" 
d="M407 0v632h-104q-23 0 -38 -5t-24.5 -15t-13.5 -25.5t-4 -37.5v-61h97v-96h-97v-392h-129v392h-92v96h92v58q0 48 10.5 83t33 57.5t58 34t86.5 11.5h254v-150v-35t-0.5 -37.5t-2 -45t-3.5 -46.5h4q10 20 26 35.5t36.5 26t45 15.5t52.5 5q46 0 86 -16.5t70 -48.5t47 -79.5
t17 -107.5t-17.5 -108.5t-49 -82.5t-73 -51.5t-88.5 -17.5q-27 0 -50 5t-42.5 15.5t-34.5 26t-25 35.5h-4v-70h-123zM536 244q0 -36 9 -65.5t25.5 -50t39 -31.5t49.5 -11t49.5 11.5t39 33t25 51.5t8.5 66t-8.5 65t-25 48.5t-39 30t-49.5 10.5q-26 0 -48.5 -10.5t-39 -30
t-25.5 -47.5t-10 -63v-7z" />
    <glyph glyph-name="f_h" unicode="fh" horiz-adv-x="936" 
d="M407 0v632h-104q-23 0 -38 -5t-24.5 -15t-13.5 -25.5t-4 -37.5v-61h97v-96h-97v-392h-129v392h-92v96h92v58q0 48 10.5 83t33 57.5t58 34t86.5 11.5h254v-150v-34.5t-0.5 -37.5t-2 -44.5t-3.5 -47.5h4q10 20 25.5 35.5t34.5 26t41.5 15.5t48.5 5q39 0 72.5 -11t59.5 -35
t40.5 -63.5t14.5 -94.5v-296h-128v280q0 33 -7 56t-19.5 37t-30 20.5t-39.5 6.5q-24 0 -44.5 -9.5t-35.5 -28.5t-23 -45.5t-8 -59.5v-257h-129z" />
    <glyph glyph-name="f_j" unicode="fj" horiz-adv-x="606" 
d="M323 -120h26q16 0 27.5 4.5t18 13.5t9.5 23t3 33v438h-184v-392h-129v392h-92v96h92v58q0 48 10.5 83t33 57.5t58 34t86.5 11.5h52v-100h-31q-23 0 -38 -5t-24.5 -15t-13.5 -25.5t-4 -37.5v-61h313v-543q0 -40 -8.5 -70.5t-28.5 -51.5t-53 -32t-81 -11h-42v100zM403 612
v120h137v-120h-137z" />
    <glyph glyph-name="f_k" unicode="fk" horiz-adv-x="887" 
d="M407 0v632h-104q-23 0 -38 -5t-24.5 -15t-13.5 -25.5t-4 -37.5v-61h97v-96h-97v-392h-129v392h-92v96h92v58q0 48 10.5 83t33 57.5t58 34t86.5 11.5h254v-446l182 202h146l-182 -195l201 -293h-149l-137 203l-61 -66v-137h-129z" />
    <glyph glyph-name="f_t" unicode="ft" horiz-adv-x="676" 
d="M403 168v224h-180v-392h-129v392h-92v96h92v58q0 48 10.5 83t33 57.5t58 34t86.5 11.5h52v-100h-31q-23 0 -38 -5t-24.5 -15t-13.5 -25.5t-4 -37.5v-61h180v148h128v-148h121v-96h-121v-216q0 -20 3.5 -33.5t11.5 -22t20.5 -12.5t30.5 -4h55v-104h-78q-48 0 -80.5 9
t-52.5 29t-29 51.5t-9 78.5v0z" />
    <glyph glyph-name="f_f_b" unicode="ffb" horiz-adv-x="1265" 
d="M407 0v392h-184v-392h-129v392h-92v96h92v58q0 48 10.5 83t33 57.5t58 34t86.5 11.5h52v-100h-31q-23 0 -38 -5t-24.5 -15t-13.5 -25.5t-4 -37.5v-61h184v58q0 48 10.5 83t33 57.5t58 34t86.5 11.5h253v-150v-35t-0.5 -37.5t-1.5 -45.5t-3 -46h4q10 20 26 35.5t36.5 26
t45 15.5t52.5 5q46 0 86 -16.5t70 -48.5t47 -79.5t17 -107.5t-17.5 -108.5t-49 -82.5t-73 -51.5t-88.5 -17.5q-27 0 -50 5t-42.5 15.5t-34.5 26t-25 35.5h-4v-70h-123v632h-104q-23 0 -38 -5t-24.5 -15t-13.5 -25.5t-4 -37.5v-61h109v-96h-109v-392h-129zM848 244
q0 -36 9 -65.5t26 -50t39.5 -31.5t49.5 -11t49.5 11.5t39 33t25 51.5t8.5 66t-8.5 65t-25 48.5t-39 30t-49.5 10.5t-49.5 -11t-39.5 -31.5t-26 -50t-9 -65.5v0z" />
    <glyph glyph-name="f_f_h" unicode="ffh" horiz-adv-x="1248" 
d="M407 0v392h-184v-392h-129v392h-92v96h92v58q0 48 10.5 83t33 57.5t58 34t86.5 11.5h52v-100h-31q-23 0 -38 -5t-24.5 -15t-13.5 -25.5t-4 -37.5v-61h184v58q0 48 10.5 83t33 57.5t58 34t86.5 11.5h253v-150v-34.5t-0.5 -37.5t-1.5 -44.5t-3 -47.5h4q10 20 25 35.5
t34.5 26t42 15.5t48.5 5q39 0 72.5 -11t59.5 -35t40.5 -63.5t14.5 -94.5v-296h-128v280q0 33 -7 56t-19.5 37t-30 20.5t-39.5 6.5q-24 0 -44.5 -10t-36 -29t-23.5 -45.5t-8 -59.5v-256h-128v632h-104q-23 0 -38 -5t-24.5 -15t-13.5 -25.5t-4 -37.5v-61h109v-96h-109v-392
h-129z" />
    <glyph glyph-name="f_f_j" unicode="ffj" horiz-adv-x="919" 
d="M407 0v392h-184v-392h-129v392h-92v96h92v58q0 48 10.5 83t33 57.5t58 34t86.5 11.5h57v-100h-36q-23 0 -38 -5t-24.5 -15t-13.5 -25.5t-4 -37.5v-61h184v58q0 48 10.5 83t33 57.5t58 34t86.5 11.5h52v-100h-31q-23 0 -38 -5t-24.5 -15t-13.5 -25.5t-4 -37.5v-61h312
v-543q0 -40 -8.5 -70.5t-28 -51.5t-52.5 -32t-82 -11h-41v100h26q16 0 27.5 4.5t18 13.5t9.5 23t3 33v438h-184v-392h-129zM716 612v120h136v-120h-136z" />
    <glyph glyph-name="f_f_k" unicode="ffk" horiz-adv-x="1199" 
d="M407 0v392h-184v-392h-129v392h-92v96h92v58q0 48 10.5 83t33 57.5t58 34t86.5 11.5h52v-100h-31q-23 0 -38 -5t-24.5 -15t-13.5 -25.5t-4 -37.5v-61h184v58q0 48 10.5 83t33 57.5t58 34t86.5 11.5h253v-447l183 203h146l-182 -195l200 -293h-148l-137 203l-62 -67v-136
h-128v632h-104q-23 0 -38 -5t-24.5 -15t-13.5 -25.5t-4 -37.5v-61h109v-96h-109v-392h-129z" />
    <glyph glyph-name="f_f_t" unicode="fft" horiz-adv-x="989" 
d="M407 0v392h-184v-392h-129v392h-92v96h92v58q0 48 10.5 83t33 57.5t58 34t86.5 11.5h52v-100h-31q-23 0 -38 -5t-24.5 -15t-13.5 -25.5t-4 -37.5v-61h184v58q0 48 10.5 83t33 57.5t58 34t86.5 11.5h52v-100h-31q-23 0 -38 -5t-24.5 -15t-13.5 -25.5t-4 -37.5v-61h180v148
h128v-148h121v-96h-121v-216q0 -20 3.5 -33.5t11.5 -22t20.5 -12.5t30.5 -4h55v-104h-78q-48 0 -80.5 9t-52.5 29t-29 51.5t-9 78.5v224h-180v-392h-129z" />
    <glyph glyph-name=".notdef" horiz-adv-x="712" 
d="M0 0v720h712v-720h-712zM232 184l126 129l126 -129l52 52l-127 130l127 130l-52 52l-126 -129l-126 129l-52 -52l126 -130l-126 -130z" />
    <glyph glyph-name=".null" horiz-adv-x="0" 
 />
    <glyph glyph-name="nonmarkingreturn" horiz-adv-x="333" 
 />
    <glyph glyph-name="space" unicode=" " horiz-adv-x="220" 
 />
    <glyph glyph-name="exclam" unicode="!" horiz-adv-x="287" 
d="M107 205l-34 295v188h141v-188l-33 -295h-74zM77 0v132h133v-132h-133z" />
    <glyph glyph-name="quotedbl" unicode="&#x22;" horiz-adv-x="431" 
d="M76 407l-18 182v99h118v-99l-18 -182h-82zM273 407l-18 182v99h117v-99l-18 -182h-81z" />
    <glyph glyph-name="numbersign" unicode="#" horiz-adv-x="631" 
d="M62 443v88h121l27 157h104l-27 -157h124l27 157h104l-27 -157h99v-88h-115l-34 -198h104l-2 -88h-118l-27 -157h-104l27 157h-124l-27 -157h-104l27 157h-101v88h117l34 198h-105zM271 443l-34 -198h124l34 198h-124z" />
    <glyph glyph-name="dollar" unicode="$" horiz-adv-x="568" 
d="M33 196h127q1 -27 10.5 -48t25.5 -35t37.5 -21.5t46.5 -7.5q26 0 47.5 6.5t36.5 19.5t23.5 32.5t8.5 43.5q0 21 -7.5 36t-21 26t-31.5 18.5t-45 15.5l-83 24q-30 9 -57.5 23t-51 37t-38 56t-14.5 77q0 39 12.5 72t36.5 58.5t58 42.5t75 24v108h102v-109q38 -6 70 -21.5
t56 -39.5t38 -54.5t16 -67.5h-127q-3 23 -12 40t-23 28t-31.5 16.5t-37.5 5.5q-21 0 -39.5 -5.5t-32.5 -16.5t-22 -27.5t-8 -38.5q0 -21 6 -36t18 -25.5t29.5 -18t43.5 -15.5l83 -25q41 -12 72 -29t53 -40.5t33 -54t11 -69.5q0 -43 -13.5 -78.5t-39.5 -63t-62 -44.5t-81 -23
v-112h-102v112q-45 6 -80.5 22t-61 42.5t-39.5 61.5t-15 78v0z" />
    <glyph glyph-name="percent" unicode="%" horiz-adv-x="811" 
d="M183 336q-40 0 -70.5 13.5t-50.5 38t-30 57t-10 71.5t10 71.5t30 57t50.5 38t70.5 13.5t70.5 -13.5t50.5 -38t30 -57t10 -71.5t-10 -71.5t-30 -57t-50.5 -38t-70.5 -13.5v0zM628 -8q-40 0 -70.5 13.5t-50.5 38t-30 57t-10 71.5t10 71.5t30 57t50.5 38t70.5 13.5
t70.5 -13.5t50 -38t29.5 -57t10 -71.5t-10 -71.5t-29.5 -57t-50 -38t-70.5 -13.5v0zM191 -12l348 712h81l-348 -712h-81zM628 69q16 0 27.5 7t19 20t11.5 32t4 44t-4 44t-11.5 32t-19 20t-27.5 7t-27.5 -7t-19.5 -20t-12 -32.5t-4 -43.5t4 -43.5t12 -32.5t19.5 -20t27.5 -7
v0zM183 413q16 0 27.5 7t19.5 20t12 32.5t4 43.5q0 25 -4 44t-11.5 32t-19.5 20t-28 7t-27.5 -7t-19 -20t-11.5 -32t-4 -44q0 -24 4 -43.5t11.5 -32.5t19.5 -20t27 -7v0z" />
    <glyph glyph-name="ampersand" unicode="&#x26;" horiz-adv-x="729" 
d="M39 180q0 36 12 66t33 53t47.5 41t59.5 35q-23 24 -37.5 43.5t-23 37t-12 35t-3.5 38.5q0 34 13 64.5t39.5 55t65.5 38t88 13.5t87.5 -11.5t65 -32.5t40.5 -50.5t14 -65.5q0 -35 -13 -62.5t-36 -49t-51 -38t-65 -33.5l152 -151q6 13 10 27t7 29.5t4.5 32.5t1.5 35v14h114
v-20q0 -23 -3 -48t-10 -50.5t-18 -50.5t-26 -48l128 -127h-153l-49 48q-20 -14 -42 -25t-47.5 -19t-55 -12t-61.5 -4q-67 0 -118.5 13.5t-86.5 39t-53 60.5t-18 79v0zM315 84q20 0 38 2.5t34.5 7t31.5 11.5t28 16l-190 186q-21 -12 -37 -23.5t-28 -25.5t-18.5 -30.5
t-6.5 -35.5q0 -26 11.5 -46t32 -34t47 -21t57.5 -7v0zM233 533q0 -14 3.5 -26t11 -24.5t19 -26.5t29.5 -32q26 12 45.5 23.5t34 24.5t23 28.5t8.5 34.5q0 16 -6 30.5t-17 25t-27 16t-36 5.5q-21 0 -37.5 -6t-28 -17t-17 -25.5t-5.5 -30.5v0z" />
    <glyph glyph-name="quotesingle" unicode="'" horiz-adv-x="234" 
d="M76 407l-18 182v99h118v-99l-18 -182h-82z" />
    <glyph glyph-name="parenleft" unicode="(" horiz-adv-x="310" 
d="M15 260q0 76 15 148t39 134.5t52.5 112.5t57.5 89h117q-24 -31 -51 -80.5t-52 -114t-41 -139.5t-16 -150t16.5 -150t41.5 -140.5t52 -115.5t50 -82h-117q-29 38 -57.5 89t-52.5 114t-39 136t-15 149v0z" />
    <glyph glyph-name="parenright" unicode=")" horiz-adv-x="310" 
d="M14 -228q23 32 50 82t52 115.5t41.5 140.5t16.5 150t-16 150t-41 139.5t-52 114t-51 80.5h117q29 -39 57.5 -89t52.5 -112.5t39 -134.5t15 -148t-15 -149t-39 -136t-52.5 -114t-57.5 -89h-117z" />
    <glyph glyph-name="asterisk" unicode="*" horiz-adv-x="471" 
d="M187 696h95l-15 -123l111 53l30 -91l-120 -24l83 -88l-77 -56l-59 107l-59 -107l-77 55l82 90l-119 23l29 91l111 -51z" />
    <glyph glyph-name="plus" unicode="+" horiz-adv-x="568" 
d="M58 205v100h173v175h106v-175h173v-100h-173v-175h-106v175h-173z" />
    <glyph glyph-name="comma" unicode="," horiz-adv-x="282" 
d="M131 0h-62v140h145v-131l-55 -178h-63z" />
    <glyph glyph-name="hyphen" unicode="-" horiz-adv-x="396" 
d="M53 197v110h290v-110h-290z" />
    <glyph glyph-name="period" unicode="." horiz-adv-x="282" 
d="M69 0v140h145v-140h-145z" />
    <glyph glyph-name="slash" unicode="/" horiz-adv-x="426" 
d="M4 -12l308 712h109l-308 -712h-109z" />
    <glyph glyph-name="zero" unicode="0" horiz-adv-x="568" 
d="M284 -12q-66 0 -114 26.5t-78 75t-44.5 113t-14.5 141.5t14.5 141.5t44.5 113t78 75t114 26.5t114 -26.5t78 -75t44.5 -113t14.5 -141.5t-14.5 -141.5t-44.5 -113t-78 -75t-114 -26.5v0zM284 94q30 0 52.5 15.5t37 47t22 78.5t7.5 109q0 63 -7 109.5t-22 78t-37.5 47
t-52.5 15.5q-31 0 -53.5 -15.5t-37 -47t-21.5 -78t-7 -109.5t7 -109.5t22 -78t37.5 -47t52.5 -15.5v0z" />
    <glyph glyph-name="one" unicode="1" horiz-adv-x="568" 
d="M106 439l-53 91l231 158h84v-584h155v-104h-448v104h165v426z" />
    <glyph glyph-name="two" unicode="2" horiz-adv-x="568" 
d="M45 0q2 61 11.5 107t28.5 82.5t48.5 66.5t72.5 57l79 50q28 17 45.5 30.5t30.5 28t19.5 33t6.5 42.5q0 20 -6 38t-18.5 31.5t-32.5 21.5t-46 8q-25 0 -44.5 -7.5t-33 -22.5t-21.5 -37t-9 -51h-125q3 60 22.5 103t52 69t73.5 38t87 12q51 0 93.5 -13.5t73.5 -39.5
t47.5 -63.5t16.5 -83.5q0 -41 -10 -73t-29 -57t-44.5 -45.5t-62.5 -43.5l-80 -50q-30 -19 -48.5 -36t-29 -31.5t-15 -28.5t-6.5 -31h327v-104h-474z" />
    <glyph glyph-name="three" unicode="3" horiz-adv-x="568" 
d="M37 208h126q0 -31 9 -54t24.5 -38t37 -22.5t46.5 -7.5q26 0 47.5 7t37 21t24 34.5t8.5 46.5q0 25 -9 45t-25 34.5t-37 22t-46 7.5h-54v102h54q21 0 39.5 7t32.5 20.5t22 32t8 41.5q0 22 -8 39.5t-22 30t-32.5 19t-39.5 6.5t-39.5 -6.5t-32.5 -20t-22 -33.5t-8 -46h-117
q0 48 16.5 86t46 64.5t69.5 40t87 13.5q49 0 90.5 -13t71.5 -38t46.5 -59.5t16.5 -76.5q0 -25 -7.5 -49t-21.5 -44.5t-32.5 -36t-38.5 -23.5v-4q27 -8 49.5 -24t38.5 -38t25 -49.5t9 -58.5q0 -47 -18.5 -84t-52 -62.5t-78.5 -38.5t-98 -13q-55 0 -99.5 13t-77 40t-49.5 68.5
t-17 98.5v0z" />
    <glyph glyph-name="four" unicode="4" horiz-adv-x="568" 
d="M25 150v82l322 456h109v-434h87v-104h-87v-150h-128v150h-303zM150 254h178v250z" />
    <glyph glyph-name="five" unicode="5" horiz-adv-x="568" 
d="M41 184h126q3 -19 11.5 -36t22.5 -30.5t34 -21.5t46 -8q23 0 44 8t36.5 24.5t24.5 40t9 53.5q0 29 -8.5 52.5t-23.5 40t-36 25t-46 8.5q-18 0 -33 -4.5t-27.5 -13t-22.5 -19.5t-20 -25l-117 13l22 397h403v-106h-290l-11 -179h5q9 8 21 15t26.5 12t31.5 7.5t36 2.5
q47 0 87.5 -14.5t70 -43t45.5 -70t16 -92.5q0 -57 -19 -101t-52.5 -73t-77.5 -43.5t-93 -14.5q-55 0 -98.5 14t-73.5 39.5t-47.5 61.5t-21.5 81v0z" />
    <glyph glyph-name="six" unicode="6" horiz-adv-x="568" 
d="M39 328q0 100 21.5 172t58.5 116t85 64t102 20q51 0 89.5 -13.5t65 -37.5t41.5 -58t20 -75h-125q-3 18 -9 33t-17 26.5t-27.5 18t-39.5 6.5q-25 0 -47 -12t-40.5 -39t-30 -71.5t-14.5 -107.5q10 16 25.5 29t36 22.5t43 14t46.5 4.5q43 0 82 -14t69 -42.5t47 -70.5t17 -95
q0 -54 -19.5 -97.5t-53 -73t-77 -44.5t-90.5 -15q-56 0 -102.5 18t-82 58.5t-55 106t-19.5 157.5v0zM299 340q-25 0 -46.5 -9t-37 -25.5t-24 -39.5t-8.5 -51t8 -51.5t23.5 -40.5t36 -26t44.5 -9t45 8.5t36.5 25t24 40.5t8.5 54q0 28 -8.5 51t-23.5 39t-35 25t-43 9v0z" />
    <glyph glyph-name="seven" unicode="7" horiz-adv-x="568" 
d="M122 0l271 577h-348v111h486v-79l-277 -609h-132z" />
    <glyph glyph-name="eight" unicode="8" horiz-adv-x="568" 
d="M35 186q0 31 9 58.5t25 49.5t38.5 38t49.5 24v4q-21 7 -39.5 22t-32 35.5t-21 44.5t-7.5 49q0 43 16.5 78t46.5 60t72 38t92 13t92 -13t72 -38t46.5 -60t16.5 -78q0 -25 -7.5 -49t-21 -44.5t-32 -35.5t-39.5 -22v-4q27 -8 49.5 -24t38.5 -38t25 -49.5t9 -58.5
q0 -47 -18 -84t-51 -62.5t-78.5 -38.5t-101.5 -13t-101.5 13t-78.5 38.5t-51 62.5t-18 84v0zM165 195q0 -26 9 -46.5t25 -34.5t37.5 -21t47.5 -7t47.5 7t37.5 21t25 34.5t9 46.5q0 24 -9 44.5t-25 35t-38 22t-47 7.5t-47 -7.5t-38 -22t-25 -35t-9 -44.5v0zM284 406
q22 0 41 7t33 20t22 32t8 42q0 22 -8 40t-22 31t-33 19.5t-41 6.5t-41 -6.5t-33 -19.5t-22 -31t-8 -40q0 -23 8 -42t22 -32t33 -20t41 -7v0z" />
    <glyph glyph-name="nine" unicode="9" horiz-adv-x="568" 
d="M527 360q0 -101 -19 -173t-54 -115.5t-82 -63.5t-106 -20q-51 0 -90.5 13t-66.5 37.5t-43 58.5t-21 75h124q3 -18 9.5 -33t18.5 -26.5t29.5 -18t41.5 -6.5q29 0 51 12t38 39t25.5 71.5t11.5 107.5q-10 -16 -25.5 -29t-36 -22t-42.5 -14t-45 -5q-44 0 -83 14t-69 42.5
t-47 70.5t-17 95q0 54 19 97.5t52.5 73t77 44.5t90.5 15q56 0 102.5 -18t82 -58.5t55 -106t19.5 -157.5v0zM267 348q25 0 46.5 9t37 26t24 41t8.5 53q0 27 -8 49.5t-23.5 39t-36 25.5t-44.5 9t-44.5 -8.5t-36.5 -25t-24.5 -40.5t-8.5 -54q0 -28 8.5 -51t23.5 -39t35 -25
t43 -9v0z" />
    <glyph glyph-name="colon" unicode=":" horiz-adv-x="282" 
d="M69 348v140h145v-140h-145zM69 0v140h145v-140h-145z" />
    <glyph glyph-name="semicolon" unicode=";" horiz-adv-x="282" 
d="M69 348v140h145v-140h-145zM131 0h-62v140h145v-131l-55 -178h-63z" />
    <glyph glyph-name="less" unicode="&#x3c;" horiz-adv-x="568" 
d="M72 203v104l424 176v-109l-305 -118l305 -119v-112z" />
    <glyph glyph-name="equal" unicode="=" horiz-adv-x="568" 
d="M56 313v100h456v-100h-456zM56 95v100h456v-100h-456z" />
    <glyph glyph-name="greater" unicode="&#x3e;" horiz-adv-x="568" 
d="M496 305v-104l-424 -176v109l304 117l-304 120v112z" />
    <glyph glyph-name="question" unicode="?" horiz-adv-x="517" 
d="M191 207v24q0 61 23 98t69 73t63 53.5t17 51.5q0 19 -6.5 35t-19.5 28.5t-31.5 19t-41.5 6.5q-30 0 -51.5 -9t-35.5 -25.5t-20.5 -37t-6.5 -44.5h-123q0 44 14 83.5t42.5 70t74 48.5t106.5 18q51 0 92.5 -12.5t72 -37t47 -59t16.5 -78.5q0 -56 -23.5 -90t-69.5 -68.5
t-66.5 -57t-20.5 -61.5v-29h-121zM185 0v132h133v-132h-133z" />
    <glyph glyph-name="at" unicode="@" horiz-adv-x="1034" 
d="M282 128q0 30 9.5 54.5t29.5 43t51.5 31t74.5 19.5l94 14q19 3 30.5 6t18.5 7t10 10.5t3 16.5q0 18 -5 32.5t-15.5 25t-27.5 16.5t-39 6t-39.5 -5.5t-29 -15.5t-18 -25t-8.5 -34h-121q3 40 19 72t44 54t66.5 33t84.5 11q55 0 96 -12t68 -35.5t40.5 -58t13.5 -80.5v-149
q0 -28 4.5 -47.5t13 -31.5t20.5 -17.5t27 -5.5q21 0 39 12t32.5 37.5t22.5 65.5t8 94q0 81 -28.5 146.5t-79.5 112t-120.5 70.5t-150.5 24q-87 0 -158.5 -30.5t-122 -85t-77.5 -126.5t-27 -155q0 -87 26.5 -157.5t75.5 -120.5t115.5 -76.5t144.5 -26.5q34 0 64 4t57 12
t50 21.5t41 31.5h113q-27 -36 -60.5 -63t-74.5 -45t-88.5 -27t-101.5 -9q-96 0 -178 32.5t-143 93t-94.5 145t-33.5 185.5q0 97 33.5 183t96 151t150 101.5t192.5 36.5q99 0 184.5 -30t148.5 -87t98 -136t35 -175q0 -73 -17 -126.5t-46.5 -88t-67.5 -51t-82 -16.5
q-26 0 -48.5 4t-41.5 12.5t-34 23.5t-24 36q-14 -21 -32.5 -36t-40.5 -24t-48 -13.5t-57 -4.5q-40 0 -71 10t-52 29t-31.5 44.5t-10.5 56.5v0zM484 74q23 0 44 7.5t38 22t27 36.5t10 50v50q-3 -5 -8 -8.5t-11 -6t-13 -4.5t-16 -4l-77 -12q-19 -3 -32.5 -9t-21.5 -14.5
t-12 -19.5t-4 -24q0 -14 5.5 -26t15.5 -20.5t24 -13t31 -4.5v0z" />
    <glyph glyph-name="A" unicode="A" horiz-adv-x="686" 
d="M8 0l256 688h158l256 -688h-142l-53 154h-285l-54 -154h-136zM344 561h-4l-105 -299h211z" />
    <glyph glyph-name="B" unicode="B" horiz-adv-x="701" 
d="M78 0v688h325q57 0 99.5 -12t70.5 -35.5t41.5 -56.5t13.5 -76q0 -25 -6.5 -47t-20 -41t-34 -32.5t-47.5 -21.5v-4q31 -6 56.5 -20t43 -34.5t27 -47t9.5 -56.5q0 -44 -15 -81.5t-44.5 -65t-73.5 -42.5t-100 -15h-345zM405 305h-192v-199h191q29 0 51 7.5t36.5 21
t21.5 32.5t7 42q0 22 -7 39.5t-21.5 30t-36.5 19.5t-50 7v0zM386 582h-173v-177h172q27 0 47.5 7t34.5 19.5t20.5 29.5t6.5 38q0 19 -6 34t-19 26t-33.5 17t-49.5 6v0z" />
    <glyph glyph-name="C" unicode="C" horiz-adv-x="732" 
d="M44 344q0 76 24 141t69.5 113.5t109 75t140.5 26.5q63 0 115 -16.5t91 -48t64 -75.5t35 -99h-134q-8 30 -23 53t-36.5 39t-49.5 24t-62 8q-47 0 -85 -17.5t-65 -49.5t-41 -76.5t-14 -97.5q0 -52 14.5 -96t41.5 -76.5t65 -50.5t84 -18q36 0 64.5 8t49 24t35 39t22.5 53
h134q-10 -55 -35 -99t-64.5 -75.5t-92 -48t-115.5 -16.5q-78 0 -141.5 26.5t-108 74.5t-68 113t-23.5 142v0z" />
    <glyph glyph-name="D" unicode="D" horiz-adv-x="735" 
d="M81 0v688h245q88 0 157 -25t115 -71.5t69.5 -109.5t23.5 -138t-23.5 -138t-69.5 -109.5t-115 -71.5t-157 -25h-245zM317 577h-102v-466h102q62 0 107.5 18t74 50.5t41.5 74t13 90.5t-13 90.5t-41.5 74t-74 50.5t-107.5 18v0z" />
    <glyph glyph-name="E" unicode="E" horiz-adv-x="640" 
d="M81 0v688h499v-111h-365v-173h294v-106h-294v-187h374v-111h-508z" />
    <glyph glyph-name="F" unicode="F" horiz-adv-x="604" 
d="M81 0v688h487v-111h-353v-203h282v-110h-282v-264h-134z" />
    <glyph glyph-name="G" unicode="G" horiz-adv-x="775" 
d="M617 0l-15 83h-2q-17 -23 -38.5 -41t-47.5 -30t-58 -18t-69 -6q-77 0 -140.5 26.5t-109 75t-69.5 113.5t-24 141q0 77 25 142t71.5 113.5t112 74.5t144.5 26q63 0 116 -17t93 -47t64.5 -70.5t33.5 -87.5h-134q-7 22 -21 41.5t-35.5 34t-51 23t-65.5 8.5q-48 0 -88 -17.5
t-68.5 -49.5t-43.5 -76.5t-15 -97.5t15 -97.5t43.5 -76.5t68 -49.5t86.5 -17.5q39 0 73 10.5t60 31.5t40.5 51t14.5 68v5h-186v102h305v-371h-85z" />
    <glyph glyph-name="H" unicode="H" horiz-adv-x="754" 
d="M81 0v688h134v-283h324v283h134v-688h-134v291h-324v-291h-134z" />
    <glyph glyph-name="I" unicode="I" horiz-adv-x="296" 
d="M81 0v688h134v-688h-134z" />
    <glyph glyph-name="J" unicode="J" horiz-adv-x="556" 
d="M36 207v30h132v-27q0 -29 6.5 -50t19 -34.5t29 -20t37.5 -6.5t37.5 6.5t28.5 20.5t18.5 36t6.5 53v473h135v-472q0 -60 -15.5 -104t-45.5 -71t-71 -40t-94 -13q-51 0 -91.5 12.5t-70.5 39t-46 68.5t-16 99v0z" />
    <glyph glyph-name="K" unicode="K" horiz-adv-x="696" 
d="M81 0v688h134v-326l302 326h155l-279 -296l295 -392h-154l-227 301l-92 -98v-203h-134z" />
    <glyph glyph-name="L" unicode="L" horiz-adv-x="579" 
d="M81 0v688h134v-575h329v-113h-463z" />
    <glyph glyph-name="M" unicode="M" horiz-adv-x="937" 
d="M81 0v688h180l208 -505h3l208 505h176v-688h-134l10 504h-4l-209 -504h-101l-209 497h-4l10 -497h-134z" />
    <glyph glyph-name="N" unicode="N" horiz-adv-x="762" 
d="M81 0v688h121l345 -460h4l-4 460h134v-688h-119l-347 460h-4l4 -460h-134z" />
    <glyph glyph-name="O" unicode="O" horiz-adv-x="789" 
d="M44 344q0 76 24.5 141.5t71 113.5t112 74.5t143.5 26.5q77 0 142 -26.5t111.5 -74.5t71.5 -113.5t25 -141.5t-25 -141.5t-71.5 -113.5t-111.5 -74.5t-142 -26.5q-78 0 -143.5 26.5t-112 74.5t-71 113.5t-24.5 141.5v0zM182 344q0 -52 15 -96.5t43.5 -77t68 -50
t86.5 -17.5t86 18t67.5 50.5t43.5 76.5t15 96t-15 96t-43.5 76.5t-67.5 50.5t-86 18t-86.5 -17.5t-68 -50t-43.5 -77t-15 -96.5v0z" />
    <glyph glyph-name="P" unicode="P" horiz-adv-x="675" 
d="M81 0v688h296q60 0 108 -16.5t80.5 -46.5t49.5 -72t17 -92q0 -51 -17 -94.5t-49.5 -75t-80.5 -49t-108 -17.5h-162v-225h-134zM365 580h-150v-247h150q32 0 56.5 9t41 26t25 40t8.5 51q0 27 -8.5 49.5t-25 38.5t-41 24.5t-56.5 8.5v0z" />
    <glyph glyph-name="Q" unicode="Q" horiz-adv-x="792" 
d="M44 344q0 76 24.5 141.5t71 113.5t112 74.5t143.5 26.5q77 0 142 -26.5t111.5 -74.5t71.5 -113.5t25 -141.5q0 -39 -6.5 -75.5t-19.5 -69.5t-32 -61.5t-43 -52.5l127 -132l-84 -83l-140 148q-17 -7 -35 -12.5t-37 -9.5t-39 -6t-41 -2q-78 0 -143.5 26.5t-112 74.5
t-71 113.5t-24.5 141.5v0zM182 344q0 -52 15 -96.5t43.5 -77t68 -50t86.5 -17.5t86 18t67.5 50.5t43.5 76.5t15 96t-15 96t-43.5 76.5t-67.5 50.5t-86 18t-86.5 -17.5t-68 -50t-43.5 -77t-15 -96.5v0z" />
    <glyph glyph-name="R" unicode="R" horiz-adv-x="694" 
d="M81 0v688h295q61 0 108.5 -14.5t80 -42t49 -67.5t16.5 -90q0 -37 -9.5 -69.5t-27.5 -59t-45.5 -47t-62.5 -32.5l171 -266h-146l-158 250h-137v-250h-134zM370 580h-155v-225h155q30 0 53.5 8.5t39 24.5t23.5 37.5t8 47.5q0 25 -8 44.5t-24 33.5t-39 21.5t-53 7.5v0z" />
    <glyph glyph-name="S" unicode="S" horiz-adv-x="668" 
d="M50 196h131q0 -24 10.5 -44.5t30 -34.5t47 -21.5t60.5 -7.5q36 0 64 7t48 20.5t30 32.5t10 44q0 22 -10.5 38t-29 26t-42 17t-55.5 13l-46 8q-52 9 -91 20t-72.5 32.5t-53.5 57.5t-20 89q0 44 19 82t54.5 66t85.5 43.5t111 15.5q60 0 109 -14t84 -40t53.5 -62.5
t18.5 -81.5h-131q0 23 -10 41.5t-28 31t-42.5 19t-53.5 6.5t-54 -6t-43.5 -18t-28.5 -29.5t-10 -40.5t11.5 -39t32 -26.5t46 -17t61.5 -12.5l46 -8q49 -9 87 -21t69.5 -33.5t50.5 -57t19 -86.5q0 -48 -19 -88t-56.5 -69t-91.5 -44.5t-122 -15.5q-67 0 -119.5 14.5t-88 41.5
t-53.5 65.5t-18 86.5v0z" />
    <glyph glyph-name="T" unicode="T" horiz-adv-x="616" 
d="M8 576v112h600v-112h-233v-576h-134v576h-233z" />
    <glyph glyph-name="U" unicode="U" horiz-adv-x="729" 
d="M68 276v412h135v-410q0 -42 10 -74.5t30 -55t50.5 -34t71.5 -11.5q40 0 70.5 11.5t50.5 34t30 55t10 74.5v410h135v-412q0 -78 -21 -133.5t-60.5 -89.5t-93 -49.5t-121.5 -15.5t-122 15.5t-93 49.5t-60.5 89.5t-21.5 133.5v0z" />
    <glyph glyph-name="V" unicode="V" horiz-adv-x="670" 
d="M255 0l-247 688h142l184 -561h4l188 561h136l-249 -688h-158z" />
    <glyph glyph-name="W" unicode="W" horiz-adv-x="978" 
d="M187 0l-177 688h144l123 -544h4l141 544h139l144 -544h4l119 544h140l-174 -688h-166l-137 518h-4l-135 -518h-165z" />
    <glyph glyph-name="X" unicode="X" horiz-adv-x="655" 
d="M8 0l241 351l-233 337h154l158 -237l155 237h148l-229 -335l245 -353h-154l-170 254l-167 -254h-148z" />
    <glyph glyph-name="Y" unicode="Y" horiz-adv-x="665" 
d="M263 0v264l-253 424h152l169 -296h4l178 296h142l-257 -420v-268h-135z" />
    <glyph glyph-name="Z" unicode="Z" horiz-adv-x="612" 
d="M49 578v110h528v-78l-367 -500h365v-110h-541v78l368 500h-353z" />
    <glyph glyph-name="bracketleft" unicode="[" horiz-adv-x="349" 
d="M192 -128h142v-100h-259v972h259v-100h-142v-772z" />
    <glyph glyph-name="backslash" unicode="\" horiz-adv-x="426" 
d="M312 -12l-308 712h109l308 -712h-109z" />
    <glyph glyph-name="bracketright" unicode="]" horiz-adv-x="349" 
d="M14 -128h143v772h-143v100h259v-972h-259v100z" />
    <glyph glyph-name="asciicircum" unicode="^" horiz-adv-x="568" 
d="M46 352l182 336h106v-1l4 1l183 -336h-116l-123 235l-123 -235h-113z" />
    <glyph glyph-name="underscore" unicode="_" horiz-adv-x="500" 
d="M0 -72h500v-103h-500v103z" />
    <glyph glyph-name="grave" unicode="`" horiz-adv-x="586" 
d="M250 568l-148 164h135l101 -164h-88z" />
    <glyph glyph-name="a" unicode="a" horiz-adv-x="557" 
d="M42 126q0 31 9.5 55.5t30 43t52 31t74.5 19.5l94 14q20 3 32 6.5t18.5 7.5t9 10t2.5 15q0 18 -5.5 33t-16 26t-27 17t-38.5 6t-39.5 -5.5t-29.5 -16t-18.5 -25.5t-8.5 -33h-120q3 40 19.5 72t45.5 54t67.5 33t83.5 11q54 0 94.5 -11.5t67.5 -34t40.5 -55.5t13.5 -77v-322
h-123v58h-6q-11 -17 -26.5 -30t-35 -22t-43.5 -13.5t-51 -4.5q-40 0 -71.5 10t-52.5 28t-31.5 43.5t-10.5 56.5v0zM245 78q23 0 44.5 7t38.5 22t26.5 37.5t9.5 52.5v43q-3 -5 -8 -8.5t-11 -6t-13 -4.5t-16 -4l-75 -12q-19 -3 -33 -9t-22.5 -14.5t-12.5 -19t-4 -23.5
q0 -14 5 -25.5t14.5 -19.5t23.5 -12t33 -4v0z" />
    <glyph glyph-name="b" unicode="b" horiz-adv-x="615" 
d="M70 0v732h129v-150v-35t-0.5 -37.5t-2 -45.5t-3.5 -46h4q10 20 26 35.5t36.5 26t45 15.5t52.5 5q46 0 86.5 -16.5t70.5 -48.5t46.5 -79.5t16.5 -107.5t-17.5 -108.5t-49 -82.5t-73 -51.5t-88.5 -17.5q-27 0 -50 5t-42 15.5t-34.5 26t-25.5 35.5h-4v-70h-123zM199 244
q0 -36 9 -65.5t25.5 -50t39.5 -31.5t50 -11t49.5 11.5t38.5 33t25 51.5t9 66t-9 65t-25 48.5t-38.5 30t-49.5 10.5t-49 -10.5t-39 -30t-26 -47.5t-10 -63v-7z" />
    <glyph glyph-name="c" unicode="c" horiz-adv-x="553" 
d="M36 244q0 59 18.5 106.5t52 81t80.5 51t103 17.5q53 0 94.5 -14t71 -38.5t46.5 -58t21 -71.5h-127q-3 17 -10.5 32t-20.5 27t-32 18.5t-43 6.5q-27 0 -49 -11.5t-38.5 -32.5t-25 -50.5t-8.5 -63.5t8.5 -63.5t25 -50.5t38.5 -32.5t49 -11.5q24 0 43 6.5t32 18.5t20.5 27
t10.5 32h127q-4 -39 -20.5 -72t-46 -57.5t-71.5 -38.5t-95 -14q-58 0 -105 17t-80.5 50t-51 81t-17.5 108v0z" />
    <glyph glyph-name="d" unicode="d" horiz-adv-x="615" 
d="M38 240q0 60 17.5 108.5t49 82.5t73 51.5t88.5 17.5q27 0 50 -5t42.5 -15.5t34.5 -26t25 -35.5h4q-2 22 -3.5 46t-2 45.5t-0.5 37.5v35v150h129v-732h-123v70h-4q-10 -20 -26 -35.5t-36.5 -26t-45 -15.5t-52.5 -5q-46 0 -86 16.5t-70 48.5t-47 79.5t-17 107.5v0zM171 240
q0 -36 8.5 -65t25 -48.5t39 -30t49.5 -10.5q26 0 48 10.5t38.5 30t26 47.5t10.5 62v8q0 36 -9 65.5t-25.5 50t-39 31.5t-49.5 11t-49.5 -11.5t-39 -33t-25 -51.5t-8.5 -66v0z" />
    <glyph glyph-name="e" unicode="e" horiz-adv-x="564" 
d="M36 242q0 58 18.5 106t52 82t80.5 52t102 18t99 -16t75.5 -47.5t48 -77t16.5 -102.5v-36h-360q2 -33 11.5 -59t26 -43.5t38.5 -27t49 -9.5q23 0 41 5.5t31 15t21 21.5t12 24h125q-6 -33 -24.5 -62t-49 -51t-71 -34.5t-87.5 -12.5q-60 0 -107.5 16.5t-80.5 49t-50 80
t-17 108.5v0zM289 407q-22 0 -41 -7t-34 -20.5t-25.5 -33t-16.5 -45.5h225q-3 27 -11.5 47t-22 33t-32 19.5t-42.5 6.5v0z" />
    <glyph glyph-name="f" unicode="f" horiz-adv-x="341" 
d="M94 0v392h-92v96h92v58q0 48 10.5 83t33 57.5t58 34t86.5 11.5h69v-100h-48q-23 0 -38 -5t-24.5 -15t-13.5 -25.5t-4 -37.5v-61h112v-96h-112v-392h-129z" />
    <glyph glyph-name="g" unicode="g" horiz-adv-x="615" 
d="M52 -60h121q1 -17 9.5 -31.5t23 -25t35.5 -16t45 -5.5q33 0 58.5 9t42.5 29t26 51t9 75v44h-4q-10 -20 -26 -35.5t-36.5 -26t-45 -15.5t-52.5 -5q-46 0 -86 16.5t-70 48.5t-47 79.5t-17 107.5t17.5 108.5t49 82.5t73 51.5t88.5 17.5q27 0 50 -5t42.5 -15.5t34.5 -26
t25 -35.5h4v70h123v-462q0 -67 -18 -115.5t-52 -79t-81.5 -45t-107.5 -14.5q-52 0 -94.5 10.5t-73 31t-48 52.5t-18.5 74v0zM171 240q0 -36 8.5 -65t25 -48.5t39 -30t49.5 -10.5t49.5 11t39 31.5t25.5 50t9 65.5v7q-1 35 -10.5 63t-26 47.5t-38.5 30t-48 10.5
q-27 0 -49.5 -11.5t-39 -33t-25 -51.5t-8.5 -66v0z" />
    <glyph glyph-name="h" unicode="h" horiz-adv-x="599" 
d="M70 0v732h129v-150v-35t-0.5 -37.5t-2 -45t-3.5 -46.5h4q10 20 25.5 35.5t34.5 26t41.5 15.5t48.5 5q39 0 73 -11t59.5 -35t40.5 -63.5t15 -94.5v-296h-129v280q0 33 -6.5 56t-19 37t-30 20.5t-39.5 6.5q-24 0 -44.5 -9.5t-35.5 -28t-23.5 -45t-8.5 -59.5v-258h-129z" />
    <glyph glyph-name="i" unicode="i" horiz-adv-x="269" 
d="M66 612v120h137v-120h-137zM70 0v488h129v-488h-129z" />
    <glyph glyph-name="j" unicode="j" horiz-adv-x="269" 
d="M66 612v120h137v-120h-137zM70 -46v534h129v-543q0 -40 -8.5 -70.5t-28.5 -51.5t-53 -32t-81 -11h-41v100h26q16 0 27 4.5t17.5 13.5t9.5 23t3 33v0z" />
    <glyph glyph-name="k" unicode="k" horiz-adv-x="550" 
d="M70 0v732h129v-447l183 203h146l-182 -195l200 -293h-148l-137 202l-62 -66v-136h-129z" />
    <glyph glyph-name="l" unicode="l" horiz-adv-x="269" 
d="M70 0v732h129v-732h-129z" />
    <glyph glyph-name="m" unicode="m" horiz-adv-x="910" 
d="M70 0v488h123v-70h4q10 20 25.5 35.5t34.5 26t41 15.5t47 5q27 0 51 -5.5t44.5 -17t36.5 -29.5t27 -43q13 26 31 44.5t39 29.5t44.5 16t49.5 5q38 0 70 -11t56.5 -34.5t38 -62t13.5 -92.5v-300h-129v286q0 31 -6 53t-17 35.5t-27 19.5t-37 6q-23 0 -42.5 -9.5t-34.5 -28
t-23 -45t-8 -59.5v-258h-128v286q0 31 -6 53t-17.5 35.5t-27 19.5t-36.5 6q-23 0 -42.5 -9.5t-34.5 -27.5t-23 -44.5t-8 -59.5v-259h-129z" />
    <glyph glyph-name="n" unicode="n" horiz-adv-x="599" 
d="M70 0v488h123v-70h4q10 20 25.5 35.5t34.5 26t41.5 15.5t48.5 5q39 0 73 -11t59.5 -35t40.5 -63.5t15 -94.5v-296h-129v280q0 33 -6.5 56t-19 37t-30 20.5t-39.5 6.5q-24 0 -44.5 -9.5t-35.5 -28.5t-23.5 -45.5t-8.5 -59.5v-257h-129z" />
    <glyph glyph-name="o" unicode="o" horiz-adv-x="593" 
d="M38 244q0 59 19 106.5t54 81t82.5 51t103.5 17.5q58 0 105.5 -17t81.5 -50.5t52.5 -81t18.5 -107.5q0 -59 -19 -106.5t-54 -81t-82 -51t-103 -17.5q-58 0 -106 17t-82 50.5t-52.5 81t-18.5 107.5v0zM171 244q0 -36 9 -65.5t25.5 -50t40 -31.5t51.5 -11t51.5 11t39.5 31.5
t25 50t9 65.5q0 37 -8.5 66t-25 49.5t-40 31t-51.5 10.5t-51.5 -11t-40 -31.5t-25.5 -49.5t-9 -65v0z" />
    <glyph glyph-name="p" unicode="p" horiz-adv-x="615" 
d="M199 -94v-126h-129v708h123v-70h4q10 20 26 35.5t36.5 26t45 15.5t52.5 5q46 0 86.5 -16.5t70.5 -48.5t46.5 -79.5t16.5 -107.5t-17.5 -108.5t-49 -82.5t-73 -51.5t-88.5 -17.5q-27 0 -50 5t-42 15.5t-34.5 26t-25.5 35.5h-4q2 -22 3.5 -46t2 -45.5t0.5 -37.5v-35v0z
M445 248q0 36 -9 65t-25 48.5t-38.5 30t-49.5 10.5t-49 -10.5t-39 -30t-26 -47.5t-10 -63v-7q0 -36 9 -65.5t25.5 -50t39.5 -31.5t50 -11t49.5 11.5t38.5 33t25 51.5t9 66v0z" />
    <glyph glyph-name="q" unicode="q" horiz-adv-x="613" 
d="M416 -94v35t0.5 37.5t2 45.5t3.5 46h-4q-10 -20 -26 -35.5t-36.5 -26t-45 -15.5t-52.5 -5q-46 0 -86 16.5t-70 48.5t-47 79.5t-17 107.5t17.5 108.5t49 82.5t73 51.5t88.5 17.5q27 0 50 -5t42.5 -15.5t34.5 -26t25 -35.5h4v70h123v-708h-129v126zM171 240q0 -36 8.5 -65
t25 -48.5t39 -30t49.5 -10.5t49.5 11t39 31.5t25.5 50t9 65.5t-9 65.5t-25.5 50t-39 31.5t-49.5 11t-49.5 -11.5t-39 -33t-25 -51.5t-8.5 -66v0z" />
    <glyph glyph-name="r" unicode="r" horiz-adv-x="395" 
d="M70 0v488h123v-74h2q9 20 21.5 35.5t29 27t36.5 17.5t43 6q8 0 16 -1t16.5 -3t17.5 -6t18 -10l-26 -111q-8 4 -16 7t-15 5t-14.5 3t-14.5 1q-27 0 -47.5 -11.5t-34 -32t-20 -48t-6.5 -60.5v-233h-129z" />
    <glyph glyph-name="s" unicode="s" horiz-adv-x="527" 
d="M34 140h121q0 -18 8.5 -31t23 -21t32.5 -11.5t38 -3.5q25 0 44.5 4t32.5 12t19.5 19t6.5 26q0 13 -4.5 22t-13.5 15t-22 10.5t-32 7.5l-89 14q-34 5 -61 14.5t-47.5 25.5t-32 40.5t-11.5 57.5q0 38 16 67.5t45 50t68.5 31t85.5 10.5q47 0 86 -9t67.5 -27.5t44 -46.5
t15.5 -65h-119q0 16 -7.5 28.5t-20.5 20t-30 11t-37 3.5t-36.5 -4t-28.5 -11t-18.5 -18t-6.5 -24q0 -12 4 -20.5t13 -15t23.5 -11.5t36.5 -8l88 -14q33 -5 59.5 -14.5t47.5 -25t33 -40t12 -58.5q0 -40 -16.5 -71t-47.5 -51.5t-73.5 -30.5t-93.5 -10q-49 0 -90 9.5t-71 28
t-46 47.5t-16 67v0z" />
    <glyph glyph-name="t" unicode="t" horiz-adv-x="361" 
d="M88 168v224h-92v96h92v148h128v-148h121v-96h-121v-216q0 -20 3.5 -33.5t11.5 -22t21 -12.5t32 -4h53v-104h-78q-48 0 -80.5 9t-52.5 29t-29 51.5t-9 78.5v0z" />
    <glyph glyph-name="u" unicode="u" horiz-adv-x="595" 
d="M62 192v296h129v-280q0 -33 6.5 -56t19 -37t30 -20.5t39.5 -6.5q24 0 44 9.5t35 28t23 45t8 59.5v258h128v-488h-122v70h-4q-10 -20 -25 -35.5t-34 -26t-41.5 -15.5t-47.5 -5q-39 0 -73 11t-59.5 35t-40.5 63.5t-15 94.5v0z" />
    <glyph glyph-name="v" unicode="v" horiz-adv-x="518" 
d="M184 0l-180 488h140l118 -361h4l117 361h131l-175 -488h-155z" />
    <glyph glyph-name="w" unicode="w" horiz-adv-x="776" 
d="M148 0l-142 488h129l89 -361h4l99 361h126l99 -361h4l89 361h125l-142 -488h-145l-93 356h-4l-94 -356h-144z" />
    <glyph glyph-name="x" unicode="x" horiz-adv-x="504" 
d="M8 0l173 246l-169 242h145l102 -155l99 155h134l-170 -241l174 -247h-144l-107 160l-102 -160h-135z" />
    <glyph glyph-name="y" unicode="y" horiz-adv-x="518" 
d="M184 0l-180 488h140l118 -361h4l117 361h131l-195 -548q-12 -35 -29 -65t-40.5 -53t-56 -36.5t-72.5 -13.5h-59v102h30q21 0 39 5t32.5 16t25.5 28.5t19 41.5l11 35h-35z" />
    <glyph glyph-name="z" unicode="z" horiz-adv-x="479" 
d="M32 390v98h411v-75l-246 -315h250v-98h-413v70l250 320h-252z" />
    <glyph glyph-name="braceleft" unicode="{" horiz-adv-x="384" 
d="M125 -67v150q0 39 -5 63.5t-17 39.5t-33.5 22t-56.5 7v94q35 0 56.5 7t33.5 22t17 39.5t5 63.5v142q0 43 9.5 73t30 49.5t54 29t82.5 9.5h68v-97h-51q-23 0 -37.5 -4.5t-23.5 -13.5t-12.5 -24t-3.5 -38v-171q0 -28 -5.5 -49t-17 -37t-30.5 -27.5t-47 -18.5v-4
q28 -7 47 -18.5t30.5 -27.5t17 -37t5.5 -49v-179q0 -23 3.5 -38t12.5 -24t23.5 -13.5t37.5 -4.5h51v-97h-68q-49 0 -82.5 9.5t-54 29t-30 49.5t-9.5 73v0z" />
    <glyph glyph-name="bar" unicode="|" horiz-adv-x="285" 
d="M88 -240v1000h109v-1000h-109z" />
    <glyph glyph-name="braceright" unicode="}" horiz-adv-x="384" 
d="M14 -131h52q23 0 37.5 4.5t23 13.5t12 24t3.5 38v179q0 28 5.5 49t17 37t30.5 27.5t47 18.5v4q-28 7 -47 18.5t-30.5 27.5t-17 37t-5.5 49v171q0 23 -3.5 38t-12 24t-23 13.5t-37.5 4.5h-52v97h69q49 0 82.5 -9.5t54 -29t30 -49.5t9.5 -73v-142q0 -39 5 -63.5t17 -39.5
t33.5 -22t56.5 -7v-94q-35 0 -56.5 -7t-33.5 -22t-17 -39.5t-5 -63.5v-150q0 -43 -9.5 -73t-30 -49.5t-54 -29t-82.5 -9.5h-69v97z" />
    <glyph glyph-name="asciitilde" unicode="~" horiz-adv-x="568" 
d="M49 175q0 45 11 78t30 54.5t44 31.5t52 10q31 0 56.5 -9.5t57.5 -28.5t46 -26t32 -7q12 0 21 5t15.5 14.5t9.5 23.5t3 32h94q0 -44 -11 -77.5t-30 -55t-43 -32t-51 -10.5q-31 0 -57 9.5t-58.5 29t-47 27t-32.5 7.5q-12 0 -21 -5t-15 -15t-9 -24t-3 -32h-94z" />
    <glyph glyph-name="uni00A0" unicode="&#xa0;" horiz-adv-x="220" 
 />
    <glyph glyph-name="exclamdown" unicode="&#xa1;" horiz-adv-x="287" 
d="M77 356v132h133v-132h-133zM75 -12l32 295h74l31 -295v-188h-137v188z" />
    <glyph glyph-name="cent" unicode="&#xa2;" horiz-adv-x="568" 
d="M245 -12v108q-47 7 -84.5 28t-63.5 53.5t-40 76t-14 94.5t15 94t42 76t65 54t84 28v100h102v-100q40 -7 72 -23t54.5 -39.5t36 -53t17.5 -62.5h-127q-3 17 -10.5 32t-20.5 27t-32 18.5t-43 6.5q-27 0 -49.5 -11.5t-39 -32.5t-25 -50t-8.5 -64t8.5 -64t25 -50t39 -32.5
t49.5 -11.5q24 0 43 6.5t32 18.5t20.5 27t10.5 32h127q-4 -34 -17.5 -63.5t-36.5 -53.5t-56 -40t-74 -22v-107h-102z" />
    <glyph glyph-name="sterling" unicode="&#xa3;" horiz-adv-x="568" 
d="M60 318v74h79q-7 18 -12 33.5t-9 31.5t-6.5 33t-2.5 34q0 40 14 72.5t40 55.5t63.5 35.5t83.5 12.5q45 0 79.5 -11.5t58.5 -34t37 -55t16 -75.5h-118q-2 23 -7.5 39t-15 26.5t-23 15.5t-30.5 5q-15 0 -28.5 -5t-23.5 -15t-15.5 -25t-5.5 -33q0 -17 3 -34.5t7.5 -34.5
t10 -32.5t14.5 -38.5h153v-74h-128q3 -11 5 -21t4 -20.5t3 -21.5t1 -21q0 -13 -1 -26t-3 -25.5t-4.5 -25.5t-6.5 -25q16 -11 29 -19.5t25.5 -15t24.5 -10t24 -3.5q13 0 23.5 5t18.5 16t12 28.5t5 41.5h98q-2 -41 -9.5 -74t-24.5 -58.5t-44.5 -40t-67.5 -14.5q-22 0 -42 5.5
t-38 15t-34.5 21.5t-35.5 28q-11 -16 -25 -29t-31 -22t-36 -14t-41 -5q-26 0 -48 6.5t-38.5 20t-25.5 32.5t-9 44q0 26 9 47t25.5 36t39 23t50.5 8q8 0 15.5 -1t15.5 -2.5t15.5 -3.5t15.5 -5v22q0 13 -1.5 26t-4 25.5t-6 25t-8.5 26.5h-108zM122 51q12 0 21 5t16 14t12 21.5
t9 27.5l-15 7.5t-14 6t-14 4t-14 1.5q-10 0 -18 -3.5t-14 -9.5t-9 -14t-3 -17t2.5 -17t8 -13.5t13.5 -9t19 -3.5v0z" />
    <glyph glyph-name="currency" unicode="&#xa4;" horiz-adv-x="568" 
d="M138 140l-57 56l59 60q-6 10 -10.5 20t-8 21t-5.5 23t-2 24t2 23.5t5.5 22.5t8.5 21.5t11 19.5l-59 60l57 56l60 -61q9 5 19 9t21 7t22 4.5t23 1.5q11 0 22 -1.5t22 -4.5t21 -7t19 -9l61 61l57 -56l-59 -60q6 -9 11 -19.5t8.5 -21.5t5.5 -22.5t2 -23.5t-2 -24t-5.5 -23
t-8.5 -21t-11 -20l60 -60l-57 -56l-62 62q-9 -5 -19 -9t-20.5 -7t-22 -4.5t-22.5 -1.5q-12 0 -23 1.5t-22 4.5t-21 7t-19 9zM284 257q18 0 33 6t26.5 17.5t17.5 27.5t6 36t-6 36t-17.5 27.5t-26.5 17.5t-33 6t-33 -6t-26.5 -17.5t-17.5 -27.5t-6 -36t6 -36t17.5 -27.5
t26.5 -17.5t33 -6v0z" />
    <glyph glyph-name="yen" unicode="&#xa5;" horiz-adv-x="568" 
d="M82 233v67h137l-218 388h148l136 -263h4l140 263h138l-218 -388h137v-67h-138v-65h138v-67h-138v-101h-128v101h-138v67h138v65h-138z" />
    <glyph glyph-name="brokenbar" unicode="&#xa6;" horiz-adv-x="285" 
d="M88 336v352h109v-352h-109zM88 -164v352h109v-352h-109z" />
    <glyph glyph-name="section" unicode="&#xa7;" horiz-adv-x="576" 
d="M55 -70h119q1 -19 10.5 -32.5t24 -22.5t33.5 -13.5t40 -4.5q26 0 46 5.5t33.5 15.5t20.5 24.5t7 33.5q0 17 -5.5 29t-17 21.5t-28 16.5t-39.5 14l-100 28q-38 11 -66 27t-46.5 37.5t-28 48.5t-9.5 59q0 26 7.5 49.5t22.5 44.5t36 37t48 27q-23 11 -40.5 25t-30 32t-19 40
t-6.5 49q0 39 15 72t44 57t71.5 37t96.5 13q48 0 88 -10t70.5 -30t48 -50t20.5 -68h-119q-2 19 -11 32.5t-24 22.5t-33.5 13.5t-39.5 4.5q-26 0 -46 -5.5t-34 -15.5t-21 -24.5t-7 -33.5q0 -17 5.5 -29t17 -21.5t28 -16.5t40.5 -14l99 -28q38 -11 66.5 -27t47 -37.5t28 -48.5
t9.5 -59q0 -26 -8 -50t-22.5 -44.5t-36 -37t-47.5 -27.5q22 -11 39.5 -25t30.5 -32t19.5 -40t6.5 -48q0 -39 -15 -72t-44.5 -57t-72 -37t-95.5 -13q-48 0 -88.5 10t-70.5 30t-47.5 50t-20.5 68v0zM318 327l-59 16q-22 -5 -39.5 -15.5t-29.5 -24t-18 -29t-6 -32.5
q0 -20 5.5 -35t16.5 -26.5t28.5 -20t41.5 -15.5l55 -16q23 5 41.5 15t30.5 23.5t18.5 29.5t6.5 33q0 20 -5.5 35t-16.5 26.5t-28.5 20t-41.5 15.5v0z" />
    <glyph glyph-name="dieresis" unicode="&#xa8;" horiz-adv-x="586" 
d="M343 597v116h118v-116h-118zM125 597v116h117v-116h-117z" />
    <glyph glyph-name="copyright" unicode="&#xa9;" horiz-adv-x="776" 
d="M34 348q0 74 26 139t74 112.5t113 74t141 26.5q74 0 139 -26.5t113.5 -74.5t75 -112.5t26.5 -138.5t-26 -140t-74 -115.5t-113.5 -77t-140.5 -27.5t-140.5 27.5t-113.5 77t-74 115.5t-26 140v0zM115 348q0 -60 20 -113.5t56.5 -94t87 -63t109.5 -22.5q58 0 108 22.5
t87 63t57.5 94t20.5 113.5t-20 111.5t-56.5 89.5t-87 59t-109.5 21t-109.5 -21t-87 -59t-56.5 -89.5t-20 -111.5v0zM214 348q0 36 12 68t35 56.5t56 38t73 13.5q31 0 57.5 -8.5t46.5 -24.5t33 -38t17 -49h-85q-4 10 -9 18.5t-13 15t-19.5 10t-27.5 3.5q-19 0 -35 -8t-27 -22
t-17 -33t-6 -40q0 -22 6 -41t17 -33t27 -22t35 -8q16 0 27.5 3.5t19.5 10t13 15t9 18.5h85q-4 -27 -17 -49t-33 -37.5t-46.5 -24t-57.5 -8.5q-40 0 -73 13.5t-56 37.5t-35 56t-12 69v0z" />
    <glyph glyph-name="ordfeminine" unicode="&#xaa;" horiz-adv-x="404" 
d="M150 336q-28 0 -50 7t-36.5 19.5t-22 30.5t-7.5 40t7 40t21 31.5t36 22t52 12.5l64 8q14 2 22.5 4t13 5.5t6.5 8.5t2 13q0 10 -3.5 18.5t-10 15.5t-17 10.5t-24.5 3.5q-13 0 -24 -3t-19 -9.5t-12.5 -16.5t-5.5 -24h-94q2 32 15 56t34 39t48 22t58 7q38 0 67.5 -8
t49.5 -24.5t30 -41.5t10 -58v-221h-98v39h-4q-8 -11 -18 -19.5t-23.5 -15t-30 -9.5t-36.5 -3v0zM258 475v31q-2 -3 -5 -5.5t-7 -4.5t-8.5 -3t-10.5 -2l-45 -6q-13 -1 -22 -5t-14 -9.5t-7.5 -12t-2.5 -14.5q0 -10 3.5 -17.5t9.5 -13t15 -8t21 -2.5q14 0 27 4.5t23.5 13
t16.5 22.5t6 32v0z" />
    <glyph glyph-name="guillemotleft" unicode="&#xab;" horiz-adv-x="562" 
d="M266 252l142 204h105l-112 -204l112 -204h-105zM190 48l-142 204l142 204h106l-113 -204l113 -204h-106z" />
    <glyph glyph-name="logicalnot" unicode="&#xac;" horiz-adv-x="568" 
d="M58 205v100h452v-277h-106v177h-346z" />
    <glyph glyph-name="uni00AD" unicode="&#xad;" horiz-adv-x="396" 
d="M53 197v110h290v-110h-290z" />
    <glyph glyph-name="registered" unicode="&#xae;" horiz-adv-x="776" 
d="M34 348q0 74 26 139t74 112.5t113 74t141 26.5q74 0 139 -26.5t113.5 -74.5t75 -112.5t26.5 -138.5t-26 -140t-74 -115.5t-113.5 -77t-140.5 -27.5t-140.5 27.5t-113.5 77t-74 115.5t-26 140v0zM115 348q0 -60 20 -113.5t56.5 -94t87 -63t109.5 -22.5q58 0 108 22.5
t87 63t57.5 94t20.5 113.5t-20 111.5t-56.5 89.5t-87 59t-109.5 21t-109.5 -21t-87 -59t-56.5 -89.5t-20 -111.5v0zM241 176v344h168q33 0 58 -7.5t42 -22.5t25.5 -35.5t8.5 -46.5q0 -17 -5 -33t-14.5 -29.5t-23 -24t-30.5 -17.5l85 -128h-95l-72 117h-59v-117h-88zM404 449
h-75v-87h75q12 0 21.5 3t16 9t10 14t3.5 18t-3.5 18t-10 13.5t-16 8.5t-21.5 3v0z" />
    <glyph glyph-name="macron" unicode="&#xaf;" horiz-adv-x="586" 
d="M142 607v86h298v-86h-298z" />
    <glyph glyph-name="degree" unicode="&#xb0;" horiz-adv-x="397" 
d="M198 399q-34 0 -63 11t-50.5 31t-33 47.5t-11.5 60.5t11.5 61t33 48t50.5 31t63 11t63 -11t50.5 -31t33.5 -48t12 -61t-12 -60.5t-33.5 -47.5t-50.5 -31t-63 -11v0zM198 621q-14 0 -26.5 -5t-21.5 -14.5t-14.5 -23t-5.5 -29.5t5.5 -29.5t14.5 -23t21.5 -14.5t26.5 -5
t26.5 5t22 14.5t14.5 23t5 29.5t-5 29.5t-14.5 23t-22 14.5t-26.5 5v0z" />
    <glyph glyph-name="plusminus" unicode="&#xb1;" horiz-adv-x="568" 
d="M60 327v100h171v160h106v-160h175v-100h-175v-160h-106v160h-171zM56 0v100h456v-100h-456z" />
    <glyph glyph-name="twosuperior" unicode="&#xb2;" 
d="M28 496q0 39 9.5 68t26 49.5t37.5 34.5t48 26l17 9q18 8 30.5 14.5t21.5 12.5t13.5 13t4.5 15q0 9 -3.5 16.5t-10 12.5t-16 7.5t-21.5 2.5t-22.5 -3.5t-18 -10.5t-11.5 -17t-5 -24h-96q1 32 13.5 56t33.5 39.5t47.5 23t56.5 7.5q34 0 62 -7.5t48 -21.5t30.5 -34t10.5 -44
q0 -22 -7.5 -39.5t-21 -30.5t-32 -23.5t-44.5 -22.5l-18 -8q-16 -7 -27.5 -13t-19.5 -11.5t-12 -10.5t-4 -9h184v-77h-304z" />
    <glyph glyph-name="threesuperior" unicode="&#xb3;" 
d="M35 602h92q0 -12 4 -21.5t11.5 -16t17.5 -10t23 -3.5t23.5 3t18 9t11.5 14.5t4 19.5t-4 19.5t-12 14t-19 8.5t-25 3h-21v60h21q13 0 22.5 2.5t16.5 8t10.5 13t3.5 17.5t-3 18t-9.5 13.5t-16 8t-21.5 2.5t-21 -3t-15.5 -9.5t-10 -15t-3.5 -19.5h-90q1 27 11.5 47.5
t29 34.5t44.5 21t58 7t58.5 -7t45.5 -20t29 -31t10 -40q0 -15 -4.5 -27.5t-12 -22.5t-18.5 -16.5t-23 -9.5v-3q15 -3 27.5 -10t21.5 -17.5t14 -24t5 -29.5q0 -25 -10.5 -44t-30.5 -32t-49 -19.5t-66 -6.5q-35 0 -62 6.5t-46 20.5t-29 35.5t-11 51.5v0z" />
    <glyph glyph-name="acute" unicode="&#xb4;" horiz-adv-x="586" 
d="M248 568l100 164h136l-148 -164h-88z" />
    <glyph glyph-name="mu" unicode="&#xb5;" horiz-adv-x="596" 
d="M406 0v70h-4q-10 -21 -25 -36.5t-33.5 -25.5t-40.5 -15t-47 -5q-10 0 -19.5 1t-18.5 3.5t-18 6t-17 7.5q3 -24 5.5 -46t4 -42.5t2 -39.5t0.5 -37v-61h-128v708h128v-280q0 -33 6.5 -56t19 -37t30 -20.5t40.5 -6.5q24 0 44 10t34.5 29t22.5 45.5t8 59.5v256h129v-488h-123
z" />
    <glyph glyph-name="paragraph" unicode="&#xb6;" horiz-adv-x="628" 
d="M436 0v688h116v-688h-116zM247 0v249q-48 6 -86.5 23.5t-65.5 45.5t-41 66t-14 84q0 50 17 90.5t50 69.5t80 44.5t105 15.5h71v-688h-116z" />
    <glyph glyph-name="periodcentered" unicode="&#xb7;" horiz-adv-x="282" 
d="M69 185v136h145v-136h-145z" />
    <glyph glyph-name="cedilla" unicode="&#xb8;" horiz-adv-x="586" 
d="M242 -88l31 88h41v-38q22 -1 39.5 -7.5t29 -18.5t17.5 -27t6 -33q0 -21 -7 -38.5t-21.5 -30.5t-37 -20t-51.5 -7h-67v62h53q11 0 20 2t15 6t9 11t3 17q0 9 -3 15.5t-9.5 10.5t-15 6t-19.5 2h-33z" />
    <glyph glyph-name="onesuperior" unicode="&#xb9;" 
d="M78 685l-40 67l149 88h61v-267h92v-77h-290v77h96v150z" />
    <glyph glyph-name="ordmasculine" unicode="&#xba;" horiz-adv-x="430" 
d="M214 336q-43 0 -77 12.5t-58.5 36t-37 57t-12.5 74.5t13 74.5t37.5 57.5t58.5 36.5t76 12.5q43 0 77.5 -12.5t59 -36.5t37 -57.5t12.5 -74.5t-13 -74.5t-37.5 -57t-59 -36t-76.5 -12.5v0zM214 417q19 0 34 7t25 20.5t15.5 31.5t5.5 40t-5.5 40.5t-15.5 31.5t-25 20t-34 7
q-18 0 -33 -7t-25 -20t-15.5 -31.5t-5.5 -40.5t5.5 -40t15.5 -31.5t25 -20.5t33 -7v0z" />
    <glyph glyph-name="guillemotright" unicode="&#xbb;" horiz-adv-x="562" 
d="M266 48l112 204l-112 204h105l142 -204l-142 -204h-105zM48 48l113 204l-113 204h105l143 -204l-143 -204h-105z" />
    <glyph glyph-name="onequarter" unicode="&#xbc;" horiz-adv-x="811" 
d="M465 58v56l188 232h86v-215h46v-73h-46v-58h-100v58h-174zM229 -12l348 712h81l-348 -712h-81zM78 533l-40 67l149 88h61v-267h92v-77h-290v77h96v150zM561 131h78v99z" />
    <glyph glyph-name="onehalf" unicode="&#xbd;" horiz-adv-x="811" 
d="M473 0q0 39 9.5 68t26 49.5t37 34.5t47.5 26l17 9q18 8 30.5 14.5t21.5 12.5t13.5 13t4.5 15q0 9 -3.5 16.5t-10 12.5t-16 7.5t-21.5 2.5t-22.5 -3.5t-18 -10.5t-11.5 -17t-5 -24h-95q1 32 13.5 56t33.5 39.5t47.5 23t56.5 7.5q34 0 61.5 -7.5t47.5 -21.5t30.5 -34
t10.5 -44q0 -22 -7.5 -39.5t-21 -30.5t-32 -23.5t-44.5 -22.5l-18 -8q-16 -7 -27.5 -13t-19.5 -11.5t-12 -10.5t-4 -9h184v-77h-303zM207 -12q22 46 69.5 142.5t103 211t104 213t71.5 145.5h81l-348 -712h-81zM78 533l-40 67l149 88h61v-267h92v-77h-290v77h96v150z" />
    <glyph glyph-name="threequarters" unicode="&#xbe;" horiz-adv-x="811" 
d="M465 58v56l188 232h86v-215h46v-73h-46v-58h-100v58h-174zM35 450h92q0 -12 4 -21.5t11.5 -16t17.5 -10t23 -3.5t23.5 3t18 9t11.5 14.5t4 19.5t-4 19.5t-12 14t-19 8.5t-25 3h-21v60h21q13 0 22.5 2.5t16.5 8t10.5 13t3.5 17.5t-3 18t-9.5 13.5t-16 8t-21.5 2.5t-21 -3
t-15.5 -9.5t-10 -15t-3.5 -19.5h-90q1 27 11.5 47.5t29 34.5t44.5 21t58 7t58.5 -7t45.5 -20t29 -31t10 -40q0 -15 -4.5 -27.5t-12 -22.5t-18.5 -16.5t-23 -9.5v-3q15 -3 27.5 -10t21.5 -17.5t14 -24t5 -29.5q0 -25 -10.5 -44t-30.5 -32t-49 -19.5t-66 -6.5q-35 0 -62 6.5
t-46 20.5t-29 35.5t-11 51.5v0zM211 -12q23 47 71.5 145.5t104 213t103 211t69.5 142.5h81l-348 -712h-81zM561 131h78v99z" />
    <glyph glyph-name="questiondown" unicode="&#xbf;" horiz-adv-x="517" 
d="M201 356v132h133v-132h-133zM27 -25q0 56 23.5 90t69.5 68.5t66.5 57t20.5 61.5v29h121v-24q0 -61 -23 -98t-69 -73t-63 -53.5t-17 -51.5q0 -19 6.5 -35t19.5 -28.5t31.5 -19t41.5 -6.5q30 0 51.5 9t35.5 25.5t20.5 37t6.5 44.5h123q0 -44 -14 -83.5t-42.5 -70t-74 -48.5
t-106.5 -18q-51 0 -92.5 12.5t-72 37t-47 59t-16.5 78.5v0z" />
    <glyph glyph-name="Agrave" unicode="&#xc0;" horiz-adv-x="686" 
d="M8 0l256 688h158l256 -688h-142l-53 154h-285l-54 -154h-136zM344 561h-4l-105 -299h211zM299 768l-148 164h135l101 -164h-88z" />
    <glyph glyph-name="Aacute" unicode="&#xc1;" horiz-adv-x="686" 
d="M8 0l256 688h158l256 -688h-142l-53 154h-285l-54 -154h-136zM344 561h-4l-105 -299h211zM297 768l100 164h136l-148 -164h-88z" />
    <glyph glyph-name="Acircumflex" unicode="&#xc2;" horiz-adv-x="686" 
d="M8 0l256 688h158l256 -688h-142l-53 154h-285l-54 -154h-136zM344 561h-4l-105 -299h211zM165 768l128 164h98l128 -164h-106l-71 99l-71 -99h-106z" />
    <glyph glyph-name="Atilde" unicode="&#xc3;" horiz-adv-x="686" 
d="M8 0l256 688h158l256 -688h-142l-53 154h-285l-54 -154h-136zM344 561h-4l-105 -299h211zM167 768q0 29 7 52t20 39.5t32.5 25t43.5 8.5q20 0 39.5 -6t45 -17.5t38 -16.5t25.5 -5q9 0 16 4t11.5 11t7 15.5t3.5 17.5h61q-1 -29 -8 -51.5t-20 -39t-32 -25t-43 -8.5
q-21 0 -40 6t-44.5 17.5t-38 16t-25.5 4.5q-9 0 -16 -4t-11.5 -11t-7 -15.5t-3.5 -17.5h-61z" />
    <glyph glyph-name="Adieresis" unicode="&#xc4;" horiz-adv-x="686" 
d="M8 0l256 688h158l256 -688h-142l-53 154h-285l-54 -154h-136zM344 561h-4l-105 -299h211zM392 768v116h118v-116h-118zM174 768v116h117v-116h-117z" />
    <glyph glyph-name="Aring" unicode="&#xc5;" horiz-adv-x="686" 
d="M8 0l256 688h158l256 -688h-142l-53 154h-285l-54 -154h-136zM344 561h-4l-105 -299h211zM342 755q-22 0 -41.5 7.5t-34.5 21t-23 32t-8 40.5t8 41t23 32.5t34.5 21t41.5 7.5t41.5 -7.5t34 -21t23 -32.5t8.5 -41t-8 -40.5t-23 -32t-34.5 -21t-41.5 -7.5v0zM342 808
q10 0 18.5 3.5t15 10t10.5 15.5t4 19t-4 19t-10.5 16t-15 10.5t-18.5 3.5t-18.5 -3.5t-15 -10.5t-10.5 -16t-4 -19t4 -19t10.5 -15.5t15 -10t18.5 -3.5v0z" />
    <glyph glyph-name="AE" unicode="&#xc6;" horiz-adv-x="1117" 
d="M5 0l497 688h555v-111h-366v-173h296v-106h-296v-187h376v-111h-510v154h-289l-109 -154h-154zM553 554l-209 -294h213v294h-4z" />
    <glyph glyph-name="Ccedilla" unicode="&#xc7;" horiz-adv-x="732" 
d="M336 -88l27 77q-73 4 -132.5 31.5t-101 75t-63.5 111t-22 137.5q0 76 24 141t69.5 113.5t109 75t140.5 26.5q63 0 115 -16.5t91 -48t64 -75.5t35 -99h-134q-8 30 -23 53t-36.5 39t-49.5 24t-62 8q-47 0 -85 -17.5t-65 -49.5t-41 -76.5t-14 -97.5q0 -52 14.5 -96
t41.5 -76.5t65 -50.5t84 -18q36 0 64.5 8t49 24t35 39t22.5 53h134q-9 -52 -32.5 -95t-60 -74t-85 -48.5t-106.5 -20.5v-27q22 -1 39.5 -7.5t29 -18.5t17.5 -27t6 -33q0 -21 -7 -38.5t-21.5 -30.5t-37 -20t-51.5 -7h-67v62h53q11 0 20 2t15 6t9 11t3 17q0 9 -3 15.5
t-9.5 10.5t-15 6t-19.5 2h-33z" />
    <glyph glyph-name="Egrave" unicode="&#xc8;" horiz-adv-x="640" 
d="M81 0v688h499v-111h-365v-173h294v-106h-294v-187h374v-111h-508zM288 768l-148 164h135l101 -164h-88z" />
    <glyph glyph-name="Eacute" unicode="&#xc9;" horiz-adv-x="640" 
d="M81 0v688h499v-111h-365v-173h294v-106h-294v-187h374v-111h-508zM286 768l100 164h136l-148 -164h-88z" />
    <glyph glyph-name="Ecircumflex" unicode="&#xca;" horiz-adv-x="640" 
d="M81 0v688h499v-111h-365v-173h294v-106h-294v-187h374v-111h-508zM154 768l128 164h98l128 -164h-106l-71 99l-71 -99h-106z" />
    <glyph glyph-name="Edieresis" unicode="&#xcb;" horiz-adv-x="640" 
d="M81 0v688h499v-111h-365v-173h294v-106h-294v-187h374v-111h-508zM381 768v116h118v-116h-118zM163 768v116h117v-116h-117z" />
    <glyph glyph-name="Igrave" unicode="&#xcc;" horiz-adv-x="296" 
d="M81 0v688h134v-688h-134zM105 768l-148 164h135l101 -164h-88z" />
    <glyph glyph-name="Iacute" unicode="&#xcd;" horiz-adv-x="296" 
d="M81 0v688h134v-688h-134zM103 768l100 164h136l-148 -164h-88z" />
    <glyph glyph-name="Icircumflex" unicode="&#xce;" horiz-adv-x="296" 
d="M81 0v688h134v-688h-134zM-29 768l128 164h98l128 -164h-106l-71 99l-71 -99h-106z" />
    <glyph glyph-name="Idieresis" unicode="&#xcf;" horiz-adv-x="296" 
d="M81 0v688h134v-688h-134zM198 768v116h118v-116h-118zM-20 768v116h117v-116h-117z" />
    <glyph glyph-name="Eth" unicode="&#xd0;" horiz-adv-x="735" 
d="M4 304v82h77v302h245q88 0 157 -25t115 -71.5t69.5 -109.5t23.5 -138t-23.5 -138t-69.5 -109.5t-115 -71.5t-157 -25h-245v304h-77zM317 577h-102v-191h149v-82h-149v-193h102q62 0 107.5 18t74 50.5t41.5 74t13 90.5t-13 90.5t-41.5 74t-74 50.5t-107.5 18v0z" />
    <glyph glyph-name="Ntilde" unicode="&#xd1;" horiz-adv-x="762" 
d="M81 0v688h121l345 -460h4l-4 460h134v-688h-119l-347 460h-4l4 -460h-134zM206 768q0 29 7 52t20 39.5t32.5 25t43.5 8.5q20 0 39.5 -6t45 -17.5t38 -16.5t25.5 -5q9 0 16 4t11.5 11t7 15.5t3.5 17.5h61q-1 -29 -8 -51.5t-20 -39t-32 -25t-43 -8.5q-21 0 -40 6
t-44.5 17.5t-38 16t-25.5 4.5q-9 0 -16 -4t-11.5 -11t-7 -15.5t-3.5 -17.5h-61z" />
    <glyph glyph-name="Ograve" unicode="&#xd2;" horiz-adv-x="789" 
d="M44 344q0 76 24.5 141.5t71 113.5t112 74.5t143.5 26.5q77 0 142 -26.5t111.5 -74.5t71.5 -113.5t25 -141.5t-25 -141.5t-71.5 -113.5t-111.5 -74.5t-142 -26.5q-78 0 -143.5 26.5t-112 74.5t-71 113.5t-24.5 141.5v0zM182 344q0 -52 15 -96.5t43.5 -77t68 -50
t86.5 -17.5t86 18t67.5 50.5t43.5 76.5t15 96t-15 96t-43.5 76.5t-67.5 50.5t-86 18t-86.5 -17.5t-68 -50t-43.5 -77t-15 -96.5v0zM352 768l-148 164h135l101 -164h-88z" />
    <glyph glyph-name="Oacute" unicode="&#xd3;" horiz-adv-x="789" 
d="M44 344q0 76 24.5 141.5t71 113.5t112 74.5t143.5 26.5q77 0 142 -26.5t111.5 -74.5t71.5 -113.5t25 -141.5t-25 -141.5t-71.5 -113.5t-111.5 -74.5t-142 -26.5q-78 0 -143.5 26.5t-112 74.5t-71 113.5t-24.5 141.5v0zM182 344q0 -52 15 -96.5t43.5 -77t68 -50
t86.5 -17.5t86 18t67.5 50.5t43.5 76.5t15 96t-15 96t-43.5 76.5t-67.5 50.5t-86 18t-86.5 -17.5t-68 -50t-43.5 -77t-15 -96.5v0zM350 768l100 164h136l-148 -164h-88z" />
    <glyph glyph-name="Ocircumflex" unicode="&#xd4;" horiz-adv-x="789" 
d="M44 344q0 76 24.5 141.5t71 113.5t112 74.5t143.5 26.5q77 0 142 -26.5t111.5 -74.5t71.5 -113.5t25 -141.5t-25 -141.5t-71.5 -113.5t-111.5 -74.5t-142 -26.5q-78 0 -143.5 26.5t-112 74.5t-71 113.5t-24.5 141.5v0zM182 344q0 -52 15 -96.5t43.5 -77t68 -50
t86.5 -17.5t86 18t67.5 50.5t43.5 76.5t15 96t-15 96t-43.5 76.5t-67.5 50.5t-86 18t-86.5 -17.5t-68 -50t-43.5 -77t-15 -96.5v0zM218 768l128 164h98l128 -164h-106l-71 99l-71 -99h-106z" />
    <glyph glyph-name="Otilde" unicode="&#xd5;" horiz-adv-x="789" 
d="M44 344q0 76 24.5 141.5t71 113.5t112 74.5t143.5 26.5q77 0 142 -26.5t111.5 -74.5t71.5 -113.5t25 -141.5t-25 -141.5t-71.5 -113.5t-111.5 -74.5t-142 -26.5q-78 0 -143.5 26.5t-112 74.5t-71 113.5t-24.5 141.5v0zM182 344q0 -52 15 -96.5t43.5 -77t68 -50
t86.5 -17.5t86 18t67.5 50.5t43.5 76.5t15 96t-15 96t-43.5 76.5t-67.5 50.5t-86 18t-86.5 -17.5t-68 -50t-43.5 -77t-15 -96.5v0zM220 768q0 29 7 52t20 39.5t32.5 25t43.5 8.5q20 0 39.5 -6t45 -17.5t38 -16.5t25.5 -5q9 0 16 4t11.5 11t7 15.5t3.5 17.5h61
q-1 -29 -8 -51.5t-20 -39t-32 -25t-43 -8.5q-21 0 -40 6t-44.5 17.5t-38 16t-25.5 4.5q-9 0 -16 -4t-11.5 -11t-7 -15.5t-3.5 -17.5h-61z" />
    <glyph glyph-name="Odieresis" unicode="&#xd6;" horiz-adv-x="789" 
d="M44 344q0 76 24.5 141.5t71 113.5t112 74.5t143.5 26.5q77 0 142 -26.5t111.5 -74.5t71.5 -113.5t25 -141.5t-25 -141.5t-71.5 -113.5t-111.5 -74.5t-142 -26.5q-78 0 -143.5 26.5t-112 74.5t-71 113.5t-24.5 141.5v0zM182 344q0 -52 15 -96.5t43.5 -77t68 -50
t86.5 -17.5t86 18t67.5 50.5t43.5 76.5t15 96t-15 96t-43.5 76.5t-67.5 50.5t-86 18t-86.5 -17.5t-68 -50t-43.5 -77t-15 -96.5v0zM445 768v116h118v-116h-118zM227 768v116h117v-116h-117z" />
    <glyph glyph-name="multiply" unicode="&#xd7;" horiz-adv-x="568" 
d="M67 401l72 71l145 -147l145 147l72 -71l-146 -147l148 -149l-72 -71l-147 148l-147 -148l-72 71l148 149z" />
    <glyph glyph-name="Oslash" unicode="&#xd8;" horiz-adv-x="789" 
d="M58 -12l83 100q-23 24 -41 52.5t-30.5 61t-19 68.5t-6.5 74q0 76 25 141.5t71.5 113.5t111.5 74.5t143 26.5q29 0 56 -4t52 -11t48 -18t44 -25l48 58h89l-84 -102q23 -24 41 -52.5t30.5 -60.5t19 -67.5t6.5 -73.5q0 -76 -25.5 -141.5t-72 -113.5t-111.5 -74.5t-141 -26.5
q-29 0 -56.5 3.5t-53 11t-48.5 18t-44 24.5l-46 -57h-89zM182 344q0 -22 3 -43t8.5 -40.5t13.5 -37t18 -32.5l292 355q-13 9 -27 16.5t-29.5 12.5t-32 7.5t-33.5 2.5q-47 0 -86.5 -17.5t-68 -50t-43.5 -77t-15 -96.5v0zM607 344q0 22 -3 42.5t-8.5 40t-13.5 37t-18 32.5
l-292 -355q13 -9 27 -16t29.5 -12t32 -7.5t34.5 -2.5q47 0 86 18t67.5 50.5t43.5 76.5t15 96v0z" />
    <glyph glyph-name="Ugrave" unicode="&#xd9;" horiz-adv-x="729" 
d="M68 276v412h135v-410q0 -42 10 -74.5t30 -55t50.5 -34t71.5 -11.5q40 0 70.5 11.5t50.5 34t30 55t10 74.5v410h135v-412q0 -78 -21 -133.5t-60.5 -89.5t-93 -49.5t-121.5 -15.5t-122 15.5t-93 49.5t-60.5 89.5t-21.5 133.5v0zM322 768l-148 164h135l101 -164h-88z" />
    <glyph glyph-name="Uacute" unicode="&#xda;" horiz-adv-x="729" 
d="M68 276v412h135v-410q0 -42 10 -74.5t30 -55t50.5 -34t71.5 -11.5q40 0 70.5 11.5t50.5 34t30 55t10 74.5v410h135v-412q0 -78 -21 -133.5t-60.5 -89.5t-93 -49.5t-121.5 -15.5t-122 15.5t-93 49.5t-60.5 89.5t-21.5 133.5v0zM320 768l100 164h136l-148 -164h-88z" />
    <glyph glyph-name="Ucircumflex" unicode="&#xdb;" horiz-adv-x="729" 
d="M68 276v412h135v-410q0 -42 10 -74.5t30 -55t50.5 -34t71.5 -11.5q40 0 70.5 11.5t50.5 34t30 55t10 74.5v410h135v-412q0 -78 -21 -133.5t-60.5 -89.5t-93 -49.5t-121.5 -15.5t-122 15.5t-93 49.5t-60.5 89.5t-21.5 133.5v0zM188 768l128 164h98l128 -164h-106l-71 99
l-71 -99h-106z" />
    <glyph glyph-name="Udieresis" unicode="&#xdc;" horiz-adv-x="729" 
d="M68 276v412h135v-410q0 -42 10 -74.5t30 -55t50.5 -34t71.5 -11.5q40 0 70.5 11.5t50.5 34t30 55t10 74.5v410h135v-412q0 -78 -21 -133.5t-60.5 -89.5t-93 -49.5t-121.5 -15.5t-122 15.5t-93 49.5t-60.5 89.5t-21.5 133.5v0zM415 768v116h118v-116h-118zM197 768v116
h117v-116h-117z" />
    <glyph glyph-name="Yacute" unicode="&#xdd;" horiz-adv-x="665" 
d="M263 0v264l-253 424h152l169 -296h4l178 296h142l-257 -420v-268h-135zM288 768l100 164h136l-148 -164h-88z" />
    <glyph glyph-name="Thorn" unicode="&#xde;" horiz-adv-x="675" 
d="M81 0v688h134v-106h162q60 0 108 -16.5t80.5 -47t49.5 -72.5t17 -92q0 -51 -17 -94t-49.5 -75t-80.5 -49t-108 -17h-162v-119h-134zM365 474h-150v-248h150q32 0 56.5 9.5t41 26.5t25 40t8.5 50q0 28 -8.5 50t-25 38.5t-41 25t-56.5 8.5v0z" />
    <glyph glyph-name="germandbls" unicode="&#xdf;" horiz-adv-x="614" 
d="M70 0v501q0 59 17 105t49.5 76.5t77.5 46t100 15.5t95.5 -13t65.5 -35.5t37 -51t12 -59.5q0 -34 -12.5 -59t-38 -53t-34 -38.5t-8.5 -28.5q0 -21 8.5 -29t56.5 -45.5t69 -70.5t21 -82q0 -44 -15.5 -77.5t-42.5 -56t-62.5 -34t-75.5 -11.5h-106v100h93q19 0 34 4.5
t25.5 13t16 21.5t5.5 29q0 30 -16.5 46.5t-55 44t-58 56t-19.5 74.5q0 34 12.5 58t36.5 50.5t34.5 41.5t10.5 38q0 14 -5.5 27t-17 23t-29.5 15.5t-41 5.5q-24 0 -44.5 -8t-35.5 -25t-23 -44t-8 -65v-506h-129z" />
    <glyph glyph-name="agrave" unicode="&#xe0;" horiz-adv-x="557" 
d="M42 126q0 31 9.5 55.5t30 43t52 31t74.5 19.5l94 14q20 3 32 6.5t18.5 7.5t9 10t2.5 15q0 18 -5.5 33t-16 26t-27 17t-38.5 6t-39.5 -5.5t-29.5 -16t-18.5 -25.5t-8.5 -33h-120q3 40 19.5 72t45.5 54t67.5 33t83.5 11q54 0 94.5 -11.5t67.5 -34t40.5 -55.5t13.5 -77v-322
h-123v58h-6q-11 -17 -26.5 -30t-35 -22t-43.5 -13.5t-51 -4.5q-40 0 -71.5 10t-52.5 28t-31.5 43.5t-10.5 56.5v0zM245 78q23 0 44.5 7t38.5 22t26.5 37.5t9.5 52.5v43q-3 -5 -8 -8.5t-11 -6t-13 -4.5t-16 -4l-75 -12q-19 -3 -33 -9t-22.5 -14.5t-12.5 -19t-4 -23.5
q0 -14 5 -25.5t14.5 -19.5t23.5 -12t33 -4v0zM240 568l-148 164h135l101 -164h-88z" />
    <glyph glyph-name="aacute" unicode="&#xe1;" horiz-adv-x="557" 
d="M42 126q0 31 9.5 55.5t30 43t52 31t74.5 19.5l94 14q20 3 32 6.5t18.5 7.5t9 10t2.5 15q0 18 -5.5 33t-16 26t-27 17t-38.5 6t-39.5 -5.5t-29.5 -16t-18.5 -25.5t-8.5 -33h-120q3 40 19.5 72t45.5 54t67.5 33t83.5 11q54 0 94.5 -11.5t67.5 -34t40.5 -55.5t13.5 -77v-322
h-123v58h-6q-11 -17 -26.5 -30t-35 -22t-43.5 -13.5t-51 -4.5q-40 0 -71.5 10t-52.5 28t-31.5 43.5t-10.5 56.5v0zM245 78q23 0 44.5 7t38.5 22t26.5 37.5t9.5 52.5v43q-3 -5 -8 -8.5t-11 -6t-13 -4.5t-16 -4l-75 -12q-19 -3 -33 -9t-22.5 -14.5t-12.5 -19t-4 -23.5
q0 -14 5 -25.5t14.5 -19.5t23.5 -12t33 -4v0zM222 568l100 164h136l-148 -164h-88z" />
    <glyph glyph-name="acircumflex" unicode="&#xe2;" horiz-adv-x="557" 
d="M42 126q0 31 9.5 55.5t30 43t52 31t74.5 19.5l94 14q20 3 32 6.5t18.5 7.5t9 10t2.5 15q0 18 -5.5 33t-16 26t-27 17t-38.5 6t-39.5 -5.5t-29.5 -16t-18.5 -25.5t-8.5 -33h-120q3 40 19.5 72t45.5 54t67.5 33t83.5 11q54 0 94.5 -11.5t67.5 -34t40.5 -55.5t13.5 -77v-322
h-123v58h-6q-11 -17 -26.5 -30t-35 -22t-43.5 -13.5t-51 -4.5q-40 0 -71.5 10t-52.5 28t-31.5 43.5t-10.5 56.5v0zM245 78q23 0 44.5 7t38.5 22t26.5 37.5t9.5 52.5v43q-3 -5 -8 -8.5t-11 -6t-13 -4.5t-16 -4l-75 -12q-19 -3 -33 -9t-22.5 -14.5t-12.5 -19t-4 -23.5
q0 -14 5 -25.5t14.5 -19.5t23.5 -12t33 -4v0zM98 568l128 164h98l128 -164h-106l-71 99l-71 -99h-106z" />
    <glyph glyph-name="atilde" unicode="&#xe3;" horiz-adv-x="557" 
d="M42 126q0 31 9.5 55.5t30 43t52 31t74.5 19.5l94 14q20 3 32 6.5t18.5 7.5t9 10t2.5 15q0 18 -5.5 33t-16 26t-27 17t-38.5 6t-39.5 -5.5t-29.5 -16t-18.5 -25.5t-8.5 -33h-120q3 40 19.5 72t45.5 54t67.5 33t83.5 11q54 0 94.5 -11.5t67.5 -34t40.5 -55.5t13.5 -77v-322
h-123v58h-6q-11 -17 -26.5 -30t-35 -22t-43.5 -13.5t-51 -4.5q-40 0 -71.5 10t-52.5 28t-31.5 43.5t-10.5 56.5v0zM245 78q23 0 44.5 7t38.5 22t26.5 37.5t9.5 52.5v43q-3 -5 -8 -8.5t-11 -6t-13 -4.5t-16 -4l-75 -12q-19 -3 -33 -9t-22.5 -14.5t-12.5 -19t-4 -23.5
q0 -14 5 -25.5t14.5 -19.5t23.5 -12t33 -4v0zM100 587q0 29 7 51.5t20 39t32.5 25t43.5 8.5q20 0 39.5 -6t45 -17.5t38 -16t25.5 -4.5q9 0 16 4t11.5 11t7 15.5t3.5 17.5h61q-1 -29 -8 -52t-20 -39.5t-32 -25t-43 -8.5q-21 0 -40 6t-44.5 17.5t-38 16.5t-25.5 5q-9 0 -16 -4
t-11.5 -11t-7 -15.5t-3.5 -17.5h-61z" />
    <glyph glyph-name="adieresis" unicode="&#xe4;" horiz-adv-x="557" 
d="M42 126q0 31 9.5 55.5t30 43t52 31t74.5 19.5l94 14q20 3 32 6.5t18.5 7.5t9 10t2.5 15q0 18 -5.5 33t-16 26t-27 17t-38.5 6t-39.5 -5.5t-29.5 -16t-18.5 -25.5t-8.5 -33h-120q3 40 19.5 72t45.5 54t67.5 33t83.5 11q54 0 94.5 -11.5t67.5 -34t40.5 -55.5t13.5 -77v-322
h-123v58h-6q-11 -17 -26.5 -30t-35 -22t-43.5 -13.5t-51 -4.5q-40 0 -71.5 10t-52.5 28t-31.5 43.5t-10.5 56.5v0zM245 78q23 0 44.5 7t38.5 22t26.5 37.5t9.5 52.5v43q-3 -5 -8 -8.5t-11 -6t-13 -4.5t-16 -4l-75 -12q-19 -3 -33 -9t-22.5 -14.5t-12.5 -19t-4 -23.5
q0 -14 5 -25.5t14.5 -19.5t23.5 -12t33 -4v0zM325 597v116h118v-116h-118zM107 597v116h117v-116h-117z" />
    <glyph glyph-name="aring" unicode="&#xe5;" horiz-adv-x="557" 
d="M42 126q0 31 9.5 55.5t30 43t52 31t74.5 19.5l94 14q20 3 32 6.5t18.5 7.5t9 10t2.5 15q0 18 -5.5 33t-16 26t-27 17t-38.5 6t-39.5 -5.5t-29.5 -16t-18.5 -25.5t-8.5 -33h-120q3 40 19.5 72t45.5 54t67.5 33t83.5 11q54 0 94.5 -11.5t67.5 -34t40.5 -55.5t13.5 -77v-322
h-123v58h-6q-11 -17 -26.5 -30t-35 -22t-43.5 -13.5t-51 -4.5q-40 0 -71.5 10t-52.5 28t-31.5 43.5t-10.5 56.5v0zM245 78q23 0 44.5 7t38.5 22t26.5 37.5t9.5 52.5v43q-3 -5 -8 -8.5t-11 -6t-13 -4.5t-16 -4l-75 -12q-19 -3 -33 -9t-22.5 -14.5t-12.5 -19t-4 -23.5
q0 -14 5 -25.5t14.5 -19.5t23.5 -12t33 -4v0zM275 555q-22 0 -41.5 7.5t-34.5 21t-23 32t-8 40.5t8 41t23 32.5t34.5 21t41.5 7.5t41.5 -7.5t34 -21t23 -32.5t8.5 -41t-8 -40.5t-23 -32t-34.5 -21t-41.5 -7.5v0zM275 608q10 0 18.5 3.5t15 10t10.5 15.5t4 19t-4 19t-10.5 16
t-15 10.5t-18.5 3.5t-18.5 -3.5t-15 -10.5t-10.5 -16t-4 -19t4 -19t10.5 -15.5t15 -10t18.5 -3.5v0z" />
    <glyph glyph-name="ae" unicode="&#xe6;" horiz-adv-x="868" 
d="M61 330q3 44 21 76.5t47.5 53.5t67 30.5t80.5 9.5q29 0 53.5 -3.5t45 -11t37 -18.5t28.5 -26q15 14 32 25t37 18.5t42.5 11.5t47.5 4q52 0 94.5 -16t73.5 -47.5t47.5 -77t16.5 -102.5v-36h-345q2 -34 11 -60t24 -43.5t35.5 -26.5t46.5 -9q23 0 39.5 5.5t28 15t18.5 21
t11 24.5h125q-6 -33 -24 -62t-47.5 -51t-68.5 -34.5t-84 -12.5q-33 0 -61.5 6t-52.5 18t-43 29.5t-34 40.5q-17 -28 -39.5 -46.5t-48 -29t-51.5 -14.5t-53 -4q-43 0 -76.5 10t-56 28t-33.5 43.5t-11 56.5t10 55.5t30.5 43t51.5 31.5t74 19l94 14q20 3 32 6.5t18.5 8t9 10.5
t2.5 16q0 17 -5 31t-16 25.5t-27.5 17.5t-38.5 6q-20 0 -37 -5t-30 -15t-20.5 -25t-8.5 -35h-120zM245 78q24 0 45 7t38 21.5t26.5 37.5t9.5 53v43q-3 -5 -8 -8.5t-11 -6t-13 -4.5t-16 -4l-75 -12q-19 -3 -32.5 -9t-22 -14.5t-13 -19t-4.5 -23.5q0 -15 5 -26.5t15 -19
t24 -11.5t32 -4v0zM600 407q-22 0 -40 -7t-32 -21t-23.5 -34t-14.5 -46h210q-2 26 -9 46t-19.5 34t-30.5 21t-41 7v0z" />
    <glyph glyph-name="ccedilla" unicode="&#xe7;" horiz-adv-x="553" 
d="M239 -88l27 77q-53 3 -95.5 21.5t-72.5 51.5t-46 79t-16 103q0 59 18.5 106.5t52 81t80.5 51t103 17.5q53 0 94.5 -14t71 -38.5t46.5 -58t21 -71.5h-127q-3 17 -10.5 32t-20.5 27t-32 18.5t-43 6.5q-27 0 -49 -11.5t-38.5 -32.5t-25 -50.5t-8.5 -63.5t8.5 -63.5t25 -50.5
t38.5 -32.5t49 -11.5q24 0 43 6.5t32 18.5t20.5 27t10.5 32h127q-4 -37 -19.5 -68.5t-42 -56t-64.5 -39t-86 -17.5v-27q22 -1 39.5 -7.5t29 -18.5t17.5 -27t6 -33q0 -21 -7 -38.5t-21.5 -30.5t-37 -20t-51.5 -7h-67v62h53q11 0 20 2t15 6t9 11t3 17q0 9 -3 15.5t-9.5 10.5
t-15 6t-19.5 2h-33z" />
    <glyph glyph-name="egrave" unicode="&#xe8;" horiz-adv-x="564" 
d="M36 242q0 58 18.5 106t52 82t80.5 52t102 18t99 -16t75.5 -47.5t48 -77t16.5 -102.5v-36h-360q2 -33 11.5 -59t26 -43.5t38.5 -27t49 -9.5q23 0 41 5.5t31 15t21 21.5t12 24h125q-6 -33 -24.5 -62t-49 -51t-71 -34.5t-87.5 -12.5q-60 0 -107.5 16.5t-80.5 49t-50 80
t-17 108.5v0zM289 407q-22 0 -41 -7t-34 -20.5t-25.5 -33t-16.5 -45.5h225q-3 27 -11.5 47t-22 33t-32 19.5t-42.5 6.5v0zM246 568l-148 164h135l101 -164h-88z" />
    <glyph glyph-name="eacute" unicode="&#xe9;" horiz-adv-x="564" 
d="M36 242q0 58 18.5 106t52 82t80.5 52t102 18t99 -16t75.5 -47.5t48 -77t16.5 -102.5v-36h-360q2 -33 11.5 -59t26 -43.5t38.5 -27t49 -9.5q23 0 41 5.5t31 15t21 21.5t12 24h125q-6 -33 -24.5 -62t-49 -51t-71 -34.5t-87.5 -12.5q-60 0 -107.5 16.5t-80.5 49t-50 80
t-17 108.5v0zM289 407q-22 0 -41 -7t-34 -20.5t-25.5 -33t-16.5 -45.5h225q-3 27 -11.5 47t-22 33t-32 19.5t-42.5 6.5v0zM244 568l100 164h136l-148 -164h-88z" />
    <glyph glyph-name="ecircumflex" unicode="&#xea;" horiz-adv-x="564" 
d="M36 242q0 58 18.5 106t52 82t80.5 52t102 18t99 -16t75.5 -47.5t48 -77t16.5 -102.5v-36h-360q2 -33 11.5 -59t26 -43.5t38.5 -27t49 -9.5q23 0 41 5.5t31 15t21 21.5t12 24h125q-6 -33 -24.5 -62t-49 -51t-71 -34.5t-87.5 -12.5q-60 0 -107.5 16.5t-80.5 49t-50 80
t-17 108.5v0zM289 407q-22 0 -41 -7t-34 -20.5t-25.5 -33t-16.5 -45.5h225q-3 27 -11.5 47t-22 33t-32 19.5t-42.5 6.5v0zM112 568l128 164h98l128 -164h-106l-71 99l-71 -99h-106z" />
    <glyph glyph-name="edieresis" unicode="&#xeb;" horiz-adv-x="564" 
d="M36 242q0 58 18.5 106t52 82t80.5 52t102 18t99 -16t75.5 -47.5t48 -77t16.5 -102.5v-36h-360q2 -33 11.5 -59t26 -43.5t38.5 -27t49 -9.5q23 0 41 5.5t31 15t21 21.5t12 24h125q-6 -33 -24.5 -62t-49 -51t-71 -34.5t-87.5 -12.5q-60 0 -107.5 16.5t-80.5 49t-50 80
t-17 108.5v0zM289 407q-22 0 -41 -7t-34 -20.5t-25.5 -33t-16.5 -45.5h225q-3 27 -11.5 47t-22 33t-32 19.5t-42.5 6.5v0zM339 597v116h118v-116h-118zM121 597v116h117v-116h-117z" />
    <glyph glyph-name="igrave" unicode="&#xec;" horiz-adv-x="269" 
d="M70 0v488h129v-488h-129zM92 568l-148 164h135l101 -164h-88z" />
    <glyph glyph-name="iacute" unicode="&#xed;" horiz-adv-x="269" 
d="M70 0v488h129v-488h-129zM90 568l100 164h136l-148 -164h-88z" />
    <glyph glyph-name="icircumflex" unicode="&#xee;" horiz-adv-x="269" 
d="M70 0v488h129v-488h-129zM-42 568l128 164h98l128 -164h-106l-71 99l-71 -99h-106z" />
    <glyph glyph-name="idieresis" unicode="&#xef;" horiz-adv-x="269" 
d="M70 0v488h129v-488h-129zM185 597v116h118v-116h-118zM-33 597v116h117v-116h-117z" />
    <glyph glyph-name="eth" unicode="&#xf0;" horiz-adv-x="609" 
d="M213 503l-39 56l78 54q-12 6 -24.5 11t-26 10t-28 10t-30.5 10l33 90q25 -7 48 -14.5t44 -16t41 -17t38 -18.5l92 64l39 -55l-69 -48q38 -28 66.5 -62t48 -78t29.5 -101t10 -128v-2q0 -69 -18.5 -122t-52.5 -88t-82 -52.5t-107 -17.5q-60 0 -108 17t-82 49t-51.5 76
t-17.5 98q0 53 18.5 97.5t51.5 76.5t77 49t95 17q19 0 38 -3t36.5 -9.5t33 -16t27.5 -22.5h5q-8 26 -18 48.5t-23.5 42t-30 36t-37.5 31.5zM175 228q0 -31 9 -57t26 -45t41 -29.5t52 -10.5t52 10.5t41 29.5t26 45t9 57q0 32 -9 58t-26 45t-40.5 29t-52.5 10q-28 0 -52 -10.5
t-41 -29.5t-26 -45t-9 -57v0z" />
    <glyph glyph-name="ntilde" unicode="&#xf1;" horiz-adv-x="599" 
d="M70 0v488h123v-70h4q10 20 25.5 35.5t34.5 26t41.5 15.5t48.5 5q39 0 73 -11t59.5 -35t40.5 -63.5t15 -94.5v-296h-129v280q0 33 -6.5 56t-19 37t-30 20.5t-39.5 6.5q-24 0 -44.5 -9.5t-35.5 -28.5t-23.5 -45.5t-8.5 -59.5v-257h-129zM127 587q0 29 7 51.5t20 39t32.5 25
t43.5 8.5q20 0 39.5 -6t45 -17.5t38 -16t25.5 -4.5q9 0 16 4t11.5 11t7 15.5t3.5 17.5h61q-1 -29 -8 -52t-20 -39.5t-32 -25t-43 -8.5q-21 0 -40 6t-44.5 17.5t-38 16.5t-25.5 5q-9 0 -16 -4t-11.5 -11t-7 -15.5t-3.5 -17.5h-61z" />
    <glyph glyph-name="ograve" unicode="&#xf2;" horiz-adv-x="593" 
d="M38 244q0 59 19 106.5t54 81t82.5 51t103.5 17.5q58 0 105.5 -17t81.5 -50.5t52.5 -81t18.5 -107.5q0 -59 -19 -106.5t-54 -81t-82 -51t-103 -17.5q-58 0 -106 17t-82 50.5t-52.5 81t-18.5 107.5v0zM171 244q0 -36 9 -65.5t25.5 -50t40 -31.5t51.5 -11t51.5 11t39.5 31.5
t25 50t9 65.5q0 37 -8.5 66t-25 49.5t-40 31t-51.5 10.5t-51.5 -11t-40 -31.5t-25.5 -49.5t-9 -65v0zM254 568l-148 164h135l101 -164h-88z" />
    <glyph glyph-name="oacute" unicode="&#xf3;" horiz-adv-x="593" 
d="M38 244q0 59 19 106.5t54 81t82.5 51t103.5 17.5q58 0 105.5 -17t81.5 -50.5t52.5 -81t18.5 -107.5q0 -59 -19 -106.5t-54 -81t-82 -51t-103 -17.5q-58 0 -106 17t-82 50.5t-52.5 81t-18.5 107.5v0zM171 244q0 -36 9 -65.5t25.5 -50t40 -31.5t51.5 -11t51.5 11t39.5 31.5
t25 50t9 65.5q0 37 -8.5 66t-25 49.5t-40 31t-51.5 10.5t-51.5 -11t-40 -31.5t-25.5 -49.5t-9 -65v0zM252 568l100 164h136l-148 -164h-88z" />
    <glyph glyph-name="ocircumflex" unicode="&#xf4;" horiz-adv-x="593" 
d="M38 244q0 59 19 106.5t54 81t82.5 51t103.5 17.5q58 0 105.5 -17t81.5 -50.5t52.5 -81t18.5 -107.5q0 -59 -19 -106.5t-54 -81t-82 -51t-103 -17.5q-58 0 -106 17t-82 50.5t-52.5 81t-18.5 107.5v0zM171 244q0 -36 9 -65.5t25.5 -50t40 -31.5t51.5 -11t51.5 11t39.5 31.5
t25 50t9 65.5q0 37 -8.5 66t-25 49.5t-40 31t-51.5 10.5t-51.5 -11t-40 -31.5t-25.5 -49.5t-9 -65v0zM120 568l128 164h98l128 -164h-106l-71 99l-71 -99h-106z" />
    <glyph glyph-name="otilde" unicode="&#xf5;" horiz-adv-x="593" 
d="M38 244q0 59 19 106.5t54 81t82.5 51t103.5 17.5q58 0 105.5 -17t81.5 -50.5t52.5 -81t18.5 -107.5q0 -59 -19 -106.5t-54 -81t-82 -51t-103 -17.5q-58 0 -106 17t-82 50.5t-52.5 81t-18.5 107.5v0zM171 244q0 -36 9 -65.5t25.5 -50t40 -31.5t51.5 -11t51.5 11t39.5 31.5
t25 50t9 65.5q0 37 -8.5 66t-25 49.5t-40 31t-51.5 10.5t-51.5 -11t-40 -31.5t-25.5 -49.5t-9 -65v0zM122 587q0 29 7 51.5t20 39t32.5 25t43.5 8.5q20 0 39.5 -6t45 -17.5t38 -16t25.5 -4.5q9 0 16 4t11.5 11t7 15.5t3.5 17.5h61q-1 -29 -8 -52t-20 -39.5t-32 -25t-43 -8.5
q-21 0 -40 6t-44.5 17.5t-38 16.5t-25.5 5q-9 0 -16 -4t-11.5 -11t-7 -15.5t-3.5 -17.5h-61z" />
    <glyph glyph-name="odieresis" unicode="&#xf6;" horiz-adv-x="593" 
d="M38 244q0 59 19 106.5t54 81t82.5 51t103.5 17.5q58 0 105.5 -17t81.5 -50.5t52.5 -81t18.5 -107.5q0 -59 -19 -106.5t-54 -81t-82 -51t-103 -17.5q-58 0 -106 17t-82 50.5t-52.5 81t-18.5 107.5v0zM171 244q0 -36 9 -65.5t25.5 -50t40 -31.5t51.5 -11t51.5 11t39.5 31.5
t25 50t9 65.5q0 37 -8.5 66t-25 49.5t-40 31t-51.5 10.5t-51.5 -11t-40 -31.5t-25.5 -49.5t-9 -65v0zM347 597v116h118v-116h-118zM129 597v116h117v-116h-117z" />
    <glyph glyph-name="divide" unicode="&#xf7;" horiz-adv-x="568" 
d="M227 380v117h114v-117h-114zM56 205v100h456v-100h-456zM227 12v117h114v-117h-114z" />
    <glyph glyph-name="oslash" unicode="&#xf8;" horiz-adv-x="589" 
d="M49 -12l57 69q-17 17 -30 37t-22 43.5t-13.5 50.5t-4.5 56q0 58 19 105.5t54 81t82.5 51.5t103.5 18q21 0 41 -2.5t38.5 -7.5t35.5 -12t32 -16l31 38h75l-61 -73q16 -17 28 -37t20.5 -43t13 -49t4.5 -54q0 -58 -19 -105.5t-53.5 -81t-82 -51.5t-103.5 -18q-20 0 -39.5 2
t-37.5 6.5t-34.5 11t-31.5 14.5l-28 -34h-75zM169 244q0 -13 1 -25t3.5 -23.5t6 -21.5t7.5 -19l183 220q-7 6 -16 11t-18.5 8.5t-19.5 5t-21 1.5q-28 0 -51.5 -11t-40 -32t-25.5 -50t-9 -64v0zM421 244q0 12 -1 23t-3 21.5t-5 20t-7 18.5l-181 -218q7 -6 15 -10t17 -7
t19 -4.5t20 -1.5q28 0 51.5 11t40 32t25.5 50.5t9 64.5v0z" />
    <glyph glyph-name="ugrave" unicode="&#xf9;" horiz-adv-x="595" 
d="M62 192v296h129v-280q0 -33 6.5 -56t19 -37t30 -20.5t39.5 -6.5q24 0 44 9.5t35 28t23 45t8 59.5v258h128v-488h-122v70h-4q-10 -20 -25 -35.5t-34 -26t-41.5 -15.5t-47.5 -5q-39 0 -73 11t-59.5 35t-40.5 63.5t-15 94.5v0zM256 568l-148 164h135l101 -164h-88z" />
    <glyph glyph-name="uacute" unicode="&#xfa;" horiz-adv-x="595" 
d="M62 192v296h129v-280q0 -33 6.5 -56t19 -37t30 -20.5t39.5 -6.5q24 0 44 9.5t35 28t23 45t8 59.5v258h128v-488h-122v70h-4q-10 -20 -25 -35.5t-34 -26t-41.5 -15.5t-47.5 -5q-39 0 -73 11t-59.5 35t-40.5 63.5t-15 94.5v0zM254 568l100 164h136l-148 -164h-88z" />
    <glyph glyph-name="ucircumflex" unicode="&#xfb;" horiz-adv-x="595" 
d="M62 192v296h129v-280q0 -33 6.5 -56t19 -37t30 -20.5t39.5 -6.5q24 0 44 9.5t35 28t23 45t8 59.5v258h128v-488h-122v70h-4q-10 -20 -25 -35.5t-34 -26t-41.5 -15.5t-47.5 -5q-39 0 -73 11t-59.5 35t-40.5 63.5t-15 94.5v0zM122 568l128 164h98l128 -164h-106l-71 99
l-71 -99h-106z" />
    <glyph glyph-name="udieresis" unicode="&#xfc;" horiz-adv-x="595" 
d="M62 192v296h129v-280q0 -33 6.5 -56t19 -37t30 -20.5t39.5 -6.5q24 0 44 9.5t35 28t23 45t8 59.5v258h128v-488h-122v70h-4q-10 -20 -25 -35.5t-34 -26t-41.5 -15.5t-47.5 -5q-39 0 -73 11t-59.5 35t-40.5 63.5t-15 94.5v0zM349 597v116h118v-116h-118zM131 597v116h117
v-116h-117z" />
    <glyph glyph-name="yacute" unicode="&#xfd;" horiz-adv-x="518" 
d="M184 0l-180 488h140l118 -361h4l117 361h131l-195 -548q-12 -35 -29 -65t-40.5 -53t-56 -36.5t-72.5 -13.5h-59v102h30q21 0 39 5t32.5 16t25.5 28.5t19 41.5l11 35h-35zM213 568l100 164h136l-148 -164h-88z" />
    <glyph glyph-name="thorn" unicode="&#xfe;" horiz-adv-x="615" 
d="M577 248q0 -60 -17.5 -108.5t-49 -82.5t-73 -51.5t-88.5 -17.5q-27 0 -50 5t-42 15.5t-34.5 26t-25.5 35.5h-4q2 -23 3.5 -47t2 -45t0.5 -37.5v-34.5v-126h-129v952h129v-150v-35t-0.5 -37.5t-2 -45t-3.5 -46.5h4q10 20 26 35.5t36.5 26t45 15.5t52.5 5q46 0 86.5 -16.5
t70.5 -48.5t46.5 -79.5t16.5 -107.5v0zM445 248q0 36 -9 65t-25 48.5t-38.5 30t-49.5 10.5t-49 -10.5t-39 -30t-26 -47.5t-10 -63v-7q0 -36 9 -65.5t25.5 -50t39.5 -31.5t50 -11t49.5 11.5t38.5 33t25 51.5t9 66v0z" />
    <glyph glyph-name="ydieresis" unicode="&#xff;" horiz-adv-x="518" 
d="M184 0l-180 488h140l118 -361h4l117 361h131l-195 -548q-12 -35 -29 -65t-40.5 -53t-56 -36.5t-72.5 -13.5h-59v102h30q21 0 39 5t32.5 16t25.5 28.5t19 41.5l11 35h-35zM308 597v116h118v-116h-118zM90 597v116h117v-116h-117z" />
    <glyph glyph-name="Amacron" unicode="&#x100;" horiz-adv-x="686" 
d="M8 0l256 688h158l256 -688h-142l-53 154h-285l-54 -154h-136zM344 561h-4l-105 -299h211zM191 776v87h298v-87h-298z" />
    <glyph glyph-name="amacron" unicode="&#x101;" horiz-adv-x="557" 
d="M42 126q0 31 9.5 55.5t30 43t52 31t74.5 19.5l94 14q20 3 32 6.5t18.5 7.5t9 10t2.5 15q0 18 -5.5 33t-16 26t-27 17t-38.5 6t-39.5 -5.5t-29.5 -16t-18.5 -25.5t-8.5 -33h-120q3 40 19.5 72t45.5 54t67.5 33t83.5 11q54 0 94.5 -11.5t67.5 -34t40.5 -55.5t13.5 -77v-322
h-123v58h-6q-11 -17 -26.5 -30t-35 -22t-43.5 -13.5t-51 -4.5q-40 0 -71.5 10t-52.5 28t-31.5 43.5t-10.5 56.5v0zM245 78q23 0 44.5 7t38.5 22t26.5 37.5t9.5 52.5v43q-3 -5 -8 -8.5t-11 -6t-13 -4.5t-16 -4l-75 -12q-19 -3 -33 -9t-22.5 -14.5t-12.5 -19t-4 -23.5
q0 -14 5 -25.5t14.5 -19.5t23.5 -12t33 -4v0zM124 607v86h298v-86h-298z" />
    <glyph glyph-name="Abreve" unicode="&#x102;" horiz-adv-x="686" 
d="M8 0l256 688h158l256 -688h-142l-53 154h-285l-54 -154h-136zM344 561h-4l-105 -299h211zM342 768q-29 0 -55 8t-47.5 26t-35.5 47t-17 70h71q3 -19 10 -33.5t17.5 -24.5t24.5 -15t32 -5q17 0 31 5.5t25 15.5t18 24.5t10 32.5h71q-3 -41 -17 -70t-35.5 -47t-47.5 -26
t-55 -8v0z" />
    <glyph glyph-name="abreve" unicode="&#x103;" horiz-adv-x="557" 
d="M42 126q0 31 9.5 55.5t30 43t52 31t74.5 19.5l94 14q20 3 32 6.5t18.5 7.5t9 10t2.5 15q0 18 -5.5 33t-16 26t-27 17t-38.5 6t-39.5 -5.5t-29.5 -16t-18.5 -25.5t-8.5 -33h-120q3 40 19.5 72t45.5 54t67.5 33t83.5 11q54 0 94.5 -11.5t67.5 -34t40.5 -55.5t13.5 -77v-322
h-123v58h-6q-11 -17 -26.5 -30t-35 -22t-43.5 -13.5t-51 -4.5q-40 0 -71.5 10t-52.5 28t-31.5 43.5t-10.5 56.5v0zM245 78q23 0 44.5 7t38.5 22t26.5 37.5t9.5 52.5v43q-3 -5 -8 -8.5t-11 -6t-13 -4.5t-16 -4l-75 -12q-19 -3 -33 -9t-22.5 -14.5t-12.5 -19t-4 -23.5
q0 -14 5 -25.5t14.5 -19.5t23.5 -12t33 -4v0zM275 574q-29 0 -55 8t-47.5 26t-35.5 47.5t-17 70.5h71q3 -19 10 -34t17.5 -25t24.5 -15t32 -5q17 0 31 5.5t25 15.5t18 25t10 33h71q-3 -41 -17 -70.5t-35.5 -47.5t-47.5 -26t-55 -8v0z" />
    <glyph glyph-name="Aogonek" unicode="&#x104;" horiz-adv-x="686" 
d="M534 -128q0 17 5 32.5t14.5 30.5t24.5 31t37 34h-79l-53 154h-285l-54 -154h-136l256 688h158l256 -688q-16 -17 -27.5 -32t-18.5 -28t-10.5 -24t-3.5 -21t2.5 -17.5t8.5 -13t16 -8.5t24 -3h29v-73h-40q-32 0 -55.5 6.5t-39 18t-22.5 28.5t-7 39v0zM344 561h-4l-105 -299
h211z" />
    <glyph glyph-name="aogonek" unicode="&#x105;" horiz-adv-x="557" 
d="M347 -128q0 17 5 32.5t14.5 30.5t24.5 31t37 34h-58v58h-6q-11 -17 -26.5 -30t-35 -22t-43.5 -13.5t-51 -4.5q-40 0 -71.5 10t-52.5 28t-31.5 43.5t-10.5 56.5t9.5 55.5t30 43t52 31t74.5 19.5l94 14q20 3 32 6.5t18.5 7.5t9 10t2.5 15q0 18 -5.5 33t-16 26t-27 17
t-38.5 6t-39.5 -5.5t-29.5 -16t-18.5 -25.5t-8.5 -33h-120q3 40 19.5 72t45.5 54t67.5 33t83.5 11q54 0 94.5 -11.5t67.5 -34t40.5 -55.5t13.5 -77v-322h-2q-16 -17 -27.5 -32t-18.5 -28t-10.5 -24t-3.5 -21t2.5 -17.5t8.5 -13t16 -8.5t24 -3h29v-73h-40q-32 0 -55.5 6.5
t-39 18t-22.5 28.5t-7 39v0zM245 78q23 0 44.5 7t38.5 22t26.5 37.5t9.5 52.5v43q-3 -5 -8 -8.5t-11 -6t-13 -4.5t-16 -4l-75 -12q-19 -3 -33 -9t-22.5 -14.5t-12.5 -19t-4 -23.5q0 -14 5 -25.5t14.5 -19.5t23.5 -12t33 -4v0z" />
    <glyph glyph-name="Cacute" unicode="&#x106;" horiz-adv-x="732" 
d="M44 344q0 76 24 141t69.5 113.5t109 75t140.5 26.5q63 0 115 -16.5t91 -48t64 -75.5t35 -99h-134q-8 30 -23 53t-36.5 39t-49.5 24t-62 8q-47 0 -85 -17.5t-65 -49.5t-41 -76.5t-14 -97.5q0 -52 14.5 -96t41.5 -76.5t65 -50.5t84 -18q36 0 64.5 8t49 24t35 39t22.5 53
h134q-10 -55 -35 -99t-64.5 -75.5t-92 -48t-115.5 -16.5q-78 0 -141.5 26.5t-108 74.5t-68 113t-23.5 142v0zM342 768l100 164h136l-148 -164h-88z" />
    <glyph glyph-name="cacute" unicode="&#x107;" horiz-adv-x="553" 
d="M36 244q0 59 18.5 106.5t52 81t80.5 51t103 17.5q53 0 94.5 -14t71 -38.5t46.5 -58t21 -71.5h-127q-3 17 -10.5 32t-20.5 27t-32 18.5t-43 6.5q-27 0 -49 -11.5t-38.5 -32.5t-25 -50.5t-8.5 -63.5t8.5 -63.5t25 -50.5t38.5 -32.5t49 -11.5q24 0 43 6.5t32 18.5t20.5 27
t10.5 32h127q-4 -39 -20.5 -72t-46 -57.5t-71.5 -38.5t-95 -14q-58 0 -105 17t-80.5 50t-51 81t-17.5 108v0zM245 568l100 164h136l-148 -164h-88z" />
    <glyph glyph-name="Ccircumflex" unicode="&#x108;" horiz-adv-x="732" 
d="M44 344q0 76 24 141t69.5 113.5t109 75t140.5 26.5q63 0 115 -16.5t91 -48t64 -75.5t35 -99h-134q-8 30 -23 53t-36.5 39t-49.5 24t-62 8q-47 0 -85 -17.5t-65 -49.5t-41 -76.5t-14 -97.5q0 -52 14.5 -96t41.5 -76.5t65 -50.5t84 -18q36 0 64.5 8t49 24t35 39t22.5 53
h134q-10 -55 -35 -99t-64.5 -75.5t-92 -48t-115.5 -16.5q-78 0 -141.5 26.5t-108 74.5t-68 113t-23.5 142v0zM210 768l128 164h98l128 -164h-106l-71 99l-71 -99h-106z" />
    <glyph glyph-name="ccircumflex" unicode="&#x109;" horiz-adv-x="553" 
d="M36 244q0 59 18.5 106.5t52 81t80.5 51t103 17.5q53 0 94.5 -14t71 -38.5t46.5 -58t21 -71.5h-127q-3 17 -10.5 32t-20.5 27t-32 18.5t-43 6.5q-27 0 -49 -11.5t-38.5 -32.5t-25 -50.5t-8.5 -63.5t8.5 -63.5t25 -50.5t38.5 -32.5t49 -11.5q24 0 43 6.5t32 18.5t20.5 27
t10.5 32h127q-4 -39 -20.5 -72t-46 -57.5t-71.5 -38.5t-95 -14q-58 0 -105 17t-80.5 50t-51 81t-17.5 108v0zM113 568l128 164h98l128 -164h-106l-71 99l-71 -99h-106z" />
    <glyph glyph-name="Cdotaccent" unicode="&#x10a;" horiz-adv-x="732" 
d="M44 344q0 76 24 141t69.5 113.5t109 75t140.5 26.5q63 0 115 -16.5t91 -48t64 -75.5t35 -99h-134q-8 30 -23 53t-36.5 39t-49.5 24t-62 8q-47 0 -85 -17.5t-65 -49.5t-41 -76.5t-14 -97.5q0 -52 14.5 -96t41.5 -76.5t65 -50.5t84 -18q36 0 64.5 8t49 24t35 39t22.5 53
h134q-10 -55 -35 -99t-64.5 -75.5t-92 -48t-115.5 -16.5q-78 0 -141.5 26.5t-108 74.5t-68 113t-23.5 142v0zM328 768v116h118v-116h-118z" />
    <glyph glyph-name="cdotaccent" unicode="&#x10b;" horiz-adv-x="553" 
d="M36 244q0 59 18.5 106.5t52 81t80.5 51t103 17.5q53 0 94.5 -14t71 -38.5t46.5 -58t21 -71.5h-127q-3 17 -10.5 32t-20.5 27t-32 18.5t-43 6.5q-27 0 -49 -11.5t-38.5 -32.5t-25 -50.5t-8.5 -63.5t8.5 -63.5t25 -50.5t38.5 -32.5t49 -11.5q24 0 43 6.5t32 18.5t20.5 27
t10.5 32h127q-4 -39 -20.5 -72t-46 -57.5t-71.5 -38.5t-95 -14q-58 0 -105 17t-80.5 50t-51 81t-17.5 108v0zM231 597v116h118v-116h-118z" />
    <glyph glyph-name="Ccaron" unicode="&#x10c;" horiz-adv-x="732" 
d="M44 344q0 76 24 141t69.5 113.5t109 75t140.5 26.5q63 0 115 -16.5t91 -48t64 -75.5t35 -99h-134q-8 30 -23 53t-36.5 39t-49.5 24t-62 8q-47 0 -85 -17.5t-65 -49.5t-41 -76.5t-14 -97.5q0 -52 14.5 -96t41.5 -76.5t65 -50.5t84 -18q36 0 64.5 8t49 24t35 39t22.5 53
h134q-10 -55 -35 -99t-64.5 -75.5t-92 -48t-115.5 -16.5q-78 0 -141.5 26.5t-108 74.5t-68 113t-23.5 142v0zM338 768l-128 164h106l71 -99l71 99h106l-128 -164h-98z" />
    <glyph glyph-name="ccaron" unicode="&#x10d;" horiz-adv-x="553" 
d="M36 244q0 59 18.5 106.5t52 81t80.5 51t103 17.5q53 0 94.5 -14t71 -38.5t46.5 -58t21 -71.5h-127q-3 17 -10.5 32t-20.5 27t-32 18.5t-43 6.5q-27 0 -49 -11.5t-38.5 -32.5t-25 -50.5t-8.5 -63.5t8.5 -63.5t25 -50.5t38.5 -32.5t49 -11.5q24 0 43 6.5t32 18.5t20.5 27
t10.5 32h127q-4 -39 -20.5 -72t-46 -57.5t-71.5 -38.5t-95 -14q-58 0 -105 17t-80.5 50t-51 81t-17.5 108v0zM241 568l-128 164h106l71 -99l71 99h106l-128 -164h-98z" />
    <glyph glyph-name="Dcaron" unicode="&#x10e;" horiz-adv-x="735" 
d="M81 0v688h245q88 0 157 -25t115 -71.5t69.5 -109.5t23.5 -138t-23.5 -138t-69.5 -109.5t-115 -71.5t-157 -25h-245zM317 577h-102v-466h102q62 0 107.5 18t74 50.5t41.5 74t13 90.5t-13 90.5t-41.5 74t-74 50.5t-107.5 18v0zM292 768l-128 164h106l71 -99l71 99h106
l-128 -164h-98z" />
    <glyph glyph-name="dcaron" unicode="&#x10f;" horiz-adv-x="615" 
d="M38 240q0 60 17.5 108.5t49 82.5t73 51.5t88.5 17.5q27 0 50 -5t42.5 -15.5t34.5 -26t25 -35.5h4q-2 23 -3.5 46.5t-2 45t-0.5 37.5v35v150h129v-732h-123v70h-4q-10 -20 -26 -35.5t-36.5 -26t-45 -15.5t-52.5 -5q-46 0 -86 16.5t-70 48.5t-47 79.5t-17 107.5v0zM171 240
q0 -36 8.5 -65t25 -48.5t39 -30t49.5 -10.5t49.5 11t39 31.5t25.5 50t9 65.5v7q-1 35 -10.5 63t-26 47.5t-38.5 30t-48 10.5q-27 0 -49.5 -11.5t-39 -33t-25 -51.5t-8.5 -66v0zM631 516l35 109h-51v107h122v-96l-51 -120h-55z" />
    <glyph glyph-name="Dcroat" unicode="&#x110;" horiz-adv-x="735" 
d="M4 304v82h77v302h245q88 0 157 -25t115 -71.5t69.5 -109.5t23.5 -138t-23.5 -138t-69.5 -109.5t-115 -71.5t-157 -25h-245v304h-77zM317 577h-102v-191h149v-82h-149v-193h102q62 0 107.5 18t74 50.5t41.5 74t13 90.5t-13 90.5t-41.5 74t-74 50.5t-107.5 18v0z" />
    <glyph glyph-name="dcroat" unicode="&#x111;" horiz-adv-x="615" 
d="M274 588v70h142v74h129v-74h70v-70h-70v-588h-123v70h-4q-10 -20 -26 -35.5t-36.5 -26t-45 -15.5t-52.5 -5q-46 0 -86 16.5t-70 48.5t-47 79.5t-17 107.5t17.5 108.5t49 82.5t73 51.5t88.5 17.5q27 0 50 -5t42.5 -15.5t34.5 -26t25 -35.5h4q-2 23 -3.5 46.5t-2 45
t-0.5 37.5v35v6h-142zM171 240q0 -36 8.5 -65t25 -48.5t39 -30t49.5 -10.5t49.5 11t39 31.5t25.5 50t9 65.5v7q-1 35 -10.5 63t-26 47.5t-38.5 30t-48 10.5q-27 0 -49.5 -11.5t-39 -33t-25 -51.5t-8.5 -66v0z" />
    <glyph glyph-name="Emacron" unicode="&#x112;" horiz-adv-x="640" 
d="M81 0v688h499v-111h-365v-173h294v-106h-294v-187h374v-111h-508zM180 776v87h298v-87h-298z" />
    <glyph glyph-name="emacron" unicode="&#x113;" horiz-adv-x="564" 
d="M36 242q0 58 18.5 106t52 82t80.5 52t102 18t99 -16t75.5 -47.5t48 -77t16.5 -102.5v-36h-360q2 -33 11.5 -59t26 -43.5t38.5 -27t49 -9.5q23 0 41 5.5t31 15t21 21.5t12 24h125q-6 -33 -24.5 -62t-49 -51t-71 -34.5t-87.5 -12.5q-60 0 -107.5 16.5t-80.5 49t-50 80
t-17 108.5v0zM289 407q-22 0 -41 -7t-34 -20.5t-25.5 -33t-16.5 -45.5h225q-3 27 -11.5 47t-22 33t-32 19.5t-42.5 6.5v0zM138 607v86h298v-86h-298z" />
    <glyph glyph-name="Ebreve" unicode="&#x114;" horiz-adv-x="640" 
d="M81 0v688h499v-111h-365v-173h294v-106h-294v-187h374v-111h-508zM331 768q-29 0 -55 8t-47.5 26t-35.5 47t-17 70h71q3 -19 10 -33.5t17.5 -24.5t24.5 -15t32 -5q17 0 31 5.5t25 15.5t18 24.5t10 32.5h71q-3 -41 -17 -70t-35.5 -47t-47.5 -26t-55 -8v0z" />
    <glyph glyph-name="ebreve" unicode="&#x115;" horiz-adv-x="564" 
d="M36 242q0 58 18.5 106t52 82t80.5 52t102 18t99 -16t75.5 -47.5t48 -77t16.5 -102.5v-36h-360q2 -33 11.5 -59t26 -43.5t38.5 -27t49 -9.5q23 0 41 5.5t31 15t21 21.5t12 24h125q-6 -33 -24.5 -62t-49 -51t-71 -34.5t-87.5 -12.5q-60 0 -107.5 16.5t-80.5 49t-50 80
t-17 108.5v0zM289 407q-22 0 -41 -7t-34 -20.5t-25.5 -33t-16.5 -45.5h225q-3 27 -11.5 47t-22 33t-32 19.5t-42.5 6.5v0zM289 574q-29 0 -55 8t-47.5 26t-35.5 47.5t-17 70.5h71q3 -19 10 -34t17.5 -25t24.5 -15t32 -5q17 0 31 5.5t25 15.5t18 25t10 33h71
q-3 -41 -17 -70.5t-35.5 -47.5t-47.5 -26t-55 -8v0z" />
    <glyph glyph-name="Edotaccent" unicode="&#x116;" horiz-adv-x="640" 
d="M81 0v688h499v-111h-365v-173h294v-106h-294v-187h374v-111h-508zM272 768v116h118v-116h-118z" />
    <glyph glyph-name="edotaccent" unicode="&#x117;" horiz-adv-x="564" 
d="M36 242q0 58 18.5 106t52 82t80.5 52t102 18t99 -16t75.5 -47.5t48 -77t16.5 -102.5v-36h-360q2 -33 11.5 -59t26 -43.5t38.5 -27t49 -9.5q23 0 41 5.5t31 15t21 21.5t12 24h125q-6 -33 -24.5 -62t-49 -51t-71 -34.5t-87.5 -12.5q-60 0 -107.5 16.5t-80.5 49t-50 80
t-17 108.5v0zM289 407q-22 0 -41 -7t-34 -20.5t-25.5 -33t-16.5 -45.5h225q-3 27 -11.5 47t-22 33t-32 19.5t-42.5 6.5v0zM230 597v116h118v-116h-118z" />
    <glyph glyph-name="Eogonek" unicode="&#x118;" horiz-adv-x="640" 
d="M81 0v688h499v-111h-365v-173h294v-106h-294v-187h374v-111q-16 -17 -27.5 -32t-18.5 -28t-10.5 -24t-3.5 -21t2.5 -17.5t8.5 -13t16 -8.5t24 -3h29v-73h-40q-32 0 -55.5 6.5t-39 18t-22.5 28.5t-7 39q0 17 5 32.5t14.5 30.5t24.5 31t37 34h-445z" />
    <glyph glyph-name="eogonek" unicode="&#x119;" horiz-adv-x="564" 
d="M217 -122q0 17 6 33t17 29.5t25.5 25t31.5 22.5h-6q-60 0 -107.5 16.5t-80.5 49t-50 80t-17 108.5q0 58 18.5 106t52 82t80.5 52t102 18t99 -16t75.5 -47.5t48 -77t16.5 -102.5v-36h-360q2 -33 11.5 -59t26 -43.5t38.5 -27t49 -9.5q23 0 41 5.5t31 15t21 21.5t12 24h125
q-3 -19 -11 -36.5t-20 -33.5t-27.5 -30t-33.5 -25q-31 -19 -54 -35.5t-39.5 -31.5t-25 -29.5t-8.5 -28.5q0 -10 2.5 -18t8.5 -14t15.5 -9.5t23.5 -3.5h30v-73h-40q-32 0 -56 6.5t-40 19t-23.5 30.5t-7.5 42v0zM289 407q-22 0 -41 -7t-34 -20.5t-25.5 -33t-16.5 -45.5h225
q-3 27 -11.5 47t-22 33t-32 19.5t-42.5 6.5v0z" />
    <glyph glyph-name="Ecaron" unicode="&#x11a;" horiz-adv-x="640" 
d="M81 0v688h499v-111h-365v-173h294v-106h-294v-187h374v-111h-508zM282 768l-128 164h106l71 -99l71 99h106l-128 -164h-98z" />
    <glyph glyph-name="ecaron" unicode="&#x11b;" horiz-adv-x="564" 
d="M36 242q0 58 18.5 106t52 82t80.5 52t102 18t99 -16t75.5 -47.5t48 -77t16.5 -102.5v-36h-360q2 -33 11.5 -59t26 -43.5t38.5 -27t49 -9.5q23 0 41 5.5t31 15t21 21.5t12 24h125q-6 -33 -24.5 -62t-49 -51t-71 -34.5t-87.5 -12.5q-60 0 -107.5 16.5t-80.5 49t-50 80
t-17 108.5v0zM289 407q-22 0 -41 -7t-34 -20.5t-25.5 -33t-16.5 -45.5h225q-3 27 -11.5 47t-22 33t-32 19.5t-42.5 6.5v0zM240 568l-128 164h106l71 -99l71 99h106l-128 -164h-98z" />
    <glyph glyph-name="Gcircumflex" unicode="&#x11c;" horiz-adv-x="775" 
d="M617 0l-15 83h-2q-17 -23 -38.5 -41t-47.5 -30t-58 -18t-69 -6q-77 0 -140.5 26.5t-109 75t-69.5 113.5t-24 141q0 77 25 142t71.5 113.5t112 74.5t144.5 26q63 0 116 -17t93 -47t64.5 -70.5t33.5 -87.5h-134q-7 22 -21 41.5t-35.5 34t-51 23t-65.5 8.5q-48 0 -88 -17.5
t-68.5 -49.5t-43.5 -76.5t-15 -97.5t15 -97.5t43.5 -76.5t68 -49.5t86.5 -17.5q39 0 73 10.5t60 31.5t40.5 51t14.5 68v5h-186v102h305v-371h-85zM220 768l128 164h98l128 -164h-106l-71 99l-71 -99h-106z" />
    <glyph glyph-name="gcircumflex" unicode="&#x11d;" horiz-adv-x="615" 
d="M52 -60h121q1 -17 9.5 -31.5t23 -25t35.5 -16t45 -5.5q33 0 58.5 9t42.5 29t26 51t9 75v44h-4q-10 -20 -26 -35.5t-36.5 -26t-45 -15.5t-52.5 -5q-46 0 -86 16.5t-70 48.5t-47 79.5t-17 107.5t17.5 108.5t49 82.5t73 51.5t88.5 17.5q27 0 50 -5t42.5 -15.5t34.5 -26
t25 -35.5h4v70h123v-462q0 -67 -18 -115.5t-52 -79t-81.5 -45t-107.5 -14.5q-52 0 -94.5 10.5t-73 31t-48 52.5t-18.5 74v0zM171 240q0 -36 8.5 -65t25 -48.5t39 -30t49.5 -10.5t49.5 11t39 31.5t25.5 50t9 65.5v7q-1 35 -10.5 63t-26 47.5t-38.5 30t-48 10.5
q-27 0 -49.5 -11.5t-39 -33t-25 -51.5t-8.5 -66v0zM116 568l128 164h98l128 -164h-106l-71 99l-71 -99h-106z" />
    <glyph glyph-name="Gbreve" unicode="&#x11e;" horiz-adv-x="775" 
d="M617 0l-15 83h-2q-17 -23 -38.5 -41t-47.5 -30t-58 -18t-69 -6q-77 0 -140.5 26.5t-109 75t-69.5 113.5t-24 141q0 77 25 142t71.5 113.5t112 74.5t144.5 26q63 0 116 -17t93 -47t64.5 -70.5t33.5 -87.5h-134q-7 22 -21 41.5t-35.5 34t-51 23t-65.5 8.5q-48 0 -88 -17.5
t-68.5 -49.5t-43.5 -76.5t-15 -97.5t15 -97.5t43.5 -76.5t68 -49.5t86.5 -17.5q39 0 73 10.5t60 31.5t40.5 51t14.5 68v5h-186v102h305v-371h-85zM397 768q-29 0 -55 8t-47.5 26t-35.5 47t-17 70h71q3 -19 10 -33.5t17.5 -24.5t24.5 -15t32 -5q17 0 31 5.5t25 15.5t18 24.5
t10 32.5h71q-3 -41 -17 -70t-35.5 -47t-47.5 -26t-55 -8v0z" />
    <glyph glyph-name="gbreve" unicode="&#x11f;" horiz-adv-x="615" 
d="M52 -60h121q1 -17 9.5 -31.5t23 -25t35.5 -16t45 -5.5q33 0 58.5 9t42.5 29t26 51t9 75v44h-4q-10 -20 -26 -35.5t-36.5 -26t-45 -15.5t-52.5 -5q-46 0 -86 16.5t-70 48.5t-47 79.5t-17 107.5t17.5 108.5t49 82.5t73 51.5t88.5 17.5q27 0 50 -5t42.5 -15.5t34.5 -26
t25 -35.5h4v70h123v-462q0 -67 -18 -115.5t-52 -79t-81.5 -45t-107.5 -14.5q-52 0 -94.5 10.5t-73 31t-48 52.5t-18.5 74v0zM171 240q0 -36 8.5 -65t25 -48.5t39 -30t49.5 -10.5t49.5 11t39 31.5t25.5 50t9 65.5v7q-1 35 -10.5 63t-26 47.5t-38.5 30t-48 10.5
q-27 0 -49.5 -11.5t-39 -33t-25 -51.5t-8.5 -66v0zM293 574q-29 0 -55 8t-47.5 26t-35.5 47.5t-17 70.5h71q3 -19 10 -34t17.5 -25t24.5 -15t32 -5q17 0 31 5.5t25 15.5t18 25t10 33h71q-3 -41 -17 -70.5t-35.5 -47.5t-47.5 -26t-55 -8v0z" />
    <glyph glyph-name="Gdotaccent" unicode="&#x120;" horiz-adv-x="775" 
d="M617 0l-15 83h-2q-17 -23 -38.5 -41t-47.5 -30t-58 -18t-69 -6q-77 0 -140.5 26.5t-109 75t-69.5 113.5t-24 141q0 77 25 142t71.5 113.5t112 74.5t144.5 26q63 0 116 -17t93 -47t64.5 -70.5t33.5 -87.5h-134q-7 22 -21 41.5t-35.5 34t-51 23t-65.5 8.5q-48 0 -88 -17.5
t-68.5 -49.5t-43.5 -76.5t-15 -97.5t15 -97.5t43.5 -76.5t68 -49.5t86.5 -17.5q39 0 73 10.5t60 31.5t40.5 51t14.5 68v5h-186v102h305v-371h-85zM338 768v116h118v-116h-118z" />
    <glyph glyph-name="gdotaccent" unicode="&#x121;" horiz-adv-x="615" 
d="M52 -60h121q1 -17 9.5 -31.5t23 -25t35.5 -16t45 -5.5q33 0 58.5 9t42.5 29t26 51t9 75v44h-4q-10 -20 -26 -35.5t-36.5 -26t-45 -15.5t-52.5 -5q-46 0 -86 16.5t-70 48.5t-47 79.5t-17 107.5t17.5 108.5t49 82.5t73 51.5t88.5 17.5q27 0 50 -5t42.5 -15.5t34.5 -26
t25 -35.5h4v70h123v-462q0 -67 -18 -115.5t-52 -79t-81.5 -45t-107.5 -14.5q-52 0 -94.5 10.5t-73 31t-48 52.5t-18.5 74v0zM171 240q0 -36 8.5 -65t25 -48.5t39 -30t49.5 -10.5t49.5 11t39 31.5t25.5 50t9 65.5v7q-1 35 -10.5 63t-26 47.5t-38.5 30t-48 10.5
q-27 0 -49.5 -11.5t-39 -33t-25 -51.5t-8.5 -66v0zM234 597v116h118v-116h-118z" />
    <glyph glyph-name="Gcommaaccent" unicode="&#x122;" horiz-adv-x="775" 
d="M617 0l-15 83h-2q-17 -23 -38.5 -41t-47.5 -30t-58 -18t-69 -6q-77 0 -140.5 26.5t-109 75t-69.5 113.5t-24 141q0 77 25 142t71.5 113.5t112 74.5t144.5 26q63 0 116 -17t93 -47t64.5 -70.5t33.5 -87.5h-134q-7 22 -21 41.5t-35.5 34t-51 23t-65.5 8.5q-48 0 -88 -17.5
t-68.5 -49.5t-43.5 -76.5t-15 -97.5t15 -97.5t43.5 -76.5t68 -49.5t86.5 -17.5q39 0 73 10.5t60 31.5t40.5 51t14.5 68v5h-186v102h305v-371h-85zM328 -61h118v-88l-50 -108h-53l35 95h-50v101z" />
    <glyph glyph-name="gcommaaccent" unicode="&#x123;" horiz-adv-x="615" 
d="M52 -60h121q1 -17 9.5 -31.5t23 -25t35.5 -16t45 -5.5q33 0 58.5 9t42.5 29t26 51t9 75v44h-4q-10 -20 -26 -35.5t-36.5 -26t-45 -15.5t-52.5 -5q-46 0 -86 16.5t-70 48.5t-47 79.5t-17 107.5t17.5 108.5t49 82.5t73 51.5t88.5 17.5q27 0 50 -5t42.5 -15.5t34.5 -26
t25 -35.5h4v70h123v-462q0 -67 -18 -115.5t-52 -79t-81.5 -45t-107.5 -14.5q-52 0 -94.5 10.5t-73 31t-48 52.5t-18.5 74v0zM171 240q0 -36 8.5 -65t25 -48.5t39 -30t49.5 -10.5t49.5 11t39 31.5t25.5 50t9 65.5v7q-1 35 -10.5 63t-26 47.5t-38.5 30t-48 10.5
q-27 0 -49.5 -11.5t-39 -33t-25 -51.5t-8.5 -66v0zM234 568v88l50 109h52l-34 -96h50v-101h-118z" />
    <glyph glyph-name="Hcircumflex" unicode="&#x124;" horiz-adv-x="754" 
d="M81 0v688h134v-283h324v283h134v-688h-134v291h-324v-291h-134zM200 768l128 164h98l128 -164h-106l-71 99l-71 -99h-106z" />
    <glyph glyph-name="hcircumflex" unicode="&#x125;" horiz-adv-x="599" 
d="M70 0v732h129v-150v-35t-0.5 -37.5t-2 -45t-3.5 -46.5h4q10 20 25.5 35.5t34.5 26t41.5 15.5t48.5 5q39 0 73 -11t59.5 -35t40.5 -63.5t15 -94.5v-296h-129v280q0 33 -6.5 56t-19 37t-30 20.5t-39.5 6.5q-24 0 -44.5 -9.5t-35.5 -28t-23.5 -45t-8.5 -59.5v-258h-129z
M-42 806l128 164h98l128 -164h-106l-71 99l-71 -99h-106z" />
    <glyph glyph-name="Hbar" unicode="&#x126;" horiz-adv-x="754" 
d="M2 510v81h79v97h134v-97h324v97h134v-97h79v-81h-79v-510h-134v291h-324v-291h-134v510h-79zM215 510v-105h324v105h-324z" />
    <glyph glyph-name="hbar" unicode="&#x127;" horiz-adv-x="599" 
d="M0 588v70h70v74h129v-74h142v-70h-142v-6v-35t-0.5 -37.5t-2 -45t-3.5 -46.5h4q10 20 25.5 35.5t34.5 26t41.5 15.5t48.5 5q39 0 73 -11t59.5 -35t40.5 -63.5t15 -94.5v-296h-129v280q0 33 -6.5 56t-19 37t-30 20.5t-39.5 6.5q-24 0 -44.5 -9.5t-35.5 -28.5t-23.5 -46
t-8.5 -60v-256h-129v588h-70z" />
    <glyph glyph-name="Itilde" unicode="&#x128;" horiz-adv-x="296" 
d="M81 0v688h134v-688h-134zM-27 768q0 29 7 52t20 39.5t32.5 25t43.5 8.5q20 0 39.5 -6t45 -17.5t38 -16.5t25.5 -5q9 0 16 4t11.5 11t7 15.5t3.5 17.5h61q-1 -29 -8 -51.5t-20 -39t-32 -25t-43 -8.5q-21 0 -40 6t-44.5 17.5t-38 16t-25.5 4.5q-9 0 -16 -4t-11.5 -11
t-7 -15.5t-3.5 -17.5h-61z" />
    <glyph glyph-name="itilde" unicode="&#x129;" horiz-adv-x="269" 
d="M70 0v488h129v-488h-129zM-40 587q0 29 7 51.5t20 39t32.5 25t43.5 8.5q20 0 39.5 -6t45 -17.5t38 -16t25.5 -4.5q9 0 16 4t11.5 11t7 15.5t3.5 17.5h61q-1 -29 -8 -52t-20 -39.5t-32 -25t-43 -8.5q-21 0 -40 6t-44.5 17.5t-38 16.5t-25.5 5q-9 0 -16 -4t-11.5 -11
t-7 -15.5t-3.5 -17.5h-61z" />
    <glyph glyph-name="Imacron" unicode="&#x12a;" horiz-adv-x="296" 
d="M81 0v688h134v-688h-134zM-3 776v87h298v-87h-298z" />
    <glyph glyph-name="imacron" unicode="&#x12b;" horiz-adv-x="269" 
d="M70 0v488h129v-488h-129zM-16 607v86h298v-86h-298z" />
    <glyph glyph-name="Ibreve" unicode="&#x12c;" horiz-adv-x="296" 
d="M81 0v688h134v-688h-134zM148 768q-29 0 -55 8t-47.5 26t-35.5 47t-17 70h71q3 -19 10 -33.5t17.5 -24.5t24.5 -15t32 -5q17 0 31 5.5t25 15.5t18 24.5t10 32.5h71q-3 -41 -17 -70t-35.5 -47t-47.5 -26t-55 -8v0z" />
    <glyph glyph-name="ibreve" unicode="&#x12d;" horiz-adv-x="269" 
d="M70 0v488h129v-488h-129zM135 574q-29 0 -55 8t-47.5 26t-35.5 47.5t-17 70.5h71q3 -19 10 -34t17.5 -25t24.5 -15t32 -5q17 0 31 5.5t25 15.5t18 25t10 33h71q-3 -41 -17 -70.5t-35.5 -47.5t-47.5 -26t-55 -8v0z" />
    <glyph glyph-name="Iogonek" unicode="&#x12e;" horiz-adv-x="296" 
d="M81 0v688h134v-688h-3q-16 -17 -27.5 -32t-18.5 -28t-10.5 -24t-3.5 -21t2.5 -17.5t8.5 -13t16 -8.5t24 -3h29v-73h-40q-32 0 -55.5 6.5t-39 18t-22.5 28.5t-7 39q0 17 5 32.5t14.5 30.5t24.5 31t37 34h-68z" />
    <glyph glyph-name="iogonek" unicode="&#x12f;" horiz-adv-x="269" 
d="M70 0v488h129v-488q-16 -17 -27.5 -32t-18.5 -28t-10.5 -24t-3.5 -21t2.5 -17.5t8.5 -13t16 -8.5t24 -3h29v-73h-40q-32 0 -55.5 6.5t-39 18t-22.5 28.5t-7 39q0 17 5 32.5t14.5 30.5t24.5 31t37 34h-66zM66 612v120h137v-120h-137z" />
    <glyph glyph-name="Idotaccent" unicode="&#x130;" horiz-adv-x="296" 
d="M81 0v688h134v-688h-134zM89 768v116h118v-116h-118z" />
    <glyph glyph-name="dotlessi" unicode="&#x131;" horiz-adv-x="269" 
d="M70 0v488h129v-488h-129z" />
    <glyph glyph-name="IJ" unicode="&#x132;" horiz-adv-x="854" 
d="M81 0v688h134v-688h-134zM334 207v30h132v-30q0 -29 6.5 -49.5t19 -33.5t29 -19t37.5 -6t37.5 6t28.5 19.5t18.5 35.5t6.5 53v475h134v-472q0 -60 -15.5 -104t-45 -71t-70.5 -40t-94 -13q-51 0 -91.5 12.5t-70.5 39t-46 68.5t-16 99v0z" />
    <glyph glyph-name="ij" unicode="&#x133;" horiz-adv-x="539" 
d="M66 612v120h137v-120h-137zM70 0v488h129v-488h-129zM336 612v120h136v-120h-136zM340 -46v534h128v-543q0 -40 -8.5 -70.5t-28 -51.5t-52.5 -32t-82 -11h-41v100h26q16 0 27.5 4.5t18 13.5t9.5 23t3 33v0z" />
    <glyph glyph-name="Jcircumflex" unicode="&#x134;" horiz-adv-x="556" 
d="M36 207v30h132v-27q0 -29 6.5 -50t19 -34.5t29 -20t37.5 -6.5t37.5 6.5t28.5 20.5t18.5 36t6.5 53v473h135v-472q0 -60 -15.5 -104t-45.5 -71t-71 -40t-94 -13q-51 0 -91.5 12.5t-70.5 39t-46 68.5t-16 99v0zM244 768l128 164h98l128 -164h-106l-71 99l-71 -99h-106z" />
    <glyph glyph-name="jcircumflex" unicode="&#x135;" horiz-adv-x="269" 
d="M70 -46v534h129v-543q0 -40 -8.5 -70.5t-28.5 -51.5t-53 -32t-81 -11h-41v100h26q16 0 27 4.5t17.5 13.5t9.5 23t3 33v0zM-42 568l128 164h98l128 -164h-106l-71 99l-71 -99h-106z" />
    <glyph glyph-name="Kcommaaccent" unicode="&#x136;" horiz-adv-x="696" 
d="M81 0v688h134v-326l302 326h155l-279 -296l295 -392h-154l-227 301l-92 -98v-203h-134zM299 -61h118v-88l-50 -108h-53l35 95h-50v101z" />
    <glyph glyph-name="kcommaaccent" unicode="&#x137;" horiz-adv-x="550" 
d="M70 0v732h129v-447l183 203h146l-182 -195l200 -293h-148l-137 202l-62 -66v-136h-129zM231 -61h118v-88l-50 -108h-53l35 95h-50v101z" />
    <glyph glyph-name="Lacute" unicode="&#x139;" horiz-adv-x="579" 
d="M81 0v688h134v-575h329v-113h-463zM102 768l100 164h136l-148 -164h-88z" />
    <glyph glyph-name="lacute" unicode="&#x13a;" horiz-adv-x="269" 
d="M70 0v732h129v-732h-129zM90 806l100 164h136l-148 -164h-88z" />
    <glyph glyph-name="Lcommaaccent" unicode="&#x13b;" horiz-adv-x="579" 
d="M81 0v688h134v-575h329v-113h-463zM250 -61h118v-88l-50 -108h-53l35 95h-50v101z" />
    <glyph glyph-name="lcommaaccent" unicode="&#x13c;" horiz-adv-x="269" 
d="M70 0v732h129v-732h-129zM76 -61h118v-88l-50 -108h-53l35 95h-50v101z" />
    <glyph glyph-name="Lcaron" unicode="&#x13d;" horiz-adv-x="579" 
d="M81 0v688h134v-575h329v-113h-463zM354 472l35 109h-51v107h122v-96l-51 -120h-55z" />
    <glyph glyph-name="lcaron" unicode="&#x13e;" horiz-adv-x="269" 
d="M285 516l35 109h-51v107h122v-96l-51 -120h-55zM70 0v732h129v-732h-129z" />
    <glyph glyph-name="Ldot" unicode="&#x13f;" horiz-adv-x="579" 
d="M81 0v688h134v-575h329v-113h-463zM324 304v120h122v-120h-122z" />
    <glyph glyph-name="ldot" unicode="&#x140;" horiz-adv-x="383" 
d="M70 0v732h129v-732h-129zM267 268v120h122v-120h-122z" />
    <glyph glyph-name="Lslash" unicode="&#x141;" horiz-adv-x="579" 
d="M4 168v95l77 56v369h134v-274l130 93v-95l-130 -93v-206h329v-113h-463v224z" />
    <glyph glyph-name="lslash" unicode="&#x142;" horiz-adv-x="269" 
d="M6 271l64 57v404h129v-290l65 58v-93l-65 -59v-348h-129v234l-64 -56v93z" />
    <glyph glyph-name="Nacute" unicode="&#x143;" horiz-adv-x="762" 
d="M81 0v688h121l345 -460h4l-4 460h134v-688h-119l-347 460h-4l4 -460h-134zM336 768l100 164h136l-148 -164h-88z" />
    <glyph glyph-name="nacute" unicode="&#x144;" horiz-adv-x="599" 
d="M70 0v488h123v-70h4q10 20 25.5 35.5t34.5 26t41.5 15.5t48.5 5q39 0 73 -11t59.5 -35t40.5 -63.5t15 -94.5v-296h-129v280q0 33 -6.5 56t-19 37t-30 20.5t-39.5 6.5q-24 0 -44.5 -9.5t-35.5 -28.5t-23.5 -45.5t-8.5 -59.5v-257h-129zM257 568l100 164h136l-148 -164h-88
z" />
    <glyph glyph-name="Ncommaaccent" unicode="&#x145;" horiz-adv-x="762" 
d="M81 0v688h121l345 -460h4l-4 460h134v-688h-119l-347 460h-4l4 -460h-134zM322 -61h118v-88l-50 -108h-53l35 95h-50v101z" />
    <glyph glyph-name="ncommaaccent" unicode="&#x146;" horiz-adv-x="599" 
d="M70 0v488h123v-70h4q10 20 25.5 35.5t34.5 26t41.5 15.5t48.5 5q39 0 73 -11t59.5 -35t40.5 -63.5t15 -94.5v-296h-129v280q0 33 -6.5 56t-19 37t-30 20.5t-39.5 6.5q-24 0 -44.5 -9.5t-35.5 -28.5t-23.5 -45.5t-8.5 -59.5v-257h-129zM239 -61h118v-88l-50 -108h-53
l35 95h-50v101z" />
    <glyph glyph-name="Ncaron" unicode="&#x147;" horiz-adv-x="762" 
d="M81 0v688h121l345 -460h4l-4 460h134v-688h-119l-347 460h-4l4 -460h-134zM332 768l-128 164h106l71 -99l71 99h106l-128 -164h-98z" />
    <glyph glyph-name="ncaron" unicode="&#x148;" horiz-adv-x="599" 
d="M70 0v488h123v-70h4q10 20 25.5 35.5t34.5 26t41.5 15.5t48.5 5q39 0 73 -11t59.5 -35t40.5 -63.5t15 -94.5v-296h-129v280q0 33 -6.5 56t-19 37t-30 20.5t-39.5 6.5q-24 0 -44.5 -9.5t-35.5 -28.5t-23.5 -45.5t-8.5 -59.5v-257h-129zM253 568l-128 164h106l71 -99l71 99
h106l-128 -164h-98z" />
    <glyph glyph-name="napostrophe" unicode="&#x149;" horiz-adv-x="599" 
d="M70 0v488h123v-70h4q10 20 25.5 35.5t34.5 26t41.5 15.5t48.5 5q39 0 73 -11t59.5 -35t40.5 -63.5t15 -94.5v-296h-129v280q0 33 -6.5 56t-19 37t-30 20.5t-39.5 6.5q-24 0 -44.5 -9.5t-35.5 -28.5t-23.5 -45.5t-8.5 -59.5v-257h-129zM78 568l35 96h-50v101h118v-89
l-50 -108h-53z" />
    <glyph glyph-name="Eng" unicode="&#x14a;" horiz-adv-x="762" 
d="M81 0v688h121l347 -460h4l-6 460h134v-709q0 -56 -10.5 -93.5t-33.5 -61t-59 -34t-88 -10.5h-59v106h40q21 0 36.5 5t26 16.5t15.5 30t5 45.5v27l-341 450h-4l6 -460h-134z" />
    <glyph glyph-name="eng" unicode="&#x14b;" horiz-adv-x="599" 
d="M406 -46v326q0 33 -6.5 56t-19 37t-30 20.5t-39.5 6.5q-24 0 -44.5 -9.5t-35.5 -28.5t-23.5 -45.5t-8.5 -59.5v-257h-129v488h123v-70h4q10 20 25.5 35.5t34.5 26t41.5 15.5t48.5 5q39 0 73 -11t59.5 -35t40.5 -63.5t15 -94.5v-351q0 -40 -8.5 -70.5t-28.5 -51.5t-53 -32
t-81 -11h-42v100h26q16 0 27.5 4.5t18 13.5t9.5 23t3 33v0z" />
    <glyph glyph-name="Omacron" unicode="&#x14c;" horiz-adv-x="789" 
d="M44 344q0 76 24.5 141.5t71 113.5t112 74.5t143.5 26.5q77 0 142 -26.5t111.5 -74.5t71.5 -113.5t25 -141.5t-25 -141.5t-71.5 -113.5t-111.5 -74.5t-142 -26.5q-78 0 -143.5 26.5t-112 74.5t-71 113.5t-24.5 141.5v0zM182 344q0 -52 15 -96.5t43.5 -77t68 -50
t86.5 -17.5t86 18t67.5 50.5t43.5 76.5t15 96t-15 96t-43.5 76.5t-67.5 50.5t-86 18t-86.5 -17.5t-68 -50t-43.5 -77t-15 -96.5v0zM244 776v87h298v-87h-298z" />
    <glyph glyph-name="omacron" unicode="&#x14d;" horiz-adv-x="593" 
d="M38 244q0 59 19 106.5t54 81t82.5 51t103.5 17.5q58 0 105.5 -17t81.5 -50.5t52.5 -81t18.5 -107.5q0 -59 -19 -106.5t-54 -81t-82 -51t-103 -17.5q-58 0 -106 17t-82 50.5t-52.5 81t-18.5 107.5v0zM171 244q0 -36 9 -65.5t25.5 -50t40 -31.5t51.5 -11t51.5 11t39.5 31.5
t25 50t9 65.5q0 37 -8.5 66t-25 49.5t-40 31t-51.5 10.5t-51.5 -11t-40 -31.5t-25.5 -49.5t-9 -65v0zM146 607v86h298v-86h-298z" />
    <glyph glyph-name="Obreve" unicode="&#x14e;" horiz-adv-x="789" 
d="M44 344q0 76 24.5 141.5t71 113.5t112 74.5t143.5 26.5q77 0 142 -26.5t111.5 -74.5t71.5 -113.5t25 -141.5t-25 -141.5t-71.5 -113.5t-111.5 -74.5t-142 -26.5q-78 0 -143.5 26.5t-112 74.5t-71 113.5t-24.5 141.5v0zM182 344q0 -52 15 -96.5t43.5 -77t68 -50
t86.5 -17.5t86 18t67.5 50.5t43.5 76.5t15 96t-15 96t-43.5 76.5t-67.5 50.5t-86 18t-86.5 -17.5t-68 -50t-43.5 -77t-15 -96.5v0zM395 768q-29 0 -55 8t-47.5 26t-35.5 47t-17 70h71q3 -19 10 -33.5t17.5 -24.5t24.5 -15t32 -5q17 0 31 5.5t25 15.5t18 24.5t10 32.5h71
q-3 -41 -17 -70t-35.5 -47t-47.5 -26t-55 -8v0z" />
    <glyph glyph-name="obreve" unicode="&#x14f;" horiz-adv-x="593" 
d="M38 244q0 59 19 106.5t54 81t82.5 51t103.5 17.5q58 0 105.5 -17t81.5 -50.5t52.5 -81t18.5 -107.5q0 -59 -19 -106.5t-54 -81t-82 -51t-103 -17.5q-58 0 -106 17t-82 50.5t-52.5 81t-18.5 107.5v0zM171 244q0 -36 9 -65.5t25.5 -50t40 -31.5t51.5 -11t51.5 11t39.5 31.5
t25 50t9 65.5q0 37 -8.5 66t-25 49.5t-40 31t-51.5 10.5t-51.5 -11t-40 -31.5t-25.5 -49.5t-9 -65v0zM297 574q-29 0 -55 8t-47.5 26t-35.5 47.5t-17 70.5h71q3 -19 10 -34t17.5 -25t24.5 -15t32 -5q17 0 31 5.5t25 15.5t18 25t10 33h71q-3 -41 -17 -70.5t-35.5 -47.5
t-47.5 -26t-55 -8v0z" />
    <glyph glyph-name="Ohungarumlaut" unicode="&#x150;" horiz-adv-x="789" 
d="M44 344q0 76 24.5 141.5t71 113.5t112 74.5t143.5 26.5q77 0 142 -26.5t111.5 -74.5t71.5 -113.5t25 -141.5t-25 -141.5t-71.5 -113.5t-111.5 -74.5t-142 -26.5q-78 0 -143.5 26.5t-112 74.5t-71 113.5t-24.5 141.5v0zM182 344q0 -52 15 -96.5t43.5 -77t68 -50
t86.5 -17.5t86 18t67.5 50.5t43.5 76.5t15 96t-15 96t-43.5 76.5t-67.5 50.5t-86 18t-86.5 -17.5t-68 -50t-43.5 -77t-15 -96.5v0zM449 768l100 164h136l-148 -164h-88zM251 768l100 164h135l-147 -164h-88z" />
    <glyph glyph-name="ohungarumlaut" unicode="&#x151;" horiz-adv-x="593" 
d="M38 244q0 59 19 106.5t54 81t82.5 51t103.5 17.5q58 0 105.5 -17t81.5 -50.5t52.5 -81t18.5 -107.5q0 -59 -19 -106.5t-54 -81t-82 -51t-103 -17.5q-58 0 -106 17t-82 50.5t-52.5 81t-18.5 107.5v0zM171 244q0 -36 9 -65.5t25.5 -50t40 -31.5t51.5 -11t51.5 11t39.5 31.5
t25 50t9 65.5q0 37 -8.5 66t-25 49.5t-40 31t-51.5 10.5t-51.5 -11t-40 -31.5t-25.5 -49.5t-9 -65v0zM351 568l100 164h136l-148 -164h-88zM153 568l100 164h135l-147 -164h-88z" />
    <glyph glyph-name="OE" unicode="&#x152;" horiz-adv-x="1076" 
d="M410 0q-89 0 -158 25t-115 71.5t-69.5 109.5t-23.5 138t23.5 138t69.5 109.5t115 71.5t158 25h606v-111h-370v-173h300v-106h-300v-187h380v-111h-616zM182 344q0 -49 13 -90.5t41.5 -74t74 -50.5t108.5 -18h93v466h-93q-63 0 -108.5 -18t-74 -50.5t-41.5 -74t-13 -90.5
v0z" />
    <glyph glyph-name="oe" unicode="&#x153;" horiz-adv-x="943" 
d="M36 244q0 58 18.5 105.5t53.5 81t82.5 51.5t104.5 18q32 0 59.5 -5.5t51.5 -16.5t43.5 -26.5t34.5 -35.5q15 20 34.5 35.5t43 26.5t50 16.5t55.5 5.5q55 0 99 -16t75.5 -47.5t48.5 -77t17 -102.5v-36h-361q2 -33 11.5 -59t26 -43.5t38.5 -27t49 -9.5q23 0 41.5 5.5t31 15
t20.5 21t12 24.5h125q-6 -33 -24.5 -62t-48.5 -51t-70.5 -34.5t-88.5 -12.5q-32 0 -59.5 5.5t-51 16t-43 25.5t-34.5 35q-15 -20 -34.5 -35t-43 -25.5t-51 -16t-57.5 -5.5q-58 0 -106 18t-82.5 51.5t-52.5 81t-18 105.5v0zM169 244q0 -35 9 -64.5t25.5 -50.5t39.5 -32
t52 -11t52 11t39.5 32t25.5 50.5t9 64.5q0 36 -9 65.5t-25.5 50t-39.5 31.5t-52 11t-52 -11t-39.5 -32t-25.5 -50.5t-9 -64.5v0zM667 407q-22 0 -41 -7.5t-34 -21t-25.5 -34t-16.5 -45.5h225q-3 28 -11.5 48t-22 33.5t-32 20t-42.5 6.5v0z" />
    <glyph glyph-name="Racute" unicode="&#x154;" horiz-adv-x="694" 
d="M81 0v688h295q61 0 108.5 -14.5t80 -42t49 -67.5t16.5 -90q0 -37 -9.5 -69.5t-27.5 -59t-45.5 -47t-62.5 -32.5l171 -266h-146l-158 250h-137v-250h-134zM370 580h-155v-225h155q30 0 53.5 8.5t39 24.5t23.5 37.5t8 47.5q0 25 -8 44.5t-24 33.5t-39 21.5t-53 7.5v0z
M282 768l100 164h136l-148 -164h-88z" />
    <glyph glyph-name="racute" unicode="&#x155;" horiz-adv-x="395" 
d="M70 0v488h123v-74h2q9 20 21.5 35.5t29 27t36.5 17.5t43 6q8 0 16 -1t16.5 -3t17.5 -6t18 -10l-26 -111q-8 4 -16 7t-15 5t-14.5 3t-14.5 1q-27 0 -47.5 -11.5t-34 -32t-20 -48t-6.5 -60.5v-233h-129zM186 568l100 164h136l-148 -164h-88z" />
    <glyph glyph-name="Rcommaaccent" unicode="&#x156;" horiz-adv-x="694" 
d="M81 0v688h295q61 0 108.5 -14.5t80 -42t49 -67.5t16.5 -90q0 -37 -9.5 -69.5t-27.5 -59t-45.5 -47t-62.5 -32.5l171 -266h-146l-158 250h-137v-250h-134zM370 580h-155v-225h155q30 0 53.5 8.5t39 24.5t23.5 37.5t8 47.5q0 25 -8 44.5t-24 33.5t-39 21.5t-53 7.5v0z
M286 -61h118v-88l-50 -108h-53l35 95h-50v101z" />
    <glyph glyph-name="rcommaaccent" unicode="&#x157;" horiz-adv-x="395" 
d="M70 0v488h123v-74h2q9 20 21.5 35.5t29 27t36.5 17.5t43 6q8 0 16 -1t16.5 -3t17.5 -6t18 -10l-26 -111q-8 4 -16 7t-15 5t-14.5 3t-14.5 1q-27 0 -47.5 -11.5t-34 -32t-20 -48t-6.5 -60.5v-233h-129zM74 -61h118v-88l-50 -108h-53l35 95h-50v101z" />
    <glyph glyph-name="Rcaron" unicode="&#x158;" horiz-adv-x="694" 
d="M81 0v688h295q61 0 108.5 -14.5t80 -42t49 -67.5t16.5 -90q0 -37 -9.5 -69.5t-27.5 -59t-45.5 -47t-62.5 -32.5l171 -266h-146l-158 250h-137v-250h-134zM370 580h-155v-225h155q30 0 53.5 8.5t39 24.5t23.5 37.5t8 47.5q0 25 -8 44.5t-24 33.5t-39 21.5t-53 7.5v0z
M278 768l-128 164h106l71 -99l71 99h106l-128 -164h-98z" />
    <glyph glyph-name="rcaron" unicode="&#x159;" horiz-adv-x="395" 
d="M70 0v488h123v-74h2q9 20 21.5 35.5t29 27t36.5 17.5t43 6q8 0 16 -1t16.5 -3t17.5 -6t18 -10l-26 -111q-8 4 -16 7t-15 5t-14.5 3t-14.5 1q-27 0 -47.5 -11.5t-34 -32t-20 -48t-6.5 -60.5v-233h-129zM182 568l-128 164h106l71 -99l71 99h106l-128 -164h-98z" />
    <glyph glyph-name="Sacute" unicode="&#x15a;" horiz-adv-x="668" 
d="M50 196h131q0 -24 10.5 -44.5t30 -34.5t47 -21.5t60.5 -7.5q36 0 64 7t48 20.5t30 32.5t10 44q0 22 -10.5 38t-29 26t-42 17t-55.5 13l-46 8q-52 9 -91 20t-72.5 32.5t-53.5 57.5t-20 89q0 44 19 82t54.5 66t85.5 43.5t111 15.5q60 0 109 -14t84 -40t53.5 -62.5
t18.5 -81.5h-131q0 23 -10 41.5t-28 31t-42.5 19t-53.5 6.5t-54 -6t-43.5 -18t-28.5 -29.5t-10 -40.5t11.5 -39t32 -26.5t46 -17t61.5 -12.5l46 -8q49 -9 87 -21t69.5 -33.5t50.5 -57t19 -86.5q0 -48 -19 -88t-56.5 -69t-91.5 -44.5t-122 -15.5q-67 0 -119.5 14.5t-88 41.5
t-53.5 65.5t-18 86.5v0zM286 768l100 164h136l-148 -164h-88z" />
    <glyph glyph-name="sacute" unicode="&#x15b;" horiz-adv-x="527" 
d="M34 140h121q0 -18 8.5 -31t23 -21t32.5 -11.5t38 -3.5q25 0 44.5 4t32.5 12t19.5 19t6.5 26q0 13 -4.5 22t-13.5 15t-22 10.5t-32 7.5l-89 14q-34 5 -61 14.5t-47.5 25.5t-32 40.5t-11.5 57.5q0 38 16 67.5t45 50t68.5 31t85.5 10.5q47 0 86 -9t67.5 -27.5t44 -46.5
t15.5 -65h-119q0 16 -7.5 28.5t-20.5 20t-30 11t-37 3.5t-36.5 -4t-28.5 -11t-18.5 -18t-6.5 -24q0 -12 4 -20.5t13 -15t23.5 -11.5t36.5 -8l88 -14q33 -5 59.5 -14.5t47.5 -25t33 -40t12 -58.5q0 -40 -16.5 -71t-47.5 -51.5t-73.5 -30.5t-93.5 -10q-49 0 -90 9.5t-71 28
t-46 47.5t-16 67v0zM217 568l100 164h136l-148 -164h-88z" />
    <glyph glyph-name="Scircumflex" unicode="&#x15c;" horiz-adv-x="668" 
d="M50 196h131q0 -24 10.5 -44.5t30 -34.5t47 -21.5t60.5 -7.5q36 0 64 7t48 20.5t30 32.5t10 44q0 22 -10.5 38t-29 26t-42 17t-55.5 13l-46 8q-52 9 -91 20t-72.5 32.5t-53.5 57.5t-20 89q0 44 19 82t54.5 66t85.5 43.5t111 15.5q60 0 109 -14t84 -40t53.5 -62.5
t18.5 -81.5h-131q0 23 -10 41.5t-28 31t-42.5 19t-53.5 6.5t-54 -6t-43.5 -18t-28.5 -29.5t-10 -40.5t11.5 -39t32 -26.5t46 -17t61.5 -12.5l46 -8q49 -9 87 -21t69.5 -33.5t50.5 -57t19 -86.5q0 -48 -19 -88t-56.5 -69t-91.5 -44.5t-122 -15.5q-67 0 -119.5 14.5t-88 41.5
t-53.5 65.5t-18 86.5v0zM154 768l128 164h98l128 -164h-106l-71 99l-71 -99h-106z" />
    <glyph glyph-name="scircumflex" unicode="&#x15d;" horiz-adv-x="527" 
d="M34 140h121q0 -18 8.5 -31t23 -21t32.5 -11.5t38 -3.5q25 0 44.5 4t32.5 12t19.5 19t6.5 26q0 13 -4.5 22t-13.5 15t-22 10.5t-32 7.5l-89 14q-34 5 -61 14.5t-47.5 25.5t-32 40.5t-11.5 57.5q0 38 16 67.5t45 50t68.5 31t85.5 10.5q47 0 86 -9t67.5 -27.5t44 -46.5
t15.5 -65h-119q0 16 -7.5 28.5t-20.5 20t-30 11t-37 3.5t-36.5 -4t-28.5 -11t-18.5 -18t-6.5 -24q0 -12 4 -20.5t13 -15t23.5 -11.5t36.5 -8l88 -14q33 -5 59.5 -14.5t47.5 -25t33 -40t12 -58.5q0 -40 -16.5 -71t-47.5 -51.5t-73.5 -30.5t-93.5 -10q-49 0 -90 9.5t-71 28
t-46 47.5t-16 67v0zM85 568l128 164h98l128 -164h-106l-71 99l-71 -99h-106z" />
    <glyph glyph-name="Scedilla" unicode="&#x15e;" horiz-adv-x="668" 
d="M278 -88l27 77q-62 3 -109.5 18t-80 42t-49 64t-16.5 83h131q0 -24 10.5 -44.5t30 -34.5t47 -21.5t60.5 -7.5q36 0 64 7t48 20.5t30 32.5t10 44q0 22 -10.5 38t-29 26t-42 17t-55.5 13l-46 8q-52 9 -91 20t-72.5 32.5t-53.5 57.5t-20 89q0 44 19 82t54.5 66t85.5 43.5
t111 15.5q60 0 109 -14t84 -40t53.5 -62.5t18.5 -81.5h-131q0 23 -10 41.5t-28 31t-42.5 19t-53.5 6.5t-54 -6t-43.5 -18t-28.5 -29.5t-10 -40.5t11.5 -39t32 -26.5t46 -17t61.5 -12.5l46 -8q49 -9 87 -21t69.5 -33.5t50.5 -57t19 -86.5q0 -46 -18 -85t-52.5 -67.5
t-84.5 -45t-113 -18.5v-27q22 -1 39.5 -7.5t29 -18.5t17.5 -27t6 -33q0 -21 -7 -38.5t-21.5 -30.5t-37 -20t-51.5 -7h-67v62h53q11 0 20 2t15 6t9 11t3 17q0 9 -3 15.5t-9.5 10.5t-15 6t-19.5 2h-33z" />
    <glyph glyph-name="scedilla" unicode="&#x15f;" horiz-adv-x="527" 
d="M206 -88l27 77q-45 2 -81 12.5t-62.5 29t-41 46t-14.5 63.5h121q0 -18 8.5 -31t23 -21t32.5 -11.5t38 -3.5q25 0 44.5 4t32.5 12t19.5 19t6.5 26q0 13 -4.5 22t-13.5 15t-22 10.5t-32 7.5l-89 14q-34 5 -61 14.5t-47.5 25.5t-32 40.5t-11.5 57.5q0 38 16 67.5t45 50
t68.5 31t85.5 10.5q47 0 86 -9t67.5 -27.5t44 -46.5t15.5 -65h-119q0 16 -7.5 28.5t-20.5 20t-30 11t-37 3.5t-36.5 -4t-28.5 -11t-18.5 -18t-6.5 -24q0 -12 4 -20.5t13 -15t23.5 -11.5t36.5 -8l88 -14q33 -5 59.5 -14.5t47.5 -25t33 -40t12 -58.5q0 -38 -15 -68t-43 -50
t-66.5 -31t-85.5 -13v-27q22 -1 39.5 -7.5t29 -18.5t17.5 -27t6 -33q0 -21 -7 -38.5t-21.5 -30.5t-37 -20t-51.5 -7h-67v62h53q11 0 20 2t15 6t9 11t3 17q0 9 -3 15.5t-9.5 10.5t-15 6t-19.5 2h-33z" />
    <glyph glyph-name="Scaron" unicode="&#x160;" horiz-adv-x="668" 
d="M50 196h131q0 -24 10.5 -44.5t30 -34.5t47 -21.5t60.5 -7.5q36 0 64 7t48 20.5t30 32.5t10 44q0 22 -10.5 38t-29 26t-42 17t-55.5 13l-46 8q-52 9 -91 20t-72.5 32.5t-53.5 57.5t-20 89q0 44 19 82t54.5 66t85.5 43.5t111 15.5q60 0 109 -14t84 -40t53.5 -62.5
t18.5 -81.5h-131q0 23 -10 41.5t-28 31t-42.5 19t-53.5 6.5t-54 -6t-43.5 -18t-28.5 -29.5t-10 -40.5t11.5 -39t32 -26.5t46 -17t61.5 -12.5l46 -8q49 -9 87 -21t69.5 -33.5t50.5 -57t19 -86.5q0 -48 -19 -88t-56.5 -69t-91.5 -44.5t-122 -15.5q-67 0 -119.5 14.5t-88 41.5
t-53.5 65.5t-18 86.5v0zM282 768l-128 164h106l71 -99l71 99h106l-128 -164h-98z" />
    <glyph glyph-name="scaron" unicode="&#x161;" horiz-adv-x="527" 
d="M34 140h121q0 -18 8.5 -31t23 -21t32.5 -11.5t38 -3.5q25 0 44.5 4t32.5 12t19.5 19t6.5 26q0 13 -4.5 22t-13.5 15t-22 10.5t-32 7.5l-89 14q-34 5 -61 14.5t-47.5 25.5t-32 40.5t-11.5 57.5q0 38 16 67.5t45 50t68.5 31t85.5 10.5q47 0 86 -9t67.5 -27.5t44 -46.5
t15.5 -65h-119q0 16 -7.5 28.5t-20.5 20t-30 11t-37 3.5t-36.5 -4t-28.5 -11t-18.5 -18t-6.5 -24q0 -12 4 -20.5t13 -15t23.5 -11.5t36.5 -8l88 -14q33 -5 59.5 -14.5t47.5 -25t33 -40t12 -58.5q0 -40 -16.5 -71t-47.5 -51.5t-73.5 -30.5t-93.5 -10q-49 0 -90 9.5t-71 28
t-46 47.5t-16 67v0zM213 568l-128 164h106l71 -99l71 99h106l-128 -164h-98z" />
    <glyph glyph-name="Tcommaaccent" unicode="&#x162;" horiz-adv-x="616" 
d="M258 -88l31 88h-48v576h-233v112h600v-112h-233v-576h-45v-38q22 -1 39.5 -7.5t29 -18.5t17.5 -27t6 -33q0 -21 -7 -38.5t-21.5 -30.5t-37 -20t-51.5 -7h-67v62h53q11 0 20 2t15 6t9 11t3 17q0 9 -3 15.5t-9.5 10.5t-15 6t-19.5 2h-33z" />
    <glyph glyph-name="tcommaaccent" unicode="&#x163;" horiz-adv-x="361" 
d="M157 -88l30 95q-27 6 -46 19t-30.5 32.5t-17 46.5t-5.5 63v224h-92v96h92v148h128v-148h121v-96h-121v-216q0 -20 3.5 -33.5t11.5 -22t21 -12.5t32 -4h53v-104h-78h-8.5h-7t-7 0.5t-6.5 0.5v-39q22 -1 39.5 -7.5t29 -18.5t17.5 -27t6 -33q0 -21 -7 -38.5t-22 -30.5
t-37 -20t-52 -7h-67v62h54q11 0 19.5 2t14.5 6t9 11t3 17q0 9 -3 15.5t-9 10.5t-14.5 6t-19.5 2h-34z" />
    <glyph glyph-name="Tcaron" unicode="&#x164;" horiz-adv-x="616" 
d="M8 576v112h600v-112h-233v-576h-134v576h-233zM258 768l-128 164h106l71 -99l71 99h106l-128 -164h-98z" />
    <glyph glyph-name="tcaron" unicode="&#x165;" horiz-adv-x="361" 
d="M88 168v224h-92v96h92v148h128v-148h121v-96h-121v-216q0 -20 3.5 -33.5t11.5 -22t21 -12.5t32 -4h53v-104h-78q-48 0 -80.5 9t-52.5 29t-29 51.5t-9 78.5v0zM273 544l35 109h-51v107h122v-96l-51 -120h-55z" />
    <glyph glyph-name="Tbar" unicode="&#x166;" horiz-adv-x="616" 
d="M8 576v112h599v-112h-232v-231h175v-79h-175v-266h-134v266h-175v79h175v231h-233z" />
    <glyph glyph-name="tbar" unicode="&#x167;" horiz-adv-x="361" 
d="M-4 217v69h92v106h-92v96h92v148h128v-148h121v-96h-121v-106h121v-69h-121v-45q0 -18 3.5 -31t11.5 -21t21 -12t32 -4h53v-104h-79q-46 0 -78 8.5t-52 27.5t-30 48.5t-10 72.5v60h-92z" />
    <glyph glyph-name="Utilde" unicode="&#x168;" horiz-adv-x="729" 
d="M68 276v412h135v-410q0 -42 10 -74.5t30 -55t50.5 -34t71.5 -11.5q40 0 70.5 11.5t50.5 34t30 55t10 74.5v410h135v-412q0 -78 -21 -133.5t-60.5 -89.5t-93 -49.5t-121.5 -15.5t-122 15.5t-93 49.5t-60.5 89.5t-21.5 133.5v0zM190 768q0 29 7 52t20 39.5t32.5 25
t43.5 8.5q20 0 39.5 -6t45 -17.5t38 -16.5t25.5 -5q9 0 16 4t11.5 11t7 15.5t3.5 17.5h61q-1 -29 -8 -51.5t-20 -39t-32 -25t-43 -8.5q-21 0 -40 6t-44.5 17.5t-38 16t-25.5 4.5q-9 0 -16 -4t-11.5 -11t-7 -15.5t-3.5 -17.5h-61z" />
    <glyph glyph-name="utilde" unicode="&#x169;" horiz-adv-x="595" 
d="M62 192v296h129v-280q0 -33 6.5 -56t19 -37t30 -20.5t39.5 -6.5q24 0 44 9.5t35 28t23 45t8 59.5v258h128v-488h-122v70h-4q-10 -20 -25 -35.5t-34 -26t-41.5 -15.5t-47.5 -5q-39 0 -73 11t-59.5 35t-40.5 63.5t-15 94.5v0zM124 587q0 29 7 51.5t20 39t32.5 25t43.5 8.5
q20 0 39.5 -6t45 -17.5t38 -16t25.5 -4.5q9 0 16 4t11.5 11t7 15.5t3.5 17.5h61q-1 -29 -8 -52t-20 -39.5t-32 -25t-43 -8.5q-21 0 -40 6t-44.5 17.5t-38 16.5t-25.5 5q-9 0 -16 -4t-11.5 -11t-7 -15.5t-3.5 -17.5h-61z" />
    <glyph glyph-name="Umacron" unicode="&#x16a;" horiz-adv-x="729" 
d="M68 276v412h135v-410q0 -42 10 -74.5t30 -55t50.5 -34t71.5 -11.5q40 0 70.5 11.5t50.5 34t30 55t10 74.5v410h135v-412q0 -78 -21 -133.5t-60.5 -89.5t-93 -49.5t-121.5 -15.5t-122 15.5t-93 49.5t-60.5 89.5t-21.5 133.5v0zM214 776v87h298v-87h-298z" />
    <glyph glyph-name="umacron" unicode="&#x16b;" horiz-adv-x="595" 
d="M62 192v296h129v-280q0 -33 6.5 -56t19 -37t30 -20.5t39.5 -6.5q24 0 44 9.5t35 28t23 45t8 59.5v258h128v-488h-122v70h-4q-10 -20 -25 -35.5t-34 -26t-41.5 -15.5t-47.5 -5q-39 0 -73 11t-59.5 35t-40.5 63.5t-15 94.5v0zM148 607v86h298v-86h-298z" />
    <glyph glyph-name="Ubreve" unicode="&#x16c;" horiz-adv-x="729" 
d="M68 276v412h135v-410q0 -42 10 -74.5t30 -55t50.5 -34t71.5 -11.5q40 0 70.5 11.5t50.5 34t30 55t10 74.5v410h135v-412q0 -78 -21 -133.5t-60.5 -89.5t-93 -49.5t-121.5 -15.5t-122 15.5t-93 49.5t-60.5 89.5t-21.5 133.5v0zM365 768q-29 0 -55 8t-47.5 26t-35.5 47
t-17 70h71q3 -19 10 -33.5t17.5 -24.5t24.5 -15t32 -5q17 0 31 5.5t25 15.5t18 24.5t10 32.5h71q-3 -41 -17 -70t-35.5 -47t-47.5 -26t-55 -8v0z" />
    <glyph glyph-name="ubreve" unicode="&#x16d;" horiz-adv-x="595" 
d="M62 192v296h129v-280q0 -33 6.5 -56t19 -37t30 -20.5t39.5 -6.5q24 0 44 9.5t35 28t23 45t8 59.5v258h128v-488h-122v70h-4q-10 -20 -25 -35.5t-34 -26t-41.5 -15.5t-47.5 -5q-39 0 -73 11t-59.5 35t-40.5 63.5t-15 94.5v0zM299 574q-29 0 -55 8t-47.5 26t-35.5 47.5
t-17 70.5h71q3 -19 10 -34t17.5 -25t24.5 -15t32 -5q17 0 31 5.5t25 15.5t18 25t10 33h71q-3 -41 -17 -70.5t-35.5 -47.5t-47.5 -26t-55 -8v0z" />
    <glyph glyph-name="Uring" unicode="&#x16e;" horiz-adv-x="729" 
d="M68 276v412h135v-410q0 -42 10 -74.5t30 -55t50.5 -34t71.5 -11.5q40 0 70.5 11.5t50.5 34t30 55t10 74.5v410h135v-412q0 -78 -21 -133.5t-60.5 -89.5t-93 -49.5t-121.5 -15.5t-122 15.5t-93 49.5t-60.5 89.5t-21.5 133.5v0zM365 755q-22 0 -41.5 7.5t-34.5 21t-23 32
t-8 40.5t8 41t23 32.5t34.5 21t41.5 7.5t41.5 -7.5t34 -21t23 -32.5t8.5 -41t-8 -40.5t-23 -32t-34.5 -21t-41.5 -7.5v0zM365 808q10 0 18.5 3.5t15 10t10.5 15.5t4 19t-4 19t-10.5 16t-15 10.5t-18.5 3.5t-18.5 -3.5t-15 -10.5t-10.5 -16t-4 -19t4 -19t10.5 -15.5t15 -10
t18.5 -3.5v0z" />
    <glyph glyph-name="uring" unicode="&#x16f;" horiz-adv-x="595" 
d="M62 192v296h129v-280q0 -33 6.5 -56t19 -37t30 -20.5t39.5 -6.5q24 0 44 9.5t35 28t23 45t8 59.5v258h128v-488h-122v70h-4q-10 -20 -25 -35.5t-34 -26t-41.5 -15.5t-47.5 -5q-39 0 -73 11t-59.5 35t-40.5 63.5t-15 94.5v0zM299 555q-22 0 -41.5 7.5t-34.5 21t-23 32
t-8 40.5t8 41t23 32.5t34.5 21t41.5 7.5t41.5 -7.5t34 -21t23 -32.5t8.5 -41t-8 -40.5t-23 -32t-34.5 -21t-41.5 -7.5v0zM299 608q10 0 18.5 3.5t15 10t10.5 15.5t4 19t-4 19t-10.5 16t-15 10.5t-18.5 3.5t-18.5 -3.5t-15 -10.5t-10.5 -16t-4 -19t4 -19t10.5 -15.5t15 -10
t18.5 -3.5v0z" />
    <glyph glyph-name="Uhungarumlaut" unicode="&#x170;" horiz-adv-x="729" 
d="M68 276v412h135v-410q0 -42 10 -74.5t30 -55t50.5 -34t71.5 -11.5q40 0 70.5 11.5t50.5 34t30 55t10 74.5v410h135v-412q0 -78 -21 -133.5t-60.5 -89.5t-93 -49.5t-121.5 -15.5t-122 15.5t-93 49.5t-60.5 89.5t-21.5 133.5v0zM419 768l100 164h136l-148 -164h-88z
M221 768l100 164h135l-147 -164h-88z" />
    <glyph glyph-name="uhungarumlaut" unicode="&#x171;" horiz-adv-x="595" 
d="M62 192v296h129v-280q0 -33 6.5 -56t19 -37t30 -20.5t39.5 -6.5q24 0 44 9.5t35 28t23 45t8 59.5v258h128v-488h-122v70h-4q-10 -20 -25 -35.5t-34 -26t-41.5 -15.5t-47.5 -5q-39 0 -73 11t-59.5 35t-40.5 63.5t-15 94.5v0zM353 568l100 164h136l-148 -164h-88zM155 568
l100 164h135l-147 -164h-88z" />
    <glyph glyph-name="Uogonek" unicode="&#x172;" horiz-adv-x="729" 
d="M320 -122q0 17 6 33t16.5 29.5t24.5 25.5t31 23h-7.5t-9 -0.5t-9 -0.5h-7.5q-68 0 -122 15.5t-93 49.5t-60.5 89.5t-21.5 133.5v412h135v-410q0 -42 10 -74.5t30 -55t50.5 -34t71.5 -11.5q40 0 70.5 11.5t50.5 34t30 55t10 74.5v410h135v-412q0 -50 -9 -91t-26 -72
t-41 -54t-55 -39q-30 -16 -53 -31.5t-38.5 -31t-23.5 -30.5t-8 -29q0 -10 2.5 -18t8.5 -14t15.5 -9.5t23.5 -3.5h30v-73h-40q-32 0 -56 6.5t-40 19t-23.5 30.5t-7.5 42v0z" />
    <glyph glyph-name="uogonek" unicode="&#x173;" horiz-adv-x="595" 
d="M380 -128q0 17 5 32.5t14.5 30.5t24.5 31t37 34h-59v70h-4q-10 -20 -25 -35.5t-34 -26t-41.5 -15.5t-47.5 -5q-39 0 -73 11t-59.5 35t-40.5 63.5t-15 94.5v296h129v-280q0 -33 6.5 -56t19 -37t30 -20.5t39.5 -6.5q24 0 44 9.5t35 28t23 45t8 59.5v258h128v-488
q-16 -17 -27.5 -32t-18.5 -28t-10.5 -24t-3.5 -21t2.5 -17.5t8.5 -13t16 -8.5t24 -3h29v-73h-40q-32 0 -55.5 6.5t-39 18t-22.5 28.5t-7 39v0z" />
    <glyph glyph-name="Wcircumflex" unicode="&#x174;" horiz-adv-x="978" 
d="M187 0l-177 688h144l123 -544h4l141 544h139l144 -544h4l119 544h140l-174 -688h-166l-137 518h-4l-135 -518h-165zM313 768l128 164h98l128 -164h-106l-71 99l-71 -99h-106z" />
    <glyph glyph-name="wcircumflex" unicode="&#x175;" horiz-adv-x="776" 
d="M148 0l-142 488h129l89 -361h4l99 361h126l99 -361h4l89 361h125l-142 -488h-145l-93 356h-4l-94 -356h-144zM211 568l128 164h98l128 -164h-106l-71 99l-71 -99h-106z" />
    <glyph glyph-name="Ycircumflex" unicode="&#x176;" horiz-adv-x="665" 
d="M263 0v264l-253 424h152l169 -296h4l178 296h142l-257 -420v-268h-135zM156 768l128 164h98l128 -164h-106l-71 99l-71 -99h-106z" />
    <glyph glyph-name="ycircumflex" unicode="&#x177;" horiz-adv-x="518" 
d="M184 0l-180 488h140l118 -361h4l117 361h131l-195 -548q-12 -35 -29 -65t-40.5 -53t-56 -36.5t-72.5 -13.5h-59v102h30q21 0 39 5t32.5 16t25.5 28.5t19 41.5l11 35h-35zM81 568l128 164h98l128 -164h-106l-71 99l-71 -99h-106z" />
    <glyph glyph-name="Ydieresis" unicode="&#x178;" horiz-adv-x="665" 
d="M263 0v264l-253 424h152l169 -296h4l178 296h142l-257 -420v-268h-135zM383 768v116h118v-116h-118zM165 768v116h117v-116h-117z" />
    <glyph glyph-name="Zacute" unicode="&#x179;" horiz-adv-x="612" 
d="M49 578v110h528v-78l-367 -500h365v-110h-541v78l368 500h-353zM261 768l100 164h136l-148 -164h-88z" />
    <glyph glyph-name="zacute" unicode="&#x17a;" horiz-adv-x="479" 
d="M32 390v98h411v-75l-246 -315h250v-98h-413v70l250 320h-252zM193 568l100 164h136l-148 -164h-88z" />
    <glyph glyph-name="Zdotaccent" unicode="&#x17b;" horiz-adv-x="612" 
d="M49 578v110h528v-78l-367 -500h365v-110h-541v78l368 500h-353zM247 768v116h118v-116h-118z" />
    <glyph glyph-name="zdotaccent" unicode="&#x17c;" horiz-adv-x="479" 
d="M32 390v98h411v-75l-246 -315h250v-98h-413v70l250 320h-252zM179 597v116h118v-116h-118z" />
    <glyph glyph-name="Zcaron" unicode="&#x17d;" horiz-adv-x="612" 
d="M49 578v110h528v-78l-367 -500h365v-110h-541v78l368 500h-353zM257 768l-128 164h106l71 -99l71 99h106l-128 -164h-98z" />
    <glyph glyph-name="zcaron" unicode="&#x17e;" horiz-adv-x="479" 
d="M32 390v98h411v-75l-246 -315h250v-98h-413v70l250 320h-252zM189 568l-128 164h106l71 -99l71 99h106l-128 -164h-98z" />
    <glyph glyph-name="longs" unicode="&#x17f;" horiz-adv-x="341" 
d="M94 0v392h-92v96h92v65q0 47 10.5 80.5t32.5 55.5t57 32.5t83 10.5h74v-100h-48q-23 0 -38.5 -4.5t-24.5 -14.5t-13 -25.5t-4 -38.5v-549h-129z" />
    <glyph glyph-name="florin" unicode="&#x192;" horiz-adv-x="568" 
d="M72 277v81h126l17 161q5 48 20 83t39 56.5t55.5 31.5t71.5 10q38 0 67 -9.5t49 -30t29 -51.5t6 -74l-3 -38h-109l2 31q2 20 0 34.5t-7 24t-14 14.5t-22 5t-22.5 -5.5t-16 -16t-11 -27t-6.5 -38.5l-17 -161h142v-81h-150l-30 -288q-5 -48 -20 -83t-39 -56.5t-56 -31.5
t-72 -10q-38 0 -67 9.5t-48.5 30t-28.5 52t-6 73.5l2 38h110l-3 -31q-2 -20 0 -34.5t7 -24t14.5 -14.5t22.5 -5t22 5.5t15.5 16t11 27t6.5 38.5l30 288h-117z" />
    <glyph glyph-name="AEacute" unicode="&#x1fc;" horiz-adv-x="1117" 
d="M5 0l497 688h555v-111h-366v-173h296v-106h-296v-187h376v-111h-510v154h-289l-109 -154h-154zM553 554l-209 -294h213v294h-4zM580 768l100 164h136l-148 -164h-88z" />
    <glyph glyph-name="aeacute" unicode="&#x1fd;" horiz-adv-x="868" 
d="M61 330q3 44 21 76.5t47.5 53.5t67 30.5t80.5 9.5q29 0 53.5 -3.5t45 -11t37 -18.5t28.5 -26q15 14 32 25t37 18.5t42.5 11.5t47.5 4q52 0 94.5 -16t73.5 -47.5t47.5 -77t16.5 -102.5v-36h-345q2 -34 11 -60t24 -43.5t35.5 -26.5t46.5 -9q23 0 39.5 5.5t28 15t18.5 21
t11 24.5h125q-6 -33 -24 -62t-47.5 -51t-68.5 -34.5t-84 -12.5q-33 0 -61.5 6t-52.5 18t-43 29.5t-34 40.5q-17 -28 -39.5 -46.5t-48 -29t-51.5 -14.5t-53 -4q-43 0 -76.5 10t-56 28t-33.5 43.5t-11 56.5t10 55.5t30.5 43t51.5 31.5t74 19l94 14q20 3 32 6.5t18.5 8t9 10.5
t2.5 16q0 17 -5 31t-16 25.5t-27.5 17.5t-38.5 6q-20 0 -37 -5t-30 -15t-20.5 -25t-8.5 -35h-120zM245 78q24 0 45 7t38 21.5t26.5 37.5t9.5 53v43q-3 -5 -8 -8.5t-11 -6t-13 -4.5t-16 -4l-75 -12q-19 -3 -32.5 -9t-22 -14.5t-13 -19t-4.5 -23.5q0 -15 5 -26.5t15 -19
t24 -11.5t32 -4v0zM600 407q-22 0 -40 -7t-32 -21t-23.5 -34t-14.5 -46h210q-2 26 -9 46t-19.5 34t-30.5 21t-41 7v0zM382 568l100 164h136l-148 -164h-88z" />
    <glyph glyph-name="Oslashacute" unicode="&#x1fe;" horiz-adv-x="789" 
d="M58 -12l83 100q-23 24 -41 52.5t-30.5 61t-19 68.5t-6.5 74q0 76 25 141.5t71.5 113.5t111.5 74.5t143 26.5q29 0 56 -4t52 -11t48 -18t44 -25l48 58h89l-84 -102q23 -24 41 -52.5t30.5 -60.5t19 -67.5t6.5 -73.5q0 -76 -25.5 -141.5t-72 -113.5t-111.5 -74.5t-141 -26.5
q-29 0 -56.5 3.5t-53 11t-48.5 18t-44 24.5l-46 -57h-89zM182 344q0 -22 3 -43t8.5 -40.5t13.5 -37t18 -32.5l292 355q-13 9 -27 16.5t-29.5 12.5t-32 7.5t-33.5 2.5q-47 0 -86.5 -17.5t-68 -50t-43.5 -77t-15 -96.5v0zM607 344q0 22 -3 42.5t-8.5 40t-13.5 37t-18 32.5
l-292 -355q13 -9 27 -16t29.5 -12t32 -7.5t34.5 -2.5q47 0 86 18t67.5 50.5t43.5 76.5t15 96v0zM350 768l100 164h136l-148 -164h-88z" />
    <glyph glyph-name="oslashacute" unicode="&#x1ff;" horiz-adv-x="589" 
d="M49 -12l57 69q-17 17 -30 37t-22 43.5t-13.5 50.5t-4.5 56q0 58 19 105.5t54 81t82.5 51.5t103.5 18q21 0 41 -2.5t38.5 -7.5t35.5 -12t32 -16l31 38h75l-61 -73q16 -17 28 -37t20.5 -43t13 -49t4.5 -54q0 -58 -19 -105.5t-53.5 -81t-82 -51.5t-103.5 -18q-20 0 -39.5 2
t-37.5 6.5t-34.5 11t-31.5 14.5l-28 -34h-75zM169 244q0 -13 1 -25t3.5 -23.5t6 -21.5t7.5 -19l183 220q-7 6 -16 11t-18.5 8.5t-19.5 5t-21 1.5q-28 0 -51.5 -11t-40 -32t-25.5 -50t-9 -64v0zM421 244q0 12 -1 23t-3 21.5t-5 20t-7 18.5l-181 -218q7 -6 15 -10t17 -7
t19 -4.5t20 -1.5q28 0 51.5 11t40 32t25.5 50.5t9 64.5v0zM250 568l100 164h136l-148 -164h-88z" />
    <glyph glyph-name="Scommaaccent" unicode="&#x218;" horiz-adv-x="668" 
d="M50 196h131q0 -24 10.5 -44.5t30 -34.5t47 -21.5t60.5 -7.5q36 0 64 7t48 20.5t30 32.5t10 44q0 22 -10.5 38t-29 26t-42 17t-55.5 13l-46 8q-52 9 -91 20t-72.5 32.5t-53.5 57.5t-20 89q0 44 19 82t54.5 66t85.5 43.5t111 15.5q60 0 109 -14t84 -40t53.5 -62.5
t18.5 -81.5h-131q0 23 -10 41.5t-28 31t-42.5 19t-53.5 6.5t-54 -6t-43.5 -18t-28.5 -29.5t-10 -40.5t11.5 -39t32 -26.5t46 -17t61.5 -12.5l46 -8q49 -9 87 -21t69.5 -33.5t50.5 -57t19 -86.5q0 -48 -19 -88t-56.5 -69t-91.5 -44.5t-122 -15.5q-67 0 -119.5 14.5t-88 41.5
t-53.5 65.5t-18 86.5v0zM270 -61h118v-88l-50 -108h-53l35 95h-50v101z" />
    <glyph glyph-name="scommaaccent" unicode="&#x219;" horiz-adv-x="527" 
d="M34 140h121q0 -18 8.5 -31t23 -21t32.5 -11.5t38 -3.5q25 0 44.5 4t32.5 12t19.5 19t6.5 26q0 13 -4.5 22t-13.5 15t-22 10.5t-32 7.5l-89 14q-34 5 -61 14.5t-47.5 25.5t-32 40.5t-11.5 57.5q0 38 16 67.5t45 50t68.5 31t85.5 10.5q47 0 86 -9t67.5 -27.5t44 -46.5
t15.5 -65h-119q0 16 -7.5 28.5t-20.5 20t-30 11t-37 3.5t-36.5 -4t-28.5 -11t-18.5 -18t-6.5 -24q0 -12 4 -20.5t13 -15t23.5 -11.5t36.5 -8l88 -14q33 -5 59.5 -14.5t47.5 -25t33 -40t12 -58.5q0 -40 -16.5 -71t-47.5 -51.5t-73.5 -30.5t-93.5 -10q-49 0 -90 9.5t-71 28
t-46 47.5t-16 67v0zM198 -61h118v-88l-50 -108h-53l35 95h-50v101z" />
    <glyph glyph-name="uni021A" unicode="&#x21a;" horiz-adv-x="616" 
d="M8 576v112h600v-112h-233v-576h-134v576h-233zM250 -61h118v-88l-50 -108h-53l35 95h-50v101z" />
    <glyph glyph-name="uni021B" unicode="&#x21b;" horiz-adv-x="361" 
d="M88 168v224h-92v96h92v148h128v-148h121v-96h-121v-216q0 -20 3.5 -33.5t11.5 -22t21 -12.5t32 -4h53v-104h-78q-48 0 -80.5 9t-52.5 29t-29 51.5t-9 78.5v0zM151 -61h118v-88l-50 -108h-53l35 95h-50v101z" />
    <glyph glyph-name="circumflex" unicode="&#x2c6;" horiz-adv-x="586" 
d="M116 568l128 164h98l128 -164h-106l-71 99l-71 -99h-106z" />
    <glyph glyph-name="caron" unicode="&#x2c7;" horiz-adv-x="586" 
d="M244 568l-128 164h106l71 -99l71 99h106l-128 -164h-98z" />
    <glyph glyph-name="uni02C9" unicode="&#x2c9;" horiz-adv-x="586" 
d="M142 607v86h298v-86h-298z" />
    <glyph glyph-name="breve" unicode="&#x2d8;" horiz-adv-x="586" 
d="M293 574q-29 0 -55 8t-47.5 26t-35.5 47.5t-17 70.5h71q3 -19 10 -34t17.5 -25t24.5 -15t32 -5q17 0 31 5.5t25 15.5t18 25t10 33h71q-3 -41 -17 -70.5t-35.5 -47.5t-47.5 -26t-55 -8v0z" />
    <glyph glyph-name="dotaccent" unicode="&#x2d9;" horiz-adv-x="586" 
d="M234 597v116h118v-116h-118z" />
    <glyph glyph-name="ring" unicode="&#x2da;" horiz-adv-x="586" 
d="M293 555q-22 0 -41.5 7.5t-34.5 21t-23 32t-8 40.5t8 41t23 32.5t34.5 21t41.5 7.5t41.5 -7.5t34 -21t23 -32.5t8.5 -41t-8 -40.5t-23 -32t-34.5 -21t-41.5 -7.5v0zM293 608q10 0 18.5 3.5t15 10t10.5 15.5t4 19t-4 19t-10.5 16t-15 10.5t-18.5 3.5t-18.5 -3.5t-15 -10.5
t-10.5 -16t-4 -19t4 -19t10.5 -15.5t15 -10t18.5 -3.5v0z" />
    <glyph glyph-name="ogonek" unicode="&#x2db;" horiz-adv-x="586" 
d="M213 -128q0 17 5 32.5t14.5 30.5t24.5 31t37 34h63q-16 -17 -27.5 -32t-18.5 -28t-10.5 -24t-3.5 -21t2.5 -17.5t8.5 -13t16 -8.5t24 -3h29v-73h-40q-32 0 -55.5 6.5t-39 18t-22.5 28.5t-7 39v0z" />
    <glyph glyph-name="tilde" unicode="&#x2dc;" horiz-adv-x="586" 
d="M118 587q0 29 7 51.5t20 39t32.5 25t43.5 8.5q20 0 39.5 -6t45 -17.5t38 -16t25.5 -4.5q9 0 16 4t11.5 11t7 15.5t3.5 17.5h61q-1 -29 -8 -52t-20 -39.5t-32 -25t-43 -8.5q-21 0 -40 6t-44.5 17.5t-38 16.5t-25.5 5q-9 0 -16 -4t-11.5 -11t-7 -15.5t-3.5 -17.5h-61z" />
    <glyph glyph-name="hungarumlaut" unicode="&#x2dd;" horiz-adv-x="586" 
d="M347 568l100 164h136l-148 -164h-88zM149 568l100 164h135l-147 -164h-88z" />
    <glyph glyph-name="uni0394" unicode="&#x394;" horiz-adv-x="661" 
d="M13 0l248 688h139l247 -688h-634zM329 549h-4l-152 -445h308z" />
    <glyph glyph-name="uni03A9" unicode="&#x3a9;" horiz-adv-x="696" 
d="M401 0v233q25 7 48 22t41.5 38.5t29 54.5t10.5 68q0 42 -13.5 76t-38 58t-57.5 37t-73 13t-73 -13t-57.5 -37t-38 -58t-13.5 -76q0 -37 11 -68t29.5 -54.5t41.5 -38.5t47 -22v-233h-242v96h136v79q-34 16 -62 40t-48 55.5t-31 68.5t-11 79q0 59 22 110.5t63 90t99 60
t127 21.5t127 -21.5t99 -60t63 -90t22 -110.5q0 -42 -11 -79t-31 -68.5t-48 -55.5t-62 -40v-79h136v-96h-242z" />
    <glyph glyph-name="uni03BC" unicode="&#x3bc;" horiz-adv-x="596" 
d="M406 0v70h-4q-10 -21 -25 -36.5t-33.5 -25.5t-40.5 -15t-47 -5q-10 0 -19.5 1t-18.5 3.5t-18 6t-17 7.5q3 -24 5.5 -46t4 -42.5t2 -39.5t0.5 -37v-61h-128v708h128v-280q0 -33 6.5 -56t19 -37t30 -20.5t40.5 -6.5q24 0 44 10t34.5 29t22.5 45.5t8 59.5v256h129v-488h-123
z" />
    <glyph glyph-name="pi" unicode="&#x3c0;" horiz-adv-x="610" 
d="M75 0v488h460v-488h-128v388h-204v-388h-128z" />
    <glyph glyph-name="Wgrave" unicode="&#x1e80;" horiz-adv-x="978" 
d="M187 0l-177 688h144l123 -544h4l141 544h139l144 -544h4l119 544h140l-174 -688h-166l-137 518h-4l-135 -518h-165zM447 768l-148 164h135l101 -164h-88z" />
    <glyph glyph-name="wgrave" unicode="&#x1e81;" horiz-adv-x="776" 
d="M148 0l-142 488h129l89 -361h4l99 361h126l99 -361h4l89 361h125l-142 -488h-145l-93 356h-4l-94 -356h-144zM345 568l-148 164h135l101 -164h-88z" />
    <glyph glyph-name="Wacute" unicode="&#x1e82;" horiz-adv-x="978" 
d="M187 0l-177 688h144l123 -544h4l141 544h139l144 -544h4l119 544h140l-174 -688h-166l-137 518h-4l-135 -518h-165zM445 768l100 164h136l-148 -164h-88z" />
    <glyph glyph-name="wacute" unicode="&#x1e83;" horiz-adv-x="776" 
d="M148 0l-142 488h129l89 -361h4l99 361h126l99 -361h4l89 361h125l-142 -488h-145l-93 356h-4l-94 -356h-144zM343 568l100 164h136l-148 -164h-88z" />
    <glyph glyph-name="Wdieresis" unicode="&#x1e84;" horiz-adv-x="978" 
d="M187 0l-177 688h144l123 -544h4l141 544h139l144 -544h4l119 544h140l-174 -688h-166l-137 518h-4l-135 -518h-165zM540 768v116h118v-116h-118zM322 768v116h117v-116h-117z" />
    <glyph glyph-name="wdieresis" unicode="&#x1e85;" horiz-adv-x="776" 
d="M148 0l-142 488h129l89 -361h4l99 361h126l99 -361h4l89 361h125l-142 -488h-145l-93 356h-4l-94 -356h-144zM438 597v116h118v-116h-118zM220 597v116h117v-116h-117z" />
    <glyph glyph-name="Ygrave" unicode="&#x1ef2;" horiz-adv-x="665" 
d="M263 0v264l-253 424h152l169 -296h4l178 296h142l-257 -420v-268h-135zM290 768l-148 164h135l101 -164h-88z" />
    <glyph glyph-name="ygrave" unicode="&#x1ef3;" horiz-adv-x="518" 
d="M184 0l-180 488h140l118 -361h4l117 361h131l-195 -548q-12 -35 -29 -65t-40.5 -53t-56 -36.5t-72.5 -13.5h-59v102h30q21 0 39 5t32.5 16t25.5 28.5t19 41.5l11 35h-35zM215 568l-148 164h135l101 -164h-88z" />
    <glyph glyph-name="endash" unicode="&#x2013;" horiz-adv-x="556" 
d="M53 197v110h450v-110h-450z" />
    <glyph glyph-name="emdash" unicode="&#x2014;" horiz-adv-x="840" 
d="M53 197v110h734v-110h-734z" />
    <glyph glyph-name="quoteleft" unicode="&#x2018;" horiz-adv-x="263" 
d="M66 407v120l46 161h60l-33 -153h57v-128h-130z" />
    <glyph glyph-name="quoteright" unicode="&#x2019;" horiz-adv-x="263" 
d="M91 407l32 153h-57v128h130v-120l-45 -161h-60z" />
    <glyph glyph-name="quotesinglbase" unicode="&#x201a;" horiz-adv-x="263" 
d="M123 0h-57v128h130v-120l-45 -161h-60z" />
    <glyph glyph-name="quotedblleft" unicode="&#x201c;" horiz-adv-x="468" 
d="M66 407v120l46 161h60l-33 -153h57v-128h-130zM272 407v120l46 161h60l-33 -153h57v-128h-130z" />
    <glyph glyph-name="quotedblright" unicode="&#x201d;" horiz-adv-x="468" 
d="M91 407l32 153h-57v128h130v-120l-45 -161h-60zM297 407l32 153h-57v128h130v-120l-46 -161h-59z" />
    <glyph glyph-name="quotedblbase" unicode="&#x201e;" horiz-adv-x="468" 
d="M123 0h-57v128h130v-120l-45 -161h-60zM329 0h-57v128h130v-120l-46 -161h-59z" />
    <glyph glyph-name="dagger" unicode="&#x2020;" horiz-adv-x="469" 
d="M44 428v92h136v168h109v-168h136v-92h-136v-428h-109v428h-136z" />
    <glyph glyph-name="daggerdbl" unicode="&#x2021;" horiz-adv-x="469" 
d="M44 439v92h136v157h109v-157h136v-92h-136v-194h136v-92h-136v-153h-109v153h-136v92h136v194h-136z" />
    <glyph glyph-name="bullet" unicode="&#x2022;" horiz-adv-x="488" 
d="M244 80q-36 0 -67.5 13t-55 36.5t-36.5 55t-13 67.5t13 67.5t36.5 55t55 36.5t67.5 13t67.5 -13t55 -36.5t36.5 -55t13 -67.5t-13 -67.5t-36.5 -55t-55 -36.5t-67.5 -13v0z" />
    <glyph glyph-name="ellipsis" unicode="&#x2026;" horiz-adv-x="839" 
d="M625 0v140h145v-140h-145zM347 0v140h145v-140h-145zM69 0v140h145v-140h-145z" />
    <glyph glyph-name="perthousand" unicode="&#x2030;" horiz-adv-x="1178" 
d="M183 336q-40 0 -70.5 13.5t-50.5 38t-30 57t-10 71.5t10 71.5t30 57t50.5 38t70.5 13.5t70.5 -13.5t50.5 -38t30 -57t10 -71.5t-10 -71.5t-30 -57t-50.5 -38t-70.5 -13.5v0zM994 -8q-40 0 -70.5 13.5t-50.5 38t-30 57t-10 71.5t10 71.5t30 57t50.5 38t70.5 13.5
t70.5 -13.5t50.5 -38t30 -57t10 -71.5t-10 -71.5t-30 -57t-50.5 -38t-70.5 -13.5v0zM628 -8q-40 0 -70.5 13.5t-50.5 38t-30 57t-10 71.5t10 71.5t30 57t50.5 38t70.5 13.5t70.5 -13.5t50 -38t29.5 -57t10 -71.5t-10 -71.5t-29.5 -57t-50 -38t-70.5 -13.5v0zM191 -12
l348 712h81l-348 -712h-81zM628 69q16 0 27.5 7t19 20t11.5 32t4 44t-4 44t-11.5 32t-19 20t-27.5 7t-27.5 -7t-19.5 -20t-12 -32.5t-4 -43.5t4 -43.5t12 -32.5t19.5 -20t27.5 -7v0zM994 69q16 0 27.5 7t19.5 20t12 32.5t4 43.5q0 25 -4 44t-11.5 32t-19.5 20t-28 7
t-27.5 -7t-19 -20t-11.5 -32t-4 -44q0 -24 4 -43.5t11.5 -32.5t19.5 -20t27 -7v0zM183 413q16 0 27.5 7t19.5 20t12 32.5t4 43.5q0 25 -4 44t-11.5 32t-19.5 20t-28 7t-27.5 -7t-19 -20t-11.5 -32t-4 -44q0 -24 4 -43.5t11.5 -32.5t19.5 -20t27 -7v0z" />
    <glyph glyph-name="guilsinglleft" unicode="&#x2039;" horiz-adv-x="346" 
d="M192 48l-144 204l144 204h105l-112 -204l112 -204h-105z" />
    <glyph glyph-name="guilsinglright" unicode="&#x203a;" horiz-adv-x="346" 
d="M48 48l113 204l-113 204h105l144 -204l-144 -204h-105z" />
    <glyph glyph-name="fraction" unicode="&#x2044;" horiz-adv-x="78" 
d="M-176 -12q23 47 71.5 145.5t104 213t103 211t69.5 142.5h81l-348 -712h-81z" />
    <glyph glyph-name="uni2070" unicode="&#x2070;" 
d="M183 488q-40 0 -70.5 13.5t-50.5 38t-30 57t-10 71.5t10 71.5t30 57t50.5 38t70.5 13.5t70.5 -13.5t50.5 -38t30 -57t10 -71.5t-10 -71.5t-30 -57t-50.5 -38t-70.5 -13.5v0zM183 565q16 0 27.5 7t19.5 20t12 32.5t4 43.5q0 25 -4 44t-11.5 32t-19.5 20t-28 7t-27.5 -7
t-19 -20t-11.5 -32t-4 -44q0 -24 4 -43.5t11.5 -32.5t19.5 -20t27 -7v0z" />
    <glyph glyph-name="uni2074" unicode="&#x2074;" 
d="M20 554v56l188 232h86v-215h47v-73h-47v-58h-100v58h-174zM117 627h77v98z" />
    <glyph glyph-name="uni2075" unicode="&#x2075;" 
d="M39 588h97q1 -7 4.5 -14t9.5 -12.5t15 -8.5t20 -3q10 0 19 3.5t16 10t11 16.5t4 23t-4 22.5t-11 16t-16 9.5t-19 3q-9 0 -16.5 -2t-13 -5.5t-10 -9t-7.5 -12.5l-92 9l14 206h253v-75h-171l-6 -73h3q5 5 11.5 9.5t15 7.5t20 5t25.5 2q24 0 45.5 -6t38 -19t26.5 -34.5
t10 -51.5q0 -28 -11 -50t-30.5 -37t-45.5 -22.5t-56 -7.5q-37 0 -64 7.5t-45 21t-28 31.5t-12 40v0z" />
    <glyph glyph-name="uni2076" unicode="&#x2076;" 
d="M326 746h-94q0 8 -3.5 14.5t-8.5 11.5t-12.5 8t-16.5 3q-12 0 -21.5 -4t-17.5 -14.5t-13 -29.5t-7 -48q5 6 13.5 11.5t20 9.5t23.5 6t25 2q24 0 45.5 -6t38 -19t26.5 -34.5t10 -51.5q0 -28 -11 -50t-30.5 -37t-45.5 -22.5t-56 -7.5q-36 0 -65 9t-50 29t-32.5 53.5
t-11.5 80.5q0 50 12 86.5t33.5 58.5t50.5 32.5t65 10.5q32 0 57 -7t41.5 -20.5t25 -32.5t9.5 -42v0zM188 654q-10 0 -19 -3t-16 -9t-11 -16t-4 -23t4 -23t11 -16.5t16 -10t19 -3.5q11 0 20 3.5t15.5 10t10.5 16.5t4 23t-4 22.5t-10.5 16t-15.5 9.5t-20 3v0z" />
    <glyph glyph-name="uni2077" unicode="&#x2077;" 
d="M74 496l148 261h-190v83h306v-59l-160 -285h-104z" />
    <glyph glyph-name="uni2078" unicode="&#x2078;" 
d="M28 586q0 17 5 31t14 25t21.5 18t27.5 10v4q-12 3 -23 9.5t-18.5 16.5t-12 22.5t-4.5 27.5q0 22 10 40t29 31t46 20t60 7t60 -7t46.5 -20t29.5 -31t10 -40q0 -15 -4.5 -27.5t-12 -22.5t-18.5 -16.5t-23 -9.5v-4q15 -3 27.5 -10t21.5 -18t14 -25t5 -31q0 -23 -10.5 -41.5
t-30.5 -31t-49 -19t-66 -6.5t-66 6.5t-49 19t-30 31t-10 41.5v0zM127 597q0 -11 4 -19.5t11.5 -14.5t18 -9t22.5 -3q13 0 23.5 3t18 9t11.5 14.5t4 19.5t-4 19.5t-11.5 14t-18 8.5t-23.5 3q-12 0 -22.5 -3t-18 -8.5t-11.5 -14t-4 -19.5v0zM133 743q0 -10 3.5 -17.5t10 -13
t15.5 -8t21 -2.5t21.5 2.5t15.5 8t9.5 13t3.5 17.5t-3.5 18t-9.5 13t-15.5 8t-21.5 3t-21 -3t-15.5 -8t-10 -13t-3.5 -18v0z" />
    <glyph glyph-name="uni2079" unicode="&#x2079;" 
d="M36 590h95q0 -8 4 -14.5t10 -11.5t14 -8t17 -3q11 0 20 4t16 14.5t11.5 29.5t5.5 47q-3 -6 -10.5 -11.5t-18.5 -9t-23 -5.5t-25 -2q-25 0 -47 5.5t-39.5 18t-27.5 32.5t-10 49q0 28 11 51t30.5 39t46 24.5t56.5 8.5q36 0 64.5 -9t49.5 -29t32.5 -53.5t11.5 -80.5
q0 -51 -11 -87.5t-32 -58.5t-49 -32t-64 -10q-32 0 -57.5 7t-43 20.5t-26.5 32.5t-11 42v0zM175 682q10 0 19 3t16 9.5t11 16t4 22.5t-4 23t-11 16.5t-16 10t-19 3.5q-11 0 -20 -3.5t-15.5 -10t-10.5 -16.5t-4 -23t4 -22.5t10.5 -16t15.5 -9.5t20 -3v0z" />
    <glyph glyph-name="uni2080" unicode="&#x2080;" 
d="M183 -160q-40 0 -70.5 13.5t-50.5 38t-30 57t-10 71.5t10 71.5t30 57t50.5 38t70.5 13.5t70.5 -13.5t50.5 -38t30 -57t10 -71.5t-10 -71.5t-30 -57t-50.5 -38t-70.5 -13.5v0zM183 -83q16 0 27.5 7t19.5 20t12 32.5t4 43.5q0 25 -4 44t-11.5 32t-19.5 20t-28 7t-27.5 -7
t-19 -20t-11.5 -32t-4 -44q0 -24 4 -43.5t11.5 -32.5t19.5 -20t27 -7v0z" />
    <glyph glyph-name="uni2081" unicode="&#x2081;" 
d="M78 37l-40 67l149 88h61v-267h92v-77h-290v77h96v150z" />
    <glyph glyph-name="uni2082" unicode="&#x2082;" 
d="M28 -152q0 39 9.5 68t26 49.5t37.5 34.5t48 26l17 9q18 8 30.5 14.5t21.5 12.5t13.5 13t4.5 15q0 9 -3.5 16.5t-10 12.5t-16 7.5t-21.5 2.5t-22.5 -3.5t-18 -10.5t-11.5 -17t-5 -24h-96q1 32 13.5 56t33.5 39.5t47.5 23t56.5 7.5q34 0 62 -7.5t48 -21.5t30.5 -34
t10.5 -44q0 -22 -7.5 -39.5t-21 -30.5t-32 -23.5t-44.5 -22.5l-18 -8q-16 -7 -27.5 -13t-19.5 -11.5t-12 -10.5t-4 -9h184v-77h-304z" />
    <glyph glyph-name="uni2083" unicode="&#x2083;" 
d="M35 -46h92q0 -12 4 -21.5t11.5 -16t17.5 -10t23 -3.5t23.5 3t18 9t11.5 14.5t4 19.5t-4 19.5t-12 14t-19 8.5t-25 3h-21v60h21q13 0 22.5 2.5t16.5 8t10.5 13t3.5 17.5t-3 18t-9.5 13.5t-16 8t-21.5 2.5t-21 -3t-15.5 -9.5t-10 -15t-3.5 -19.5h-90q1 27 11.5 47.5
t29 34.5t44.5 21t58 7t58.5 -7t45.5 -20t29 -31t10 -40q0 -15 -4.5 -27.5t-12 -22.5t-18.5 -16.5t-23 -9.5v-3q15 -3 27.5 -10t21.5 -17.5t14 -24t5 -29.5q0 -25 -10.5 -44t-30.5 -32t-49 -19.5t-66 -6.5q-35 0 -62 6.5t-46 20.5t-29 35.5t-11 51.5v0z" />
    <glyph glyph-name="uni2084" unicode="&#x2084;" 
d="M20 -94v56l188 232h86v-215h47v-73h-47v-58h-100v58h-174zM117 -21h77v98z" />
    <glyph glyph-name="uni2085" unicode="&#x2085;" 
d="M39 -60h97q1 -7 4.5 -14t9.5 -12.5t15 -8.5t20 -3q10 0 19 3.5t16 10t11 16.5t4 23t-4 22.5t-11 16t-16 9.5t-19 3q-9 0 -16.5 -2t-13 -5.5t-10 -9t-7.5 -12.5l-92 9l14 206h253v-75h-171l-6 -73h3q5 5 11.5 9.5t15 7.5t20 5t25.5 2q24 0 45.5 -6t38 -19t26.5 -34.5
t10 -51.5q0 -28 -11 -50t-30.5 -37t-45.5 -22.5t-56 -7.5q-37 0 -64 7.5t-45 21t-28 31.5t-12 40v0z" />
    <glyph glyph-name="uni2086" unicode="&#x2086;" 
d="M326 98h-94q0 8 -3.5 14.5t-8.5 11.5t-12.5 8t-16.5 3q-12 0 -21.5 -4t-17.5 -14.5t-13 -29.5t-7 -48q5 6 13.5 11.5t20 9.5t23.5 6t25 2q24 0 45.5 -6t38 -19t26.5 -34.5t10 -51.5q0 -28 -11 -50t-30.5 -37t-45.5 -22.5t-56 -7.5q-36 0 -65 9t-50 29t-32.5 53.5
t-11.5 80.5q0 50 12 86.5t33.5 58.5t50.5 32.5t65 10.5q32 0 57 -7t41.5 -20.5t25 -32.5t9.5 -42v0zM188 6q-10 0 -19 -3t-16 -9t-11 -16t-4 -23t4 -23t11 -16.5t16 -10t19 -3.5q11 0 20 3.5t15.5 10t10.5 16.5t4 23t-4 22.5t-10.5 16t-15.5 9.5t-20 3v0z" />
    <glyph glyph-name="uni2087" unicode="&#x2087;" 
d="M74 -152l148 261h-190v83h306v-59l-160 -285h-104z" />
    <glyph glyph-name="uni2088" unicode="&#x2088;" 
d="M28 -62q0 17 5 31t14 25t21.5 18t27.5 10v4q-12 3 -23 9.5t-18.5 16.5t-12 22.5t-4.5 27.5q0 22 10 40t29 31t46 20t60 7t60 -7t46.5 -20t29.5 -31t10 -40q0 -15 -4.5 -27.5t-12 -22.5t-18.5 -16.5t-23 -9.5v-4q15 -3 27.5 -10t21.5 -18t14 -25t5 -31q0 -23 -10.5 -41.5
t-30.5 -31t-49 -19t-66 -6.5t-66 6.5t-49 19t-30 31t-10 41.5v0zM127 -51q0 -11 4 -19.5t11.5 -14.5t18 -9t22.5 -3q13 0 23.5 3t18 9t11.5 14.5t4 19.5t-4 19.5t-11.5 14t-18 8.5t-23.5 3q-12 0 -22.5 -3t-18 -8.5t-11.5 -14t-4 -19.5v0zM133 95q0 -10 3.5 -17.5t10 -13
t15.5 -8t21 -2.5t21.5 2.5t15.5 8t9.5 13t3.5 17.5t-3.5 18t-9.5 13t-15.5 8t-21.5 3t-21 -3t-15.5 -8t-10 -13t-3.5 -18v0z" />
    <glyph glyph-name="uni2089" unicode="&#x2089;" 
d="M36 -58h95q0 -8 4 -14.5t10 -11.5t14 -8t17 -3q11 0 20 4t16 14.5t11.5 29.5t5.5 47q-3 -6 -10.5 -11.5t-18.5 -9t-23 -5.5t-25 -2q-25 0 -47 5.5t-39.5 18t-27.5 32.5t-10 49q0 28 11 51t30.5 39t46 24.5t56.5 8.5q36 0 64.5 -9t49.5 -29t32.5 -53.5t11.5 -80.5
q0 -51 -11 -87.5t-32 -58.5t-49 -32t-64 -10q-32 0 -57.5 7t-43 20.5t-26.5 32.5t-11 42v0zM175 34q10 0 19 3t16 9.5t11 16t4 22.5t-4 23t-11 16.5t-16 10t-19 3.5q-11 0 -20 -3.5t-15.5 -10t-10.5 -16.5t-4 -23t4 -22.5t10.5 -16t15.5 -9.5t20 -3v0z" />
    <glyph glyph-name="Euro" unicode="&#x20ac;" horiz-adv-x="568" 
d="M9 383l19 67h51q9 56 28.5 101.5t50.5 79t74 51.5t98 18q50 0 88.5 -13.5t65.5 -39.5t44.5 -61.5t25.5 -80.5h-121q-7 23 -15.5 40t-20.5 28.5t-27.5 17t-36.5 5.5q-25 0 -45 -9.5t-35.5 -27.5t-26 -45.5t-16.5 -63.5h183l-19 -67h-171v-73h167l-20 -68h-140
q6 -37 16 -65t25.5 -47t36 -28.5t45.5 -9.5q18 0 33 5t26.5 14.5t20.5 24.5t16 36h122q-10 -42 -27.5 -76t-44.5 -58t-64 -37t-85 -13q-55 0 -98.5 18.5t-74.5 52t-50.5 80t-28.5 103.5h-88l20 68h62q0 4 -0.5 8t-0.5 8v8v10v11v9t0.5 9.5t0.5 9.5h-63z" />
    <glyph glyph-name="afii61289" unicode="&#x2113;" horiz-adv-x="412" 
d="M129 26q-10 11 -17.5 25.5t-12 32t-6.5 37.5t-2 44v74l-2 1l-59 -41l-12 24q9 8 18.5 15.5t18.5 15l18 15t18 15.5v136q0 53 5 92.5t14 68t22.5 48.5t31.5 37q10 9 20 15.5t20.5 10t21.5 5.5t23 2q23 0 42 -9t32 -25.5t20 -40.5t7 -53q0 -46 -17.5 -88t-45 -76.5
t-55.5 -60t-63 -52.5v-109q0 -39 7 -66t19.5 -43t28.5 -22.5t36 -6.5q17 0 33 5.5t30.5 15.5t27.5 24.5t27 34.5l22 -16q-12 -29 -29 -51.5t-38.5 -38.5t-47 -24.5t-54.5 -8.5q-17 0 -32 2.5t-27.5 7.5t-23 12t-19.5 16v0zM171 342q25 21 46.5 46t38 54t26.5 62t10 68
q0 23 -4 40t-11 28.5t-17 17t-23 5.5q-17 0 -29.5 -10t-21 -31t-13 -55.5t-4.5 -82.5v-141z" />
    <glyph glyph-name="afii61352" unicode="&#x2116;" horiz-adv-x="1214" 
d="M73 0v688h124l342 -461h4l-4 461h135v-688h-122l-344 460h-4l4 -460h-135zM795 516q0 41 13 74.5t37 57.5t58.5 36.5t76.5 12.5q43 0 77.5 -12.5t58.5 -36.5t37 -57.5t13 -74.5t-13 -74.5t-37.5 -57t-59 -36t-76.5 -12.5q-43 0 -77 12.5t-58.5 36t-37 57t-12.5 74.5v0z
M796 0v75h368v-75h-368zM796 174v75h368v-75h-368zM900 516q0 -23 5.5 -41.5t16 -32t25 -20.5t33.5 -7t33.5 7t25 20.5t16 32t5.5 41.5t-5.5 42t-16 32t-25 20t-33.5 7t-33.5 -7t-25 -20.5t-16 -32t-5.5 -41.5v0z" />
    <glyph glyph-name="trademark" unicode="&#x2122;" horiz-adv-x="828" 
d="M366 344v344h129l82 -222h4l81 222h130v-344h-93l4 233h-4l-85 -233h-71l-85 233h-4l4 -233h-92zM4 610v78h319v-78h-112v-266h-93v266h-114z" />
    <glyph glyph-name="Omega" unicode="&#x2126;" horiz-adv-x="696" 
d="M401 0v233q25 7 48 22t41.5 38.5t29 54.5t10.5 68q0 42 -13.5 76t-38 58t-57.5 37t-73 13t-73 -13t-57.5 -37t-38 -58t-13.5 -76q0 -37 11 -68t29.5 -54.5t41.5 -38.5t47 -22v-233h-242v96h136v79q-34 16 -62 40t-48 55.5t-31 68.5t-11 79q0 59 22 110.5t63 90t99 60
t127 21.5t127 -21.5t99 -60t63 -90t22 -110.5q0 -42 -11 -79t-31 -68.5t-48 -55.5t-62 -40v-79h136v-96h-242z" />
    <glyph glyph-name="estimated" unicode="&#x212e;" horiz-adv-x="850" 
d="M184 113q23 -24 50 -43t58 -32.5t65 -20.5t70 -7q38 0 74 8t68.5 23t61 37t51.5 49h58q-27 -32 -61.5 -57.5t-75 -43.5t-85.5 -28t-92 -10q-81 0 -153.5 27.5t-127.5 76.5t-85.5 114t-30.5 138t30.5 138t85.5 114t127.5 76.5t153.5 27.5q80 0 152.5 -27.5t127.5 -76.5
t85.5 -114t30.5 -138v-10h-641h-3t-2 -0.5t-1.5 -1.5t-0.5 -2v-194q0 -3 0.5 -6t2 -6t3.5 -5.5t4 -5.5v0zM181 355h492q1 0 1.5 0.5l1 1t1 2t0.5 2.5v193q0 4 -0.5 7t-2 6t-3 5.5t-4.5 5.5q-23 23 -50 41.5t-58 31.5t-64.5 20t-67.5 7q-35 0 -69 -7t-65 -21t-58 -33t-50 -42
q-3 -3 -5 -6t-3.5 -6t-2 -6.5t-0.5 -7.5v-188q0 -1 0.5 -2.5t1.5 -2l2 -1t3 -0.5v0z" />
    <glyph glyph-name="uni2153" unicode="&#x2153;" horiz-adv-x="811" 
d="M479 106h92q0 -12 4 -21.5t11.5 -16t18 -10t23.5 -3.5q12 0 22.5 3t18 9t11.5 14.5t4 19.5t-4 19.5t-12 14t-19 8.5t-25 3h-21v60h21q13 0 23 2.5t17 8t10.5 13t3.5 17.5t-3.5 18t-9.5 13t-15.5 8t-21.5 3t-21.5 -3t-15.5 -9.5t-9.5 -15t-3.5 -19.5h-91q1 27 11.5 47.5
t29 34.5t44.5 21t58 7t58.5 -7t45.5 -20t29 -31t10 -40q0 -15 -4.5 -27.5t-12 -22.5t-18.5 -16.5t-23 -9.5v-3q15 -3 27.5 -10t21.5 -17.5t14 -24t5 -29.5q0 -25 -10.5 -44t-30.5 -32t-48.5 -19.5t-65.5 -6.5q-35 0 -62 6.5t-46.5 20.5t-29.5 35.5t-11 51.5v0zM213 -12
q22 46 69.5 142.5t103 211t104 213t71.5 145.5h80l-348 -712h-80zM78 533l-40 67l149 88h61v-267h92v-77h-290v77h96v150z" />
    <glyph glyph-name="uni2154" unicode="&#x2154;" horiz-adv-x="811" 
d="M28 344q0 39 9.5 68t26 49.5t37.5 34.5t48 26l17 9q18 8 30.5 14.5t21.5 12.5t13.5 13t4.5 15q0 9 -3.5 16.5t-10 12.5t-16 7.5t-21.5 2.5t-22.5 -3.5t-18 -10.5t-11.5 -17t-5 -24h-96q1 32 13.5 56t33.5 39.5t47.5 23t56.5 7.5q34 0 62 -7.5t48 -21.5t30.5 -34t10.5 -44
q0 -22 -7.5 -39.5t-21 -30.5t-32 -23.5t-44.5 -22.5l-18 -8q-16 -7 -27.5 -13t-19.5 -11.5t-12 -10.5t-4 -9h184v-77h-304zM479 106h92q0 -12 4 -21.5t11.5 -16t18 -10t23.5 -3.5q12 0 22.5 3t18 9t11.5 14.5t4 19.5t-4 19.5t-12 14t-19 8.5t-25 3h-21v60h21q13 0 23 2.5
t17 8t10.5 13t3.5 17.5t-3.5 18t-9.5 13t-15.5 8t-21.5 3t-21.5 -3t-15.5 -9.5t-9.5 -15t-3.5 -19.5h-91q1 27 11.5 47.5t29 34.5t44.5 21t58 7t58.5 -7t45.5 -20t29 -31t10 -40q0 -15 -4.5 -27.5t-12 -22.5t-18.5 -16.5t-23 -9.5v-3q15 -3 27.5 -10t21.5 -17.5t14 -24
t5 -29.5q0 -25 -10.5 -44t-30.5 -32t-48.5 -19.5t-65.5 -6.5q-35 0 -62 6.5t-46.5 20.5t-29.5 35.5t-11 51.5v0zM211 -12q22 46 69.5 142.5t103 211t104 213t71.5 145.5h81l-348 -712h-81z" />
    <glyph glyph-name="uni2155" unicode="&#x2155;" horiz-adv-x="811" 
d="M483 92h98q1 -7 4.5 -14t9.5 -12.5t14.5 -8.5t19.5 -3q10 0 19 3.5t16 10t11 16.5t4 23t-4 22.5t-11 16t-16 9.5t-19 3q-9 0 -16.5 -2t-13 -5.5t-10 -9t-7.5 -12.5l-91 9l14 206h252v-75h-171l-6 -73h3q5 5 11.5 9.5t15 7.5t20 5t25.5 2q24 0 45.5 -6t38 -19t26.5 -34.5
t10 -51.5q0 -28 -11 -50t-30.5 -37t-45.5 -22.5t-56 -7.5q-36 0 -63.5 7.5t-45.5 21t-28 31.5t-12 40v0zM205 -12l348 712h81l-348 -712h-81zM78 533l-40 67l149 88h61v-267h92v-77h-290v77h96v150z" />
    <glyph glyph-name="uni2156" unicode="&#x2156;" horiz-adv-x="811" 
d="M28 344q0 39 9.5 68t26 49.5t37.5 34.5t48 26l17 9q18 8 30.5 14.5t21.5 12.5t13.5 13t4.5 15q0 9 -3.5 16.5t-10 12.5t-16 7.5t-21.5 2.5t-22.5 -3.5t-18 -10.5t-11.5 -17t-5 -24h-96q1 32 13.5 56t33.5 39.5t47.5 23t56.5 7.5q34 0 62 -7.5t48 -21.5t30.5 -34t10.5 -44
q0 -22 -7.5 -39.5t-21 -30.5t-32 -23.5t-44.5 -22.5l-18 -8q-16 -7 -27.5 -13t-19.5 -11.5t-12 -10.5t-4 -9h184v-77h-304zM483 92h98q1 -7 4.5 -14t9.5 -12.5t14.5 -8.5t19.5 -3q10 0 19 3.5t16 10t11 16.5t4 23t-4 22.5t-11 16t-16 9.5t-19 3q-9 0 -16.5 -2t-13 -5.5
t-10 -9t-7.5 -12.5l-91 9l14 206h252v-75h-171l-6 -73h3q5 5 11.5 9.5t15 7.5t20 5t25.5 2q24 0 45.5 -6t38 -19t26.5 -34.5t10 -51.5q0 -28 -11 -50t-30.5 -37t-45.5 -22.5t-56 -7.5q-36 0 -63.5 7.5t-45.5 21t-28 31.5t-12 40v0zM203 -12l348 712h81l-348 -712h-81z" />
    <glyph glyph-name="uni2157" unicode="&#x2157;" horiz-adv-x="811" 
d="M483 92h98q1 -7 4.5 -14t9.5 -12.5t14.5 -8.5t19.5 -3q10 0 19 3.5t16 10t11 16.5t4 23t-4 22.5t-11 16t-16 9.5t-19 3q-9 0 -16.5 -2t-13 -5.5t-10 -9t-7.5 -12.5l-91 9l14 206h252v-75h-171l-6 -73h3q5 5 11.5 9.5t15 7.5t20 5t25.5 2q24 0 45.5 -6t38 -19t26.5 -34.5
t10 -51.5q0 -28 -11 -50t-30.5 -37t-45.5 -22.5t-56 -7.5q-36 0 -63.5 7.5t-45.5 21t-28 31.5t-12 40v0zM35 450h92q0 -12 4 -21.5t11.5 -16t17.5 -10t23 -3.5t23.5 3t18 9t11.5 14.5t4 19.5t-4 19.5t-12 14t-19 8.5t-25 3h-21v60h21q13 0 22.5 2.5t16.5 8t10.5 13t3.5 17.5
t-3 18t-9.5 13.5t-16 8t-21.5 2.5t-21 -3t-15.5 -9.5t-10 -15t-3.5 -19.5h-90q1 27 11.5 47.5t29 34.5t44.5 21t58 7t58.5 -7t45.5 -20t29 -31t10 -40q0 -15 -4.5 -27.5t-12 -22.5t-18.5 -16.5t-23 -9.5v-3q15 -3 27.5 -10t21.5 -17.5t14 -24t5 -29.5q0 -25 -10.5 -44
t-30.5 -32t-49 -19.5t-66 -6.5q-35 0 -62 6.5t-46 20.5t-29 35.5t-11 51.5v0zM190 -12q22 46 69.5 142.5t103 211t104 213t71.5 145.5h80l-348 -712h-80z" />
    <glyph glyph-name="uni2158" unicode="&#x2158;" horiz-adv-x="811" 
d="M483 92h98q1 -7 4.5 -14t9.5 -12.5t14.5 -8.5t19.5 -3q10 0 19 3.5t16 10t11 16.5t4 23t-4 22.5t-11 16t-16 9.5t-19 3q-9 0 -16.5 -2t-13 -5.5t-10 -9t-7.5 -12.5l-91 9l14 206h252v-75h-171l-6 -73h3q5 5 11.5 9.5t15 7.5t20 5t25.5 2q24 0 45.5 -6t38 -19t26.5 -34.5
t10 -51.5q0 -28 -11 -50t-30.5 -37t-45.5 -22.5t-56 -7.5q-36 0 -63.5 7.5t-45.5 21t-28 31.5t-12 40v0zM20 402v56l188 232h86v-215h47v-73h-47v-58h-100v58h-174zM193 -12q23 47 71.5 145.5t104 213t103 211t69.5 142.5h81l-348 -712h-81zM117 475h77v98z" />
    <glyph glyph-name="uni2159" unicode="&#x2159;" horiz-adv-x="811" 
d="M771 250h-95q0 8 -3 14.5t-8.5 11.5t-12.5 8t-16 3q-12 0 -21.5 -4t-17.5 -14.5t-13.5 -29.5t-6.5 -49h3q5 7 13 12.5t18.5 9.5t22.5 6t25 2q24 0 45 -6t38 -19t27 -34.5t10 -51.5q0 -28 -11 -50t-30.5 -37t-46 -22.5t-56.5 -7.5q-36 0 -64.5 9t-49.5 29t-32.5 53.5
t-11.5 80.5q0 50 11.5 86.5t33 58.5t50.5 32.5t65 10.5q32 0 57 -7t41.5 -20.5t25 -32.5t10.5 -42v0zM215 -12q22 46 69.5 142.5t103 211t104 213t71.5 145.5h81l-348 -712h-81zM78 533l-40 67l149 88h61v-267h92v-77h-290v77h96v150zM632 158q-10 0 -19 -3t-16 -9t-11 -16
t-4 -23t4 -23t11 -16.5t16 -10t19 -3.5q11 0 20 3.5t15.5 10t10.5 16.5t4 23t-4 22.5t-10.5 16t-15.5 9.5t-20 3v0z" />
    <glyph glyph-name="uni215A" unicode="&#x215a;" horiz-adv-x="811" 
d="M771 250h-95q0 8 -3 14.5t-8.5 11.5t-12.5 8t-16 3q-12 0 -21.5 -4t-17.5 -14.5t-13.5 -29.5t-6.5 -49h3q5 7 13 12.5t18.5 9.5t22.5 6t25 2q24 0 45 -6t38 -19t27 -34.5t10 -51.5q0 -28 -11 -50t-30.5 -37t-46 -22.5t-56.5 -7.5q-36 0 -64.5 9t-49.5 29t-32.5 53.5
t-11.5 80.5q0 50 11.5 86.5t33 58.5t50.5 32.5t65 10.5q32 0 57 -7t41.5 -20.5t25 -32.5t10.5 -42v0zM39 436h97q1 -7 4.5 -14t9.5 -12.5t15 -8.5t20 -3q10 0 19 3.5t16 10t11 16.5t4 23t-4 22.5t-11 16t-16 9.5t-19 3q-9 0 -16.5 -2t-13 -5.5t-10 -9t-7.5 -12.5l-92 9
l14 206h253v-75h-171l-6 -73h3q5 5 11.5 9.5t15 7.5t20 5t25.5 2q24 0 45.5 -6t38 -19t26.5 -34.5t10 -51.5q0 -28 -11 -50t-30.5 -37t-45.5 -22.5t-56 -7.5q-37 0 -64 7.5t-45 21t-28 31.5t-12 40v0zM191 -12l348 712h81l-348 -712h-81zM632 158q-10 0 -19 -3t-16 -9
t-11 -16t-4 -23t4 -23t11 -16.5t16 -10t19 -3.5q11 0 20 3.5t15.5 10t10.5 16.5t4 23t-4 22.5t-10.5 16t-15.5 9.5t-20 3v0z" />
    <glyph glyph-name="uni215B" unicode="&#x215b;" horiz-adv-x="811" 
d="M472 90q0 17 5 31t14 25t21.5 18t27.5 10v4q-12 3 -23 9.5t-18.5 16.5t-12 22.5t-4.5 27.5q0 22 10 40t29.5 31t46.5 20t60 7t60 -7t46 -20t29 -31t10 -40q0 -15 -4.5 -27.5t-12 -22.5t-18.5 -16.5t-23 -9.5v-4q15 -3 27.5 -10t21.5 -18t14 -25t5 -31q0 -23 -10 -41.5
t-30 -31t-49 -19t-66 -6.5t-66 6.5t-49 19t-30.5 31t-10.5 41.5v0zM211 -12q22 46 69.5 142.5t103 211t104 213t71.5 145.5h81l-348 -712h-81zM78 533l-40 67l149 88h61v-267h92v-77h-290v77h96v150zM571 101q0 -11 4 -19.5t11.5 -14.5t18 -9t23.5 -3q12 0 22.5 3t18 9
t11.5 14.5t4 19.5t-4 19.5t-11.5 14t-18 8.5t-22.5 3q-13 0 -23.5 -3t-18 -8.5t-11.5 -14t-4 -19.5v0zM578 247q0 -10 3.5 -17.5t9.5 -13t15.5 -8t21.5 -2.5t21 2.5t15.5 8t10 13t3.5 17.5t-3.5 18t-10 13t-15.5 8t-21 3t-21.5 -3t-15.5 -8t-9.5 -13t-3.5 -18v0z" />
    <glyph glyph-name="uni215C" unicode="&#x215c;" horiz-adv-x="811" 
d="M472 90q0 17 5 31t14 25t21.5 18t27.5 10v4q-12 3 -23 9.5t-18.5 16.5t-12 22.5t-4.5 27.5q0 22 10 40t29.5 31t46.5 20t60 7t60 -7t46 -20t29 -31t10 -40q0 -15 -4.5 -27.5t-12 -22.5t-18.5 -16.5t-23 -9.5v-4q15 -3 27.5 -10t21.5 -18t14 -25t5 -31q0 -23 -10 -41.5
t-30 -31t-49 -19t-66 -6.5t-66 6.5t-49 19t-30.5 31t-10.5 41.5v0zM35 450h92q0 -12 4 -21.5t11.5 -16t17.5 -10t23 -3.5t23.5 3t18 9t11.5 14.5t4 19.5t-4 19.5t-12 14t-19 8.5t-25 3h-21v60h21q13 0 22.5 2.5t16.5 8t10.5 13t3.5 17.5t-3 18t-9.5 13.5t-16 8t-21.5 2.5
t-21 -3t-15.5 -9.5t-10 -15t-3.5 -19.5h-90q1 27 11.5 47.5t29 34.5t44.5 21t58 7t58.5 -7t45.5 -20t29 -31t10 -40q0 -15 -4.5 -27.5t-12 -22.5t-18.5 -16.5t-23 -9.5v-3q15 -3 27.5 -10t21.5 -17.5t14 -24t5 -29.5q0 -25 -10.5 -44t-30.5 -32t-49 -19.5t-66 -6.5
q-35 0 -62 6.5t-46 20.5t-29 35.5t-11 51.5v0zM193 -12l348 712h81l-348 -712h-81zM571 101q0 -11 4 -19.5t11.5 -14.5t18 -9t23.5 -3q12 0 22.5 3t18 9t11.5 14.5t4 19.5t-4 19.5t-11.5 14t-18 8.5t-22.5 3q-13 0 -23.5 -3t-18 -8.5t-11.5 -14t-4 -19.5v0zM578 247
q0 -10 3.5 -17.5t9.5 -13t15.5 -8t21.5 -2.5t21 2.5t15.5 8t10 13t3.5 17.5t-3.5 18t-10 13t-15.5 8t-21 3t-21.5 -3t-15.5 -8t-9.5 -13t-3.5 -18v0z" />
    <glyph glyph-name="uni215D" unicode="&#x215d;" horiz-adv-x="811" 
d="M472 90q0 17 5 31t14 25t21.5 18t27.5 10v4q-12 3 -23 9.5t-18.5 16.5t-12 22.5t-4.5 27.5q0 22 10 40t29.5 31t46.5 20t60 7t60 -7t46 -20t29 -31t10 -40q0 -15 -4.5 -27.5t-12 -22.5t-18.5 -16.5t-23 -9.5v-4q15 -3 27.5 -10t21.5 -18t14 -25t5 -31q0 -23 -10 -41.5
t-30 -31t-49 -19t-66 -6.5t-66 6.5t-49 19t-30.5 31t-10.5 41.5v0zM39 436h97q1 -7 4.5 -14t9.5 -12.5t15 -8.5t20 -3q10 0 19 3.5t16 10t11 16.5t4 23t-4 22.5t-11 16t-16 9.5t-19 3q-9 0 -16.5 -2t-13 -5.5t-10 -9t-7.5 -12.5l-92 9l14 206h253v-75h-171l-6 -73h3
q5 5 11.5 9.5t15 7.5t20 5t25.5 2q24 0 45.5 -6t38 -19t26.5 -34.5t10 -51.5q0 -28 -11 -50t-30.5 -37t-45.5 -22.5t-56 -7.5q-37 0 -64 7.5t-45 21t-28 31.5t-12 40v0zM191 -12l348 712h81l-348 -712h-81zM571 101q0 -11 4 -19.5t11.5 -14.5t18 -9t23.5 -3q12 0 22.5 3
t18 9t11.5 14.5t4 19.5t-4 19.5t-11.5 14t-18 8.5t-22.5 3q-13 0 -23.5 -3t-18 -8.5t-11.5 -14t-4 -19.5v0zM578 247q0 -10 3.5 -17.5t9.5 -13t15.5 -8t21.5 -2.5t21 2.5t15.5 8t10 13t3.5 17.5t-3.5 18t-10 13t-15.5 8t-21 3t-21.5 -3t-15.5 -8t-9.5 -13t-3.5 -18v0z" />
    <glyph glyph-name="uni215E" unicode="&#x215e;" horiz-adv-x="811" 
d="M472 90q0 17 5 31t14 25t21.5 18t27.5 10v4q-12 3 -23 9.5t-18.5 16.5t-12 22.5t-4.5 27.5q0 22 10 40t29.5 31t46.5 20t60 7t60 -7t46 -20t29 -31t10 -40q0 -15 -4.5 -27.5t-12 -22.5t-18.5 -16.5t-23 -9.5v-4q15 -3 27.5 -10t21.5 -18t14 -25t5 -31q0 -23 -10 -41.5
t-30 -31t-49 -19t-66 -6.5t-66 6.5t-49 19t-30.5 31t-10.5 41.5v0zM163 -12l348 712h81l-348 -712h-81zM74 344l148 261h-190v83h306v-59l-160 -285h-104zM571 101q0 -11 4 -19.5t11.5 -14.5t18 -9t23.5 -3q12 0 22.5 3t18 9t11.5 14.5t4 19.5t-4 19.5t-11.5 14t-18 8.5
t-22.5 3q-13 0 -23.5 -3t-18 -8.5t-11.5 -14t-4 -19.5v0zM578 247q0 -10 3.5 -17.5t9.5 -13t15.5 -8t21.5 -2.5t21 2.5t15.5 8t10 13t3.5 17.5t-3.5 18t-10 13t-15.5 8t-21 3t-21.5 -3t-15.5 -8t-9.5 -13t-3.5 -18v0z" />
    <glyph glyph-name="uni2190" unicode="&#x2190;" horiz-adv-x="660" 
d="M352 58l-67 -63l-257 257l257 257l67 -63l-149 -148q22 1 46 2t45.5 1.5t37.5 0.5h35h265v-100h-265h-35t-37.5 0.5t-45.5 1.5t-46 2z" />
    <glyph glyph-name="uni2191" unicode="&#x2191;" horiz-adv-x="660" 
d="M140 230l-63 67l257 257l257 -257l-63 -67l-147 149q1 -23 2 -47t1.5 -45.5t0.5 -40v-31.5v-265h-101v265v35t0.5 37.5t1.5 45t2 46.5z" />
    <glyph glyph-name="uni2192" unicode="&#x2192;" horiz-adv-x="660" 
d="M375 -5l-67 63l148 148q-22 -1 -45.5 -2t-45 -1.5t-37.5 -0.5h-35h-265v100h265h35t37.5 -0.5t45 -1.5t45.5 -2l-148 148l67 63l257 -257z" />
    <glyph glyph-name="uni2193" unicode="&#x2193;" horiz-adv-x="660" 
d="M524 274l63 -67l-257 -257l-257 257l63 67l148 -149q-1 22 -2 46t-1.5 45.5t-0.5 37.5v35v265h100v-265v-35t-0.5 -37.5t-1.5 -45.5t-2 -46z" />
    <glyph glyph-name="uni2196" unicode="&#x2196;" horiz-adv-x="660" 
d="M92 477h364v-91h-205q17 -15 33.5 -31t31 -30.5t31.5 -31t20 -20.5l188 -187l-70 -72l-187 188l-23 23l-28.5 28.5t-32 33.5t-31.5 35v-209h-91v364z" />
    <glyph glyph-name="uni2197" unicode="&#x2197;" horiz-adv-x="660" 
d="M191 386v91h364v-364h-91v209q-15 -17 -31.5 -35t-32 -33.5l-28.5 -28.5l-23 -23l-187 -188l-70 72l188 187l21.5 21.5t30 30.5t30 30t33.5 31h-204z" />
    <glyph glyph-name="uni2198" unicode="&#x2198;" horiz-adv-x="660" 
d="M191 14v91h204q-17 15 -33.5 31t-31 30.5t-15 14.5t-35.5 37l-188 187l70 72l187 -188l23 -23l28.5 -28.5t32 -33.5t31.5 -35v209h91v-364h-364z" />
    <glyph glyph-name="uni2199" unicode="&#x2199;" horiz-adv-x="660" 
d="M251 105h205v-91h-364v364h91v-209q15 17 31.5 35t32 33.5l28.5 28.5l23 23l187 188l70 -72l-188 -187q-13 -14 -24 -25.5t-26 -26t-32 -30.5t-34 -31v0z" />
    <glyph glyph-name="partialdiff" unicode="&#x2202;" horiz-adv-x="568" 
d="M16 194q0 60 19.5 106.5t53.5 77.5t76 46.5t88 15.5q25 0 48.5 -5t43 -14t34.5 -22t24 -29q0 5 0.5 9.5t0.5 8.5v8v10q0 53 -9 90.5t-24.5 60.5t-35.5 33t-43 10t-41 -6.5t-30.5 -17.5t-21 -26.5t-12.5 -33.5h-123q9 41 27.5 75t48 58t69.5 37.5t91 13.5q48 0 89.5 -16.5
t73.5 -52t50 -92.5t18 -135q0 -115 -24.5 -196t-66 -129.5t-94.5 -69.5t-114 -21q-43 0 -82.5 13.5t-69.5 40.5t-47 65.5t-17 86.5v0zM247 88q25 0 48 9.5t41 28t28 44.5t10 58q0 26 -7 47t-20.5 35.5t-33 22t-43.5 7.5q-26 0 -49 -9.5t-40.5 -28t-27.5 -45.5t-10 -61
q0 -26 8 -46t22 -34t33 -21t41 -7v0z" />
    <glyph glyph-name="Delta" unicode="&#x2206;" horiz-adv-x="661" 
d="M13 0l248 688h139l247 -688h-634zM329 549h-4l-152 -445h308z" />
    <glyph glyph-name="product" unicode="&#x220f;" horiz-adv-x="741" 
d="M83 0v688h575v-688h-129v584h-318v-584h-128z" />
    <glyph glyph-name="summation" unicode="&#x2211;" horiz-adv-x="550" 
d="M15 0v53l225 285l-217 290v60h491v-102h-314l183 -240l-192 -244h332v-102h-508z" />
    <glyph glyph-name="minus" unicode="&#x2212;" horiz-adv-x="568" 
d="M58 205v100h452v-100h-452z" />
    <glyph glyph-name="uni2215" unicode="&#x2215;" horiz-adv-x="78" 
d="M-176 -12q23 47 71.5 145.5t104 213t103 211t69.5 142.5h81l-348 -712h-81z" />
    <glyph glyph-name="uni2219" unicode="&#x2219;" horiz-adv-x="282" 
d="M69 185v136h145v-136h-145z" />
    <glyph glyph-name="radical" unicode="&#x221a;" horiz-adv-x="608" 
d="M26 280v100l168 53l110 -293h4l186 548h123l-239 -688h-141l-122 309z" />
    <glyph glyph-name="infinity" unicode="&#x221e;" horiz-adv-x="708" 
d="M192 88q-37 0 -67.5 12t-52.5 34t-34 53t-12 67t12 67t34 53t52.5 34t67.5 12q24 0 47 -7.5t44 -21t39.5 -31t33.5 -39.5q16 21 34 39t38 31.5t42.5 21t45.5 7.5q37 0 67.5 -12t52.5 -34t34 -53t12 -67t-12 -67t-34 -53t-52.5 -34t-67.5 -12q-24 0 -47.5 7.5t-44 20.5
t-39 31t-33.5 39q-16 -21 -34.5 -39t-38.5 -31t-42 -20.5t-45 -7.5v0zM410 254q10 -14 21.5 -27.5t25.5 -24.5t29.5 -18t31.5 -7t29.5 6t23 16.5t14.5 24.5t5 30t-5 30t-14.5 24.5t-23 16.5t-29.5 6t-31.5 -7t-29.5 -18.5t-25.5 -24.5t-21.5 -27v0zM190 177q16 0 31.5 7
t29.5 18t25.5 24.5t21.5 27.5q-10 14 -21.5 27t-25.5 24.5t-29.5 18.5t-31.5 7t-29.5 -6t-23 -16.5t-14.5 -24.5t-5 -30t5 -30t14.5 -24.5t23 -16.5t29.5 -6v0z" />
    <glyph glyph-name="integral" unicode="&#x222b;" horiz-adv-x="364" 
d="M23 -84h33q31 0 48.5 11t25 31t8 47t-2.5 69l-31 500q-4 60 2.5 105t27 78t59 51t98.5 18h47v-100h-34q-31 0 -48.5 -11t-25 -31t-8 -47t2.5 -69l32 -500q4 -59 -2.5 -104t-27 -78.5t-59.5 -51.5t-98 -18h-47v100z" />
    <glyph glyph-name="approxequal" unicode="&#x2248;" horiz-adv-x="568" 
d="M49 280q0 45 11 78t30 54.5t44 31.5t52 10q31 0 56.5 -9.5t57.5 -28t46 -25.5t32 -7q12 0 21 4.5t15.5 14t9.5 23.5t3 32h94q0 -44 -11 -77.5t-30 -55t-43 -31.5t-51 -10q-31 0 -57 9.5t-58.5 29t-47 27t-32.5 7.5q-12 0 -21 -5t-15 -15t-9 -24.5t-3 -32.5h-94zM49 52
q0 45 11 78t30 54.5t44 31.5t52 10q31 0 56.5 -9.5t57.5 -28t46 -25.5t32 -7q12 0 21 4.5t15.5 14t9.5 23.5t3 32h94q0 -44 -11 -77.5t-30 -55t-43 -31.5t-51 -10q-31 0 -57 9.5t-58.5 29t-47 26.5t-32.5 7q-12 0 -21 -5t-15 -14.5t-9 -24t-3 -32.5h-94z" />
    <glyph glyph-name="notequal" unicode="&#x2260;" horiz-adv-x="568" 
d="M56 313v100h261l70 134l75 -40l-49 -94h99v-100h-152l-61 -118h213v-100h-265l-70 -134l-75 40l49 94h-95v100h147l61 118h-208z" />
    <glyph glyph-name="lessequal" unicode="&#x2264;" horiz-adv-x="568" 
d="M72 327v104l424 169v-110l-300 -110l300 -112v-111zM72 0v100h424v-100h-424z" />
    <glyph glyph-name="greaterequal" unicode="&#x2265;" horiz-adv-x="568" 
d="M496 429v-103l-424 -169v109l299 109l-299 113v112zM72 0v100h424v-100h-424z" />
    <glyph glyph-name="uni25A0" unicode="&#x25a0;" horiz-adv-x="688" 
d="M0 0v688h688v-688h-688z" />
    <glyph glyph-name="uni25A1" unicode="&#x25a1;" horiz-adv-x="688" 
d="M0 0v688h688v-688h-688zM111 104h466v480h-466v-480z" />
    <glyph glyph-name="uni25B6" unicode="&#x25b6;" horiz-adv-x="502" 
d="M44 -12v512l446 -256z" />
    <glyph glyph-name="uni25B7" unicode="&#x25b7;" horiz-adv-x="502" 
d="M44 -12v512l446 -256zM136 141l184 103l-184 103v-206z" />
    <glyph glyph-name="uni25C0" unicode="&#x25c0;" horiz-adv-x="502" 
d="M12 244l446 256v-512z" />
    <glyph glyph-name="uni25C1" unicode="&#x25c1;" horiz-adv-x="502" 
d="M12 244l446 256v-512zM182 244l184 -103v206z" />
    <glyph glyph-name="lozenge" unicode="&#x25ca;" horiz-adv-x="662" 
d="M273 0l-248 344l248 344h117l247 -344l-247 -344h-117zM333 581h-6l-168 -237l171 -239h4l169 236z" />
    <glyph glyph-name="uni25CB" unicode="&#x25cb;" horiz-adv-x="552" 
d="M20 244q0 53 19 100t54 82t82 54.5t101 19.5t101 -19t82 -53.5t54 -81.5t19 -102q0 -53 -19 -100t-54 -82t-82 -54.5t-101 -19.5t-101 19t-82 53.5t-54 81.5t-19 102v0zM130 244q0 -34 11 -63t31 -50.5t46.5 -33t57.5 -11.5q32 0 59 11.5t46.5 33t30 50.5t10.5 63t-11 63
t-31 50.5t-46.5 33t-57.5 11.5q-32 0 -59 -11.5t-46.5 -33t-30 -50.5t-10.5 -63v0z" />
    <glyph glyph-name="uni25CF" unicode="&#x25cf;" horiz-adv-x="552" 
d="M20 244q0 53 19 100t54 82t82 54.5t101 19.5t101 -19t82 -53.5t54 -81.5t19 -102q0 -53 -19 -100t-54 -82t-82 -54.5t-101 -19.5t-101 19t-82 53.5t-54 81.5t-19 102v0z" />
    <glyph glyph-name="uni25FB" unicode="&#x25fb;" horiz-adv-x="488" 
d="M0 0v488h488v-488h-488zM104 98h280v292h-280v-292z" />
    <glyph glyph-name="uni25FC" unicode="&#x25fc;" horiz-adv-x="488" 
d="M0 0v488h488v-488h-488z" />
    <glyph glyph-name="uni2605" unicode="&#x2605;" horiz-adv-x="546" 
d="M106 13l68 183l-162 108l5 16l195 -9l53 189h16l52 -189l196 9l5 -16l-163 -108l69 -183l-14 -10l-153 121l-153 -121z" />
    <glyph glyph-name="dotlessj" unicode="&#xf6be;" horiz-adv-x="269" 
d="M70 -46v534h129v-543q0 -40 -8.5 -70.5t-28.5 -51.5t-53 -32t-81 -11h-41v100h26q16 0 27 4.5t17.5 13.5t9.5 23t3 33v0z" />
    <glyph glyph-name="commaaccent" unicode="&#xf6c3;" horiz-adv-x="586" 
d="M234 -61h118v-88l-50 -108h-53l35 95h-50v101z" />
    <glyph glyph-name="at.sc" horiz-adv-x="840" 
d="M234 96q0 24 8 43t24 34t40 24t57 13l68 8q15 2 24.5 4t15 5t8 8t2.5 13q0 12 -4 22.5t-11.5 17.5t-19 11t-26.5 4q-14 0 -25.5 -3.5t-20 -10.5t-14 -18t-6.5 -25h-101q2 35 16.5 60.5t37.5 41t52 23t61 7.5q41 0 73 -9t54 -27t33 -44.5t11 -60.5v-111q0 -18 3.5 -31
t10 -21.5t16.5 -12.5t23 -4q15 0 28.5 8t24 25.5t16.5 46t6 67.5q0 60 -22 108.5t-61.5 83t-94 52.5t-117.5 18q-68 0 -124.5 -22t-96.5 -61.5t-61 -92.5t-21 -114t20.5 -113.5t59 -91t93 -59.5t120.5 -21q25 0 47 3t41 8.5t36 15t31 22.5h95q-21 -28 -48 -49t-58.5 -35.5
t-68 -22t-75.5 -7.5q-80 0 -148 26.5t-117 74.5t-75 112t-26 137q0 74 26.5 138.5t76 113.5t119.5 76.5t154 27.5q79 0 146.5 -23.5t117.5 -67t77 -104.5t27 -133q0 -55 -13.5 -95.5t-38 -66.5t-56 -38t-67.5 -12q-22 0 -40 3t-33.5 9.5t-27.5 17t-19 26.5
q-10 -14 -22.5 -25t-29 -18.5t-36.5 -11t-44 -3.5q-32 0 -56.5 7.5t-41 22t-25 34t-8.5 42.5v0zM401 63q15 0 29 4.5t25.5 13.5t18.5 24.5t7 35.5v32q-3 -3 -6.5 -5.5t-8 -4t-10 -2.5t-11.5 -2l-50 -6q-13 -2 -22.5 -6t-15.5 -10t-8.5 -13.5t-2.5 -15.5q0 -10 4 -18.5
t11 -14.5t17 -9t23 -3v0z" />
    <glyph glyph-name="a.sc" horiz-adv-x="570" 
d="M6 0l204 520h152l202 -520h-136l-36 103h-219l-37 -103h-130zM282 403l-74 -204h150l-72 204h-4z" />
    <glyph glyph-name="b.sc" horiz-adv-x="609" 
d="M81 0v520h284q44 0 77 -9t55 -27t33 -43t11 -57q0 -18 -5 -34.5t-15 -30.5t-26.5 -25t-39.5 -16v-3q26 -4 46.5 -15t34.5 -27.5t21.5 -37t7.5 -43.5q0 -33 -12 -60.5t-35 -48t-57.5 -32t-77.5 -11.5h-302zM359 222h-150v-129h150q18 0 31.5 4.5t23 13.5t14 21t4.5 27
q0 14 -5 25.5t-14.5 20t-23 13t-30.5 4.5v0zM343 427h-134v-115h134q16 0 29 4.5t21.5 12.5t12.5 19.5t4 24.5q0 12 -4 22t-12 17t-21 11t-30 4v0z" />
    <glyph glyph-name="c.sc" horiz-adv-x="599" 
d="M38 260q0 59 19.5 109t56 86.5t88.5 56.5t115 20q50 0 92.5 -13.5t75 -38.5t53.5 -60t28 -77h-126q-6 18 -16 33t-25 25.5t-35.5 16.5t-45.5 6q-34 0 -61 -11.5t-46.5 -33.5t-29.5 -52t-10 -67q0 -36 10 -66.5t29.5 -52t46.5 -33.5t61 -12q25 0 45.5 6t35 17t24.5 25.5
t17 32.5h126q-8 -42 -28.5 -76.5t-53 -60t-75.5 -39t-94 -13.5q-64 0 -115.5 20.5t-87.5 57.5t-55 86.5t-19 107.5v0z" />
    <glyph glyph-name="d.sc" horiz-adv-x="624" 
d="M81 0v520h227q66 0 118 -19t87.5 -53.5t53.5 -82t18 -105.5q0 -56 -18 -103.5t-53.5 -83t-88 -54.5t-118.5 -19h-226zM293 418h-84v-316h84q42 0 73 12.5t50 34.5t28 50t9 61t-9 61.5t-28 50.5t-50 34t-73 12v0z" />
    <glyph glyph-name="e.sc" horiz-adv-x="556" 
d="M81 0v520h415v-98h-287v-112h232v-93h-232v-119h296v-98h-424z" />
    <glyph glyph-name="f.sc" horiz-adv-x="526" 
d="M81 0v520h405v-98h-277v-136h223v-95h-223v-191h-128z" />
    <glyph glyph-name="g.sc" horiz-adv-x="651" 
d="M333 195v90h248v-285h-82l-10 54h-3q-13 -15 -29.5 -27.5t-36.5 -21t-44.5 -13t-53.5 -4.5q-63 0 -115 20.5t-89 57.5t-56.5 86.5t-19.5 107.5t20.5 108t58.5 87t91.5 57t118.5 20q52 0 95.5 -13.5t76 -38t52.5 -56t26 -67.5h-129q-4 13 -14 25t-25 22t-36 16t-46 6
q-35 0 -64 -12t-49.5 -34t-31.5 -52.5t-11 -67.5t10.5 -68t31 -53.5t49.5 -34.5t65 -12q28 0 52.5 7t43 21t29 33t11.5 42h-134z" />
    <glyph glyph-name="h.sc" horiz-adv-x="652" 
d="M81 0v520h128v-205h234v205h128v-520h-128v209h-234v-209h-128z" />
    <glyph glyph-name="i.sc" horiz-adv-x="290" 
d="M81 0v520h128v-520h-128z" />
    <glyph glyph-name="j.sc" horiz-adv-x="484" 
d="M38 163v22h125v-27q0 -17 4.5 -30t12.5 -21.5t19.5 -12.5t26.5 -4q14 0 26 4t20.5 13t13 22t4.5 31v360h128v-342q0 -49 -13.5 -85t-38.5 -59.5t-60.5 -34.5t-79.5 -11q-43 0 -77.5 10.5t-59 32t-38 54.5t-13.5 78v0z" />
    <glyph glyph-name="k.sc" horiz-adv-x="600" 
d="M81 0v520h128v-235l217 235h148l-215 -226l231 -294h-150l-164 208l-67 -71v-137h-128z" />
    <glyph glyph-name="l.sc" horiz-adv-x="492" 
d="M81 0v520h128v-412h259v-108h-387z" />
    <glyph glyph-name="m.sc" horiz-adv-x="799" 
d="M81 0v520h172l147 -352h2l150 352h167v-520h-127l10 353h-4l-154 -353h-92l-151 353h-3l9 -353h-126z" />
    <glyph glyph-name="n.sc" horiz-adv-x="652" 
d="M81 0v520h111l251 -317h4l-4 317h128v-520h-109l-253 317h-5l5 -317h-128z" />
    <glyph glyph-name="o.sc" horiz-adv-x="650" 
d="M38 260q0 58 20.5 108t59 87t91.5 57t116 20t116 -20t91.5 -57t59 -87t20.5 -108t-20.5 -108t-58.5 -87t-91.5 -57t-116.5 -20t-116 20t-91.5 57t-59 87t-20.5 108v0zM171 260q0 -35 11 -65.5t31.5 -52.5t49 -34t62.5 -12t62.5 12t49 33.5t31.5 52t11 66.5q0 35 -11 65.5
t-31.5 52.5t-49 34t-62.5 12t-62.5 -12t-49 -34t-31.5 -52t-11 -66v0z" />
    <glyph glyph-name="p.sc" horiz-adv-x="581" 
d="M81 0v520h263q47 0 84 -13t63 -37t39 -56.5t13 -71.5q0 -40 -13 -73t-39 -57.5t-63 -37.5t-84 -13h-135v-161h-128zM327 422h-118v-163h118q21 0 37 6t26.5 16.5t16 26t5.5 33.5t-5.5 32.5t-16 25.5t-26.5 17t-37 6v0z" />
    <glyph glyph-name="q.sc" horiz-adv-x="650" 
d="M38 260q0 58 20.5 108t59 87t91.5 57t116 20t116 -20t91.5 -57t59 -87t20.5 -108q0 -29 -5 -56t-15 -51.5t-24.5 -46t-33.5 -39.5l99 -101l-79 -73l-112 115q-13 -5 -27 -8.5t-28.5 -6t-30 -4t-31.5 -1.5q-63 0 -116 20t-91.5 57t-59 87t-20.5 108v0zM171 260
q0 -35 11 -65.5t31.5 -52.5t49 -34t62.5 -12t62.5 12t49 33.5t31.5 52t11 66.5q0 35 -11 65.5t-31.5 52.5t-49 34t-62.5 12t-62.5 -12t-49 -34t-31.5 -52t-11 -66v0z" />
    <glyph glyph-name="r.sc" horiz-adv-x="601" 
d="M81 0v520h265q47 0 84 -11.5t62 -33.5t38 -52.5t13 -69.5q0 -29 -7 -54t-21.5 -46t-35 -36.5t-47.5 -24.5l135 -192h-141l-121 179h-96v-179h-128zM331 422h-122v-146h122q20 0 35 5t25.5 15t15.5 24t5 31q0 16 -5.5 29t-15.5 22.5t-25.5 14.5t-34.5 5v0z" />
    <glyph glyph-name="s.sc" horiz-adv-x="554" 
d="M40 150h127q0 -17 7.5 -30.5t21 -22.5t33.5 -14t44 -5q26 0 46 4t33 12.5t20 21.5t7 30q0 15 -8.5 25.5t-23 16.5t-32.5 10t-46 8l-28 4q-42 7 -73.5 15t-58.5 24.5t-43.5 45t-16.5 70.5q0 36 15 66.5t44.5 53t72 35t96.5 12.5q52 0 92.5 -11.5t68 -32.5t41.5 -50t14 -64
h-122q0 16 -7 29t-20 21.5t-30 13t-37 4.5q-22 0 -40 -3.5t-31 -11.5t-20 -20.5t-7 -28.5q0 -15 8.5 -26t23 -17.5t33 -10.5t45.5 -8l28 -4q43 -7 74.5 -15t59 -24t44 -44t16.5 -70q0 -39 -15.5 -70.5t-45.5 -54t-74.5 -34.5t-102.5 -12q-56 0 -99.5 11t-73.5 32.5t-45 51.5
t-15 67v0z" />
    <glyph glyph-name="t.sc" horiz-adv-x="538" 
d="M24 415v105h490v-105h-181v-415h-128v415h-181z" />
    <glyph glyph-name="u.sc" horiz-adv-x="620" 
d="M65 212v308h128v-305q0 -27 7.5 -49t22 -37.5t36 -23.5t50.5 -8t51 8t37 23.5t22.5 37.5t7.5 49v305h128v-308q0 -62 -18 -105t-50.5 -69.5t-77 -38t-100.5 -11.5q-55 0 -99.5 11.5t-77 38t-50 69.5t-17.5 105v0z" />
    <glyph glyph-name="v.sc" horiz-adv-x="562" 
d="M200 0l-194 520h138l137 -403h4l142 403h129l-194 -520h-162z" />
    <glyph glyph-name="w.sc" horiz-adv-x="811" 
d="M147 0l-135 520h136l88 -387h4l110 387h117l111 -387h4l82 387h134l-134 -520h-158l-97 353h-3l-99 -353h-160z" />
    <glyph glyph-name="x.sc" horiz-adv-x="553" 
d="M6 0l195 266l-187 254h152l115 -165l110 165h146l-185 -253l195 -267h-146l-129 181l-124 -181h-142z" />
    <glyph glyph-name="y.sc" horiz-adv-x="556" 
d="M212 0v196l-208 324h146l128 -209h3l134 209h137l-211 -321v-199h-129z" />
    <glyph glyph-name="z.sc" horiz-adv-x="528" 
d="M45 416v104h443v-73l-274 -343h271v-104h-449v73l276 343h-267z" />
    <glyph glyph-name="ampersand.sc" horiz-adv-x="608" 
d="M39 137q0 27 9.5 48.5t25.5 39t37.5 31t47.5 25.5q-16 17 -26.5 32t-16 28t-8 25.5t-2.5 26.5q0 27 10 51.5t31 43.5t53.5 30t75.5 11q42 0 73.5 -9t51.5 -26.5t29.5 -40.5t9.5 -52q0 -25 -10 -46t-27 -37t-38 -28t-49 -25l112 -102q5 9 8.5 18.5t5.5 20t3.5 22t1.5 24.5
v12h104v-15q0 -20 -3 -39.5t-9 -39t-15 -37.5t-21 -34l104 -95h-140l-34 30q-16 -10 -34.5 -17.5t-39 -13t-43.5 -8.5t-48 -3q-57 0 -100 10t-72 29.5t-43 47t-14 62.5v0zM269 75q11 0 22.5 1t23 3.5t23 7t22.5 9.5l-141 126q-14 -8 -25.5 -15.5t-19.5 -16.5t-12.5 -19.5
t-4.5 -22.5q0 -17 8 -30.5t22.5 -23t35.5 -14.5t46 -5v0zM214 397q0 -8 2 -16t7 -16.5t13 -18.5t20 -23q19 8 32.5 16t24 16.5t16.5 19t6 22.5t-4 22t-12 17t-19.5 11t-26.5 4q-13 0 -24 -4t-19 -11t-12 -17t-4 -22v0z" />
    <glyph glyph-name="fi.sc" horiz-adv-x="816" 
d="M81 0v520h405v-98h-277v-138h223v-95h-223v-189h-128zM607 0v520h128v-520h-128z" />
    <glyph glyph-name="fl.sc" horiz-adv-x="1018" 
d="M81 0v520h405v-98h-277v-138h223v-95h-223v-189h-128zM607 0v520h128v-412h259v-108h-387z" />
    <glyph glyph-name="germandbls.sc" horiz-adv-x="1108" 
d="M40 150h127q0 -17 7.5 -30.5t21 -22.5t33.5 -14t44 -5q26 0 46 4t33 12.5t20 21.5t7 30q0 15 -8.5 25.5t-23 16.5t-32.5 10t-46 8l-28 4q-42 7 -73.5 15t-58.5 24.5t-43.5 45t-16.5 70.5q0 36 15 66.5t44.5 53t72 35t96.5 12.5q52 0 92.5 -11.5t68 -32.5t41.5 -50t14 -64
h-122q0 16 -7 29t-20 21.5t-30 13t-37 4.5q-22 0 -40 -3.5t-31 -11.5t-20 -20.5t-7 -28.5q0 -15 8.5 -26t23 -17.5t33 -10.5t45.5 -8l28 -4q43 -7 74.5 -15t59 -24t44 -44t16.5 -70q0 -39 -15.5 -70.5t-45.5 -54t-74.5 -34.5t-102.5 -12q-56 0 -99.5 11t-73.5 32.5t-45 51.5
t-15 67v0zM594 150h127q0 -17 7.5 -30.5t21 -22.5t33.5 -14t44 -5q26 0 46 4t33 12.5t20 21.5t7 30q0 15 -8.5 25.5t-23 16.5t-32.5 10t-46 8l-28 4q-42 7 -73.5 15t-58.5 24.5t-43.5 45t-16.5 70.5q0 36 15 66.5t44.5 53t72 35t96.5 12.5q52 0 92.5 -11.5t68 -32.5
t41.5 -50t14 -64h-122q0 16 -7 29t-20 21.5t-30 13t-37 4.5q-22 0 -40 -3.5t-31 -11.5t-20 -20.5t-7 -28.5q0 -15 8.5 -26t23 -17.5t33 -10.5t45.5 -8l28 -4q43 -7 74.5 -15t59 -24t44 -44t16.5 -70q0 -39 -15.5 -70.5t-45.5 -54t-74.5 -34.5t-102.5 -12q-56 0 -99.5 11
t-73.5 32.5t-45 51.5t-15 67v0z" />
    <glyph glyph-name="t_f" horiz-adv-x="648" 
d="M401 0v392h-184v-216q0 -21 2.5 -34t8.5 -21.5t17 -12.5t29 -4h40v-104h-61q-48 0 -79.5 9t-50.5 29t-27 51.5t-8 78.5v224h-90v96h90v148h129v-148h184v58q0 48 10.5 83t33 57.5t58 34t86.5 11.5h69v-100h-48q-23 0 -38 -5t-24.5 -15t-13.5 -25.5t-4 -37.5v-61h112v-96
h-112v-392h-129z" />
    <glyph glyph-name="t_t" horiz-adv-x="674" 
d="M401 168v224h-185v-216q0 -20 3.5 -33.5t11 -22t19.5 -12.5t30 -4h37v-104h-58q-48 0 -80.5 9t-52.5 29t-29 51.5t-9 78.5v224h-90v96h90v148h128v-148h185v148h128v-148h121v-96h-121v-216q0 -20 3.5 -33.5t11.5 -22t20.5 -12.5t30.5 -4h55v-104h-78q-48 0 -80.5 9
t-52.5 29t-29 51.5t-9 78.5v0z" />
    <glyph glyph-name="slashedzero" horiz-adv-x="568" 
d="M284 -12q-66 0 -114 26.5t-78 75t-44.5 113t-14.5 141.5t14.5 141.5t44.5 113t78 75t114 26.5t114 -26.5t78 -75t44.5 -113t14.5 -141.5t-14.5 -141.5t-44.5 -113t-78 -75t-114 -26.5v0zM165 344q0 -22 1 -42.5t3 -39t4.5 -35t6.5 -31.5l172 368q-7 7 -14.5 13t-16 9.5
t-18 5.5t-19.5 2q-31 0 -53.5 -15.5t-37 -47t-21.5 -78t-7 -109.5v0zM284 94q30 0 52.5 15.5t37 47t22 78.5t7.5 109q0 23 -1 43t-3 38.5t-4.5 35t-6.5 30.5l-172 -368q7 -7 14.5 -12.5t16 -9t18 -5.5t19.5 -2v0z" />
    <glyph glyph-name="zero.PPF" horiz-adv-x="605" 
d="M303 -12q-68 0 -118.5 27t-82.5 76t-47 113t-15 140t15 140t47 113t82.5 76t118.5 27t118 -27t82 -76t47 -113t15 -140t-15 -140t-47 -113t-82 -76t-118 -27v0zM303 94q32 0 56 16t40.5 48t25 78.5t8.5 107.5t-8 108t-24.5 78.5t-41 47.5t-56.5 16q-33 0 -57.5 -16
t-40.5 -47.5t-24 -78.5t-8 -108t8 -108t24.5 -78.5t41 -47.5t56.5 -16v0z" />
    <glyph glyph-name="one.PPF" horiz-adv-x="384" 
d="M65 454l-53 92l210 142h84v-688h-128v531z" />
    <glyph glyph-name="two.PPF" horiz-adv-x="550" 
d="M34 0q2 60 12 106.5t29 83t48.5 66t72.5 57.5l76 48q30 19 47.5 32t31 28t21 33.5t7.5 42.5q0 20 -5.5 38t-17.5 31.5t-31.5 21.5t-46.5 8t-48 -7.5t-35 -22.5t-22.5 -37t-9.5 -51h-124q2 61 22 104t53 69t74.5 37.5t90.5 11.5q52 0 94.5 -13.5t73 -39t46.5 -62.5t16 -83
q0 -41 -11 -73t-31 -57.5t-46.5 -46.5t-63.5 -44l-75 -48q-30 -20 -48.5 -37t-29 -32t-14.5 -29t-6 -31h328v-104h-478z" />
    <glyph glyph-name="three.PPF" horiz-adv-x="568" 
d="M29 208h126q0 -29 8.5 -52t25 -38.5t39.5 -23.5t51 -8q27 0 50 7.5t39.5 22t25.5 35t9 44.5t-9 44t-25.5 34.5t-39.5 22.5t-50 8h-50v102h50q23 0 42.5 7.5t33.5 21t22 32t8 40.5q0 21 -7.5 39t-22 30.5t-34 19t-42.5 6.5t-42.5 -7t-34 -20t-22 -33t-7.5 -46h-118
q0 48 16 86.5t46 64.5t71 39.5t91 13.5q51 0 93 -13t72 -37.5t46.5 -59.5t16.5 -77q0 -25 -7.5 -49t-21.5 -45t-33 -36.5t-41 -22.5v-4q28 -7 51.5 -22t41 -37t27 -49.5t9.5 -57.5q0 -47 -19 -85t-53.5 -64t-81 -39.5t-100.5 -13.5q-56 0 -102 13.5t-79 41t-51 69t-18 96.5
v0z" />
    <glyph glyph-name="four.PPF" horiz-adv-x="576" 
d="M16 150v82l334 456h107v-434h98v-104h-98v-150h-128v150h-313zM146 254h183v247z" />
    <glyph glyph-name="five.PPF" horiz-adv-x="555" 
d="M30 184h126q3 -18 11.5 -35t23 -30.5t35.5 -22t48 -8.5q24 0 45.5 8.5t38 24.5t26 39.5t9.5 52.5t-9 53t-25 40.5t-37.5 25t-45.5 8.5q-20 0 -36 -4.5t-29 -13t-23.5 -19t-20.5 -24.5l-113 10l24 399h403v-106h-290l-11 -183h4q9 9 21 16.5t26.5 13t32.5 8.5t38 3
q43 0 82.5 -13.5t70 -41t48.5 -69.5t18 -96q0 -56 -19.5 -100t-53.5 -73t-78 -44t-93 -15q-57 0 -101.5 14t-75.5 39.5t-48.5 61.5t-21.5 81v0z" />
    <glyph glyph-name="six.PPF" horiz-adv-x="585" 
d="M40 326q0 99 20.5 171t57 117t85 65.5t106.5 20.5q52 0 93 -13.5t69 -38.5t43.5 -59.5t20.5 -76.5h-125q-3 19 -10 35t-19.5 28t-30.5 18.5t-41 6.5q-28 0 -51 -11t-41.5 -37.5t-30 -71.5t-13.5 -111q10 16 25.5 29t36 22.5t44.5 14.5t50 5q45 0 85 -14t71 -42.5
t48.5 -70.5t17.5 -95q0 -54 -19.5 -97.5t-54 -73t-78.5 -44.5t-93 -15q-58 0 -106 17.5t-84 56.5t-56 105t-20 159v0zM305 340q-27 0 -49.5 -9.5t-38 -26.5t-24 -41t-8.5 -52q0 -26 8.5 -49t24.5 -39.5t37.5 -25.5t47.5 -9t48 8.5t38 25t24.5 40t8.5 53.5q0 27 -8.5 50
t-24.5 40t-37.5 26t-46.5 9v0z" />
    <glyph glyph-name="seven.PPF" horiz-adv-x="489" 
d="M66 0l271 577h-319v111h458v-79l-278 -609h-132z" />
    <glyph glyph-name="eight.PPF" horiz-adv-x="578" 
d="M33 186q0 32 10 60t27.5 51t41 38t50.5 21v4q-22 7 -41 21t-33 34.5t-21.5 45t-7.5 50.5q0 43 16.5 78t47.5 60t73 38t93 13t93.5 -13t73.5 -38t47.5 -60t16.5 -78q0 -26 -7.5 -50t-22 -44.5t-33.5 -35t-41 -21.5v-4q27 -6 50.5 -21t41.5 -38t28 -51t10 -60
q0 -47 -18.5 -84t-52.5 -62.5t-81.5 -38.5t-104.5 -13t-104.5 13t-81.5 38.5t-52 62.5t-18 84v0zM163 195q0 -24 9 -44.5t25.5 -35t40 -22t51.5 -7.5t51.5 7.5t40 22t25.5 35t9 44.5t-9 44t-26 34.5t-40.5 22.5t-50.5 8t-50.5 -8t-40.5 -22.5t-26 -34.5t-9 -44v0zM289 406
q23 0 43 7t34.5 20.5t22.5 32t8 40.5t-8 40t-22.5 31t-34.5 20t-43 7t-43 -7t-34.5 -20t-22.5 -31t-8 -40t8 -40.5t22.5 -32t34.5 -20.5t43 -7v0z" />
    <glyph glyph-name="nine.PPF" horiz-adv-x="585" 
d="M541 364q0 -101 -20 -173.5t-56 -117t-84.5 -65t-107.5 -20.5q-52 0 -93 13.5t-70 39t-45 59.5t-19 76h125q2 -19 9.5 -35t20.5 -28t31 -18.5t41 -6.5q29 0 52 11t40.5 37.5t28.5 71.5t13 111q-9 -16 -25 -29t-36 -22.5t-44 -14.5t-50 -5q-45 0 -85 14t-71 42.5
t-48.5 70.5t-17.5 95q0 54 19.5 97.5t54 73t78.5 44.5t93 15q59 0 106.5 -17t83.5 -56t56 -104.5t20 -158.5v0zM276 348q27 0 49.5 9.5t38 26.5t24 41t8.5 52q0 26 -8.5 48.5t-24.5 39.5t-37.5 26t-46.5 9q-26 0 -48 -8.5t-38 -25t-25 -40.5t-9 -53q0 -27 9 -50t25 -40
t37 -26t46 -9v0z" />
    <glyph glyph-name="slashedzero.PPF" horiz-adv-x="605" 
d="M303 -12q-68 0 -118.5 27t-82.5 76t-47 113t-15 140t15 140t47 113t82.5 76t118.5 27t118 -27t82 -76t47 -113t15 -140t-15 -140t-47 -113t-82 -76t-118 -27v0zM173 344q0 -24 1.5 -46.5t4 -42.5t6.5 -37.5t9 -32.5l178 383q-7 6 -15 11t-16.5 8.5t-18 5t-19.5 1.5
q-33 0 -57.5 -16t-40.5 -47.5t-24 -78.5t-8 -108v0zM303 94q32 0 56 16t40.5 48t25 78.5t8.5 107.5q0 24 -1.5 46.5t-4 42t-6.5 37t-9 32.5l-179 -382q7 -7 15 -12t16.5 -8t18 -4.5t20.5 -1.5v0z" />
    <glyph glyph-name="zero.sc" horiz-adv-x="504" 
d="M252 -12q-58 0 -100 20.5t-68 57.5t-38.5 86.5t-12.5 107.5t12.5 107.5t38.5 86.5t68 57.5t100 20.5t100 -20.5t68 -57.5t38.5 -86.5t12.5 -107.5t-12.5 -107.5t-38.5 -86.5t-68 -57.5t-100 -20.5v0zM252 84q22 0 39 11t27.5 33t16 55t5.5 77q0 45 -5 77.5t-16 54.5
t-27.5 33t-39.5 11t-39.5 -11t-27.5 -33t-16 -54.5t-5 -77.5q0 -44 5 -77t16 -55t27.5 -33t39.5 -11v0z" />
    <glyph glyph-name="one.sc" horiz-adv-x="504" 
d="M106 308l-49 86l199 126h81v-422h125v-98h-387v98h135v272z" />
    <glyph glyph-name="two.sc" horiz-adv-x="504" 
d="M45 0q1 52 10 90.5t25.5 67.5t41.5 50.5t61 40.5l70 36q21 11 35 20t23 19t14 22t5 27q0 13 -4.5 24t-14 20t-24 14t-33.5 5q-20 0 -35 -5t-26 -15t-16.5 -25.5t-6.5 -35.5h-119q2 47 19 81t45 55t64 31t77 10q43 0 79.5 -10.5t63 -30.5t40.5 -49t14 -64
q0 -29 -7.5 -52.5t-22 -43t-36.5 -36.5t-53 -33l-69 -37q-23 -13 -37.5 -23t-23 -18.5t-12.5 -17t-5 -19.5h266v-98h-408z" />
    <glyph glyph-name="three.sc" horiz-adv-x="504" 
d="M39 158h119q0 -22 6.5 -38t19 -26.5t28.5 -15.5t36 -5t36.5 5t29 14.5t19 24.5t6.5 35q0 18 -6.5 32.5t-18.5 24.5t-28.5 15t-36.5 5h-39v81h40q17 0 31 5t24 14.5t15.5 22t5.5 28.5q0 15 -5 27.5t-15 21.5t-25 14t-33 5q-17 0 -31 -5t-24.5 -14t-16.5 -22.5t-6 -30.5
h-111q0 36 14 65.5t39.5 49.5t60 30.5t75.5 10.5q45 0 81 -10t61.5 -28.5t39 -46.5t13.5 -63q0 -19 -5 -36.5t-15 -32t-25 -25.5t-33 -17v-4q23 -7 41 -19t30.5 -28.5t19.5 -37t7 -44.5q0 -37 -16 -65.5t-45.5 -48t-69 -29t-86.5 -9.5q-48 0 -86.5 10t-65 31t-41 53
t-14.5 76v0z" />
    <glyph glyph-name="four.sc" horiz-adv-x="504" 
d="M26 99v77l267 344h107v-326h73v-95h-73v-99h-125v99h-249zM143 194h132v173z" />
    <glyph glyph-name="five.sc" horiz-adv-x="504" 
d="M43 140h123q2 -14 8.5 -25.5t17 -20t25.5 -13t35 -4.5q19 0 34.5 5.5t27 16.5t18 27.5t6.5 37.5q0 20 -6 36t-17.5 27t-27 16.5t-33.5 5.5q-14 0 -26.5 -3.5t-22 -9.5t-17.5 -14.5t-14 -18.5l-115 11l18 306h350v-100h-246l-8 -120h4q8 7 17.5 13t22 11t29 7.5t37.5 2.5
q33 0 64 -9.5t56.5 -29.5t40.5 -52.5t15 -76.5q0 -43 -16 -76.5t-44.5 -56t-65.5 -34t-79 -11.5q-50 0 -87.5 10t-63 30t-40.5 48t-20 64v0z" />
    <glyph glyph-name="six.sc" horiz-adv-x="504" 
d="M266 443q-20 0 -36.5 -7.5t-29.5 -25t-21 -48.5t-10 -77q8 11 20.5 20t28.5 15.5t34 10t37 3.5q34 0 65.5 -9.5t56.5 -29.5t39.5 -52.5t14.5 -76.5q0 -42 -16 -75.5t-44.5 -56.5t-65 -34.5t-77.5 -11.5q-50 0 -90 13.5t-69.5 43.5t-45.5 80.5t-16 122.5q0 78 17.5 133
t48.5 88t71.5 48t87.5 15q45 0 79 -11t57 -31t36 -47t17 -59h-117q-2 12 -7 22.5t-13.5 19t-21.5 13t-30 4.5v0zM260 247q-18 0 -33.5 -5.5t-27 -16.5t-17.5 -27t-6 -36t6 -35.5t17.5 -26t27 -16t33.5 -5.5q19 0 34.5 5.5t26.5 16.5t17 27t6 36t-6 35.5t-17.5 26t-27 16
t-33.5 5.5v0z" />
    <glyph glyph-name="seven.sc" horiz-adv-x="504" 
d="M105 0l220 412h-281v108h422v-71l-228 -449h-133z" />
    <glyph glyph-name="eight.sc" horiz-adv-x="504" 
d="M57 384q0 35 14 62.5t40 46.5t62 29t79 10t79 -10t62 -29t40 -46.5t14 -62.5q0 -19 -5 -36t-15 -32t-25 -26t-33 -17v-4q23 -7 41 -19t30.5 -28.5t19.5 -37t7 -44.5q0 -37 -15.5 -65.5t-44.5 -48t-68 -29t-87 -9.5t-87 9.5t-68 29t-44.5 48t-15.5 65.5q0 24 7 44.5
t19.5 37t30.5 28.5t41 19v4q-18 6 -33 17t-25 26t-15 32t-5 36v0zM162 150q0 -18 6.5 -32.5t19 -24.5t29 -15t35.5 -5t35.5 5t29 15t19 24.5t6.5 32.5q0 19 -7 33.5t-19 25t-28.5 15.5t-35.5 5t-35.5 -5t-28.5 -15.5t-19 -25t-7 -33.5v0zM174 380q0 -16 5.5 -29t16.5 -22.5
t25 -14t31 -4.5t31 4.5t25 14t16.5 22.5t5.5 29t-6 29t-16.5 22t-24.5 14t-31 5t-31 -5t-24.5 -14t-16.5 -22t-6 -29v0z" />
    <glyph glyph-name="nine.sc" horiz-adv-x="504" 
d="M240 77q20 0 36 7.5t28.5 25t20 48.5t9.5 77q-8 -11 -20.5 -20t-29 -15.5t-34.5 -10t-36 -3.5q-34 0 -65.5 9.5t-57 29.5t-40 52.5t-14.5 76.5q0 42 16 75.5t44.5 56.5t65 34.5t77.5 11.5q50 0 90 -13.5t70 -43.5t46 -80.5t16 -122.5q0 -78 -17 -133t-47.5 -88t-70 -48
t-87.5 -15q-45 0 -79.5 11t-58.5 31t-37.5 47t-17.5 59h117q2 -12 7.5 -22.5t15 -19t23 -13t30.5 -4.5v0zM242 273q19 0 34 5.5t26.5 16t17.5 26.5t6 37q0 20 -6 35.5t-17.5 26t-26.5 16t-34 5.5t-34 -5.5t-26 -16.5t-16.5 -27t-5.5 -36t6 -35.5t16.5 -26t26 -16t33.5 -5.5
v0z" />
    <glyph glyph-name="slashedzero.sc" horiz-adv-x="504" 
d="M252 -12q-58 0 -100 20.5t-68 57.5t-38.5 86.5t-12.5 107.5t12.5 107.5t38.5 86.5t68 57.5t100 20.5t100 -20.5t68 -57.5t38.5 -86.5t12.5 -107.5t-12.5 -107.5t-38.5 -86.5t-68 -57.5t-100 -20.5v0zM164 260q0 -15 0.5 -28.5t1.5 -25.5t3 -23t4 -21l124 259
q-4 4 -9.5 6.5t-11 4.5t-12 3t-12.5 1q-23 0 -39.5 -11t-27.5 -33t-16 -54.5t-5 -77.5v0zM252 84q22 0 39 11t27.5 33t16 55t5.5 77q0 15 -0.5 28.5t-1.5 25.5t-3 23t-4 21l-124 -259q5 -4 10 -6.5t10.5 -4.5t11.5 -3t13 -1v0z" />
    <glyph glyph-name="zero.scppf" horiz-adv-x="542" 
d="M271 -12q-60 0 -104 21t-71.5 58.5t-40.5 86.5t-13 106t13 106t40.5 86.5t71.5 58.5t104 21t104 -21t71.5 -58.5t40.5 -86.5t13 -106t-13 -106t-40.5 -86.5t-71.5 -58.5t-104 -21v0zM271 84q24 0 42.5 11.5t30.5 34t18.5 55.5t6.5 75q0 43 -6 76t-18.5 55t-30.5 33.5
t-43 11.5q-24 0 -42.5 -11.5t-31 -34t-18.5 -55.5t-6 -75t6 -75t18.5 -55.5t31 -34t42.5 -11.5v0z" />
    <glyph glyph-name="one.scppf" horiz-adv-x="355" 
d="M59 317l-49 86l184 117h80v-520h-126v371z" />
    <glyph glyph-name="two.scppf" horiz-adv-x="497" 
d="M36 0q1 51 11 90t27.5 68t43.5 50.5t62 40.5l70 36q22 12 36 20.5t24.5 18.5t16 22t5.5 27q0 13 -5 24t-15 20t-25.5 14t-35.5 5q-21 0 -37.5 -5t-27.5 -15t-17.5 -25.5t-7.5 -35.5h-119q2 47 19.5 81t46.5 55t66 31t79 10q45 0 82 -10.5t64 -30.5t41.5 -49t14.5 -64
q0 -29 -8 -52.5t-23.5 -43t-38.5 -36.5t-54 -33l-70 -37q-23 -13 -37.5 -23t-23.5 -18.5t-13 -17t-5 -19.5h274v-98h-420z" />
    <glyph glyph-name="three.scppf" horiz-adv-x="492" 
d="M26 158h119q0 -22 7 -38t20 -26.5t30.5 -15.5t38.5 -5t38.5 5t30.5 14.5t20 24.5t7 35q0 18 -7 32.5t-20 24.5t-30.5 15t-38.5 5h-38v81h40q18 0 33 5t25.5 14.5t16.5 22t6 28.5q0 15 -5.5 27.5t-16 21.5t-26 14t-35.5 5q-18 0 -33.5 -5t-27 -14t-17.5 -22.5t-6 -30.5
h-111q0 36 14.5 65.5t40.5 49.5t62 30.5t78 10.5q46 0 83 -9.5t63 -28.5t40 -47t14 -63q0 -19 -5 -36.5t-15 -32t-25 -25.5t-33 -17v-4q23 -7 41 -19t30.5 -28.5t19.5 -37t7 -44.5q0 -37 -16.5 -65.5t-46.5 -48t-70.5 -29t-88.5 -9.5q-50 0 -89 10t-67 31t-42.5 53t-14.5 76
v0z" />
    <glyph glyph-name="four.scppf" horiz-adv-x="500" 
d="M20 99v77l274 344h107v-326h75v-95h-75v-99h-125v99h-256zM138 194h138v176z" />
    <glyph glyph-name="five.scppf" horiz-adv-x="494" 
d="M37 140h124q3 -14 9.5 -25.5t18 -20t27 -13t35.5 -4.5q19 0 35.5 5.5t29 16.5t19.5 27.5t7 37.5q0 20 -7 36t-19.5 27t-28.5 16.5t-34 5.5q-15 0 -28 -3.5t-23.5 -9.5t-19 -14.5t-15.5 -18.5l-114 11l17 306h362v-100h-258l-8 -120h4q8 7 19 13t24.5 11t31 7.5t37.5 2.5
q34 0 66.5 -9.5t58.5 -29.5t41.5 -52.5t15.5 -76.5q0 -43 -16.5 -76.5t-45.5 -56t-67.5 -34t-81.5 -11.5q-51 0 -89.5 10t-65 30t-41.5 48t-20 64v0z" />
    <glyph glyph-name="six.scppf" horiz-adv-x="516" 
d="M275 443q-22 0 -39.5 -7.5t-31.5 -25t-22.5 -48.5t-11.5 -77q8 11 21.5 20t31 15.5t37 10t38.5 3.5q36 0 69 -9.5t59 -29.5t41 -52.5t15 -76.5q0 -42 -16.5 -75.5t-46 -56.5t-68 -34.5t-80.5 -11.5q-52 0 -93.5 13.5t-72 43.5t-47 80.5t-16.5 122.5q0 78 18 133t50 88
t74 48t91 15q47 0 82.5 -11t59.5 -31t37.5 -47t17.5 -59h-118q-2 13 -7.5 23t-14.5 18.5t-23.5 13t-33.5 4.5v0zM269 247q-20 0 -36.5 -5.5t-28.5 -16.5t-19 -27t-7 -36q0 -19 7 -34.5t19.5 -26.5t29 -16.5t35.5 -5.5q20 0 37 5.5t29 16.5t19 27t7 36q0 19 -7 35t-19 26.5
t-29 16t-37 5.5v0z" />
    <glyph glyph-name="seven.scppf" horiz-adv-x="440" 
d="M64 0l218 412h-260v108h400v-71l-227 -449h-131z" />
    <glyph glyph-name="eight.scppf" horiz-adv-x="506" 
d="M32 140q0 24 7 44.5t20 37t31 28.5t41 19v4q-19 6 -33.5 17t-24.5 26t-15 32t-5 36q0 35 14.5 62.5t41 46.5t63 29t81.5 10q44 0 81 -10t63.5 -29t41 -46.5t14.5 -62.5q0 -19 -5 -36t-15 -32t-25 -26t-33 -17v-4q23 -7 41 -19t30.5 -28.5t19.5 -37t7 -44.5
q0 -37 -16 -65.5t-45 -48t-69.5 -29t-89.5 -9.5t-89.5 9.5t-70 29t-45.5 48t-16 65.5v0zM157 150q0 -18 7 -32.5t20 -24.5t30.5 -15t38.5 -5t38.5 5t30.5 15t20 24.5t7 32.5q0 19 -7 33.5t-20.5 25t-31 15.5t-37.5 5t-37.5 -5t-31 -15.5t-20.5 -25t-7 -33.5v0zM169 380
q0 -16 6 -29t17.5 -22.5t27 -14t33.5 -4.5t33.5 4.5t26.5 14t17 22.5t6 29t-6 29t-17 22t-26.5 14t-33.5 5t-33.5 -5t-27 -14t-17.5 -22t-6 -29v0z" />
    <glyph glyph-name="nine.scppf" horiz-adv-x="518" 
d="M247 77q22 0 39.5 7t30.5 25t21 49t10 77q-8 -11 -21.5 -20t-30.5 -15.5t-36.5 -10t-38.5 -3.5q-36 0 -69 9.5t-59 29.5t-41 52.5t-15 76.5q0 42 16.5 75.5t46 56.5t67.5 34.5t80 11.5q52 0 93.5 -13.5t72 -43.5t47 -80.5t16.5 -122.5q0 -78 -17.5 -133t-48.5 -88
t-72 -48t-91 -15q-47 0 -83 11t-61 31t-39 47t-18 59h118q2 -12 8.5 -22.5t16.5 -19t25 -13t33 -4.5v0zM249 273q20 0 36.5 5.5t29 16.5t19.5 27t7 36q0 19 -7 35t-19.5 26.5t-29 16t-36.5 5.5t-36.5 -5.5t-28.5 -16.5t-19 -27t-7 -36q0 -19 7 -35t19 -26.5t28.5 -16
t36.5 -5.5v0z" />
    <glyph glyph-name="slashedzero.scppf" horiz-adv-x="542" 
d="M271 -12q-60 0 -104 21t-71.5 58.5t-40.5 86.5t-13 106t13 106t40.5 86.5t71.5 58.5t104 21t104 -21t71.5 -58.5t40.5 -86.5t13 -106t-13 -106t-40.5 -86.5t-71.5 -58.5t-104 -21v0zM271 84q24 0 42.5 11.5t30.5 34t18.5 55.5t6.5 75q0 17 -1 32t-3 28.5t-4.5 25.5
t-6.5 22l-129 -271q5 -3 10 -5.5t11 -4t12 -2.5t13 -1v0zM173 260q0 -16 1 -31t2.5 -28.5t4.5 -25.5t6 -23l129 271q-5 3 -10 5.5t-11 4t-12 2.5t-12 1q-24 0 -42.5 -11.5t-31 -34t-18.5 -55.5t-6 -75v0z" />
    <glyph glyph-name="zero.TOSF" horiz-adv-x="568" 
d="M33 244q0 55 17 102t50 81.5t80 53.5t104 19q59 0 106 -19t79.5 -53.5t49 -81t16.5 -102.5q0 -55 -17 -102t-50 -81.5t-80 -53.5t-104 -19q-59 0 -106 19t-79.5 53.5t-49 81t-16.5 102.5v0zM162 244q0 -36 9 -65t25 -49.5t38.5 -31t49.5 -10.5t49.5 11t38.5 31.5t25 49.5
t9 64q0 37 -9 66.5t-25 49.5t-38.5 30t-49.5 10t-49.5 -10.5t-38.5 -31t-25 -49.5t-9 -65v0z" />
    <glyph glyph-name="one.TOSF" horiz-adv-x="568" 
d="M118 252l-51 86l217 150h82v-390h161v-98h-461v98h176v239z" />
    <glyph glyph-name="two.TOSF" horiz-adv-x="568" 
d="M47 0q0 55 13.5 96.5t37.5 70.5t55.5 48t71.5 32l55 18q35 12 48 16.5t26.5 13t21.5 20.5t8 29q0 12 -5 23.5t-16.5 20.5t-30 14.5t-44.5 5.5t-46.5 -6t-35 -18.5t-22.5 -30t-9 -39.5h-122q1 49 21 85t53.5 58.5t74.5 32.5t86 10q50 0 91 -10.5t70.5 -30.5t45.5 -48.5
t16 -64.5q0 -38 -13.5 -65t-36 -44t-47 -27t-65.5 -24l-55 -18q-21 -7 -38 -15t-30 -17t-20.5 -19t-8.5 -21h312v-96h-462z" />
    <glyph glyph-name="three.TOSF" horiz-adv-x="568" 
d="M33 8h126q0 -31 9 -54t24.5 -38t37 -22.5t46.5 -7.5q26 0 47.5 7t37 21t24 34.5t8.5 46.5q0 25 -9 45t-25 34.5t-37 22t-46 7.5h-54v102h54q21 0 39.5 7t32.5 20.5t22 32t8 41.5q0 22 -8 39.5t-22 30t-32.5 19t-39.5 6.5t-39.5 -6.5t-32.5 -20t-22 -33.5t-8 -46h-117
q0 48 16.5 86t46 64.5t69.5 40t87 13.5q49 0 90.5 -13t71.5 -38t46.5 -59.5t16.5 -76.5q0 -25 -7.5 -49t-21.5 -44.5t-32.5 -36t-38.5 -23.5v-4q27 -8 49.5 -24t38.5 -38t25 -49.5t9 -58.5q0 -47 -18.5 -84t-52 -62.5t-78.5 -38.5t-98 -13q-55 0 -99.5 13t-77 40t-49.5 68.5
t-17 98.5v0z" />
    <glyph glyph-name="four.TOSF" horiz-adv-x="568" 
d="M25 -24v82l322 437h109v-415h87v-104h-87v-176h-128v176h-303zM152 80h176v235z" />
    <glyph glyph-name="five.TOSF" horiz-adv-x="568" 
d="M49 -16h126q3 -19 11.5 -36t22.5 -30.5t34 -21.5t46 -8q23 0 44 8t36.5 24.5t24.5 40t9 53.5q0 29 -8.5 52.5t-23.5 40t-36 25t-46 8.5q-18 0 -33 -4.5t-27.5 -13t-22.5 -19.5t-20 -25l-117 13l22 397h403v-106h-290l-11 -179h5q9 8 21 15t26.5 12t31.5 7.5t36 2.5
q47 0 87.5 -14.5t70 -43t45.5 -70t16 -92.5q0 -57 -19 -101t-52.5 -73t-77.5 -43.5t-93 -14.5q-55 0 -98.5 14t-73.5 39.5t-47.5 61.5t-21.5 81v0z" />
    <glyph glyph-name="six.TOSF" horiz-adv-x="568" 
d="M37 328q0 100 21.5 172t58.5 116t85 64t102 20q51 0 89.5 -13.5t65 -37.5t41.5 -58t20 -75h-125q-3 18 -9 33t-17 26.5t-27.5 18t-39.5 6.5q-25 0 -47 -12t-40.5 -39t-30 -71.5t-14.5 -107.5q10 16 25.5 29t36 22.5t43 14t46.5 4.5q43 0 82 -14t69 -42.5t47 -70.5t17 -95
q0 -54 -19.5 -97.5t-53 -73t-77 -44.5t-90.5 -15q-56 0 -102.5 18t-82 58.5t-55 106t-19.5 157.5v0zM297 340q-25 0 -46.5 -9t-37 -25.5t-24 -39.5t-8.5 -51t8 -51.5t23.5 -40.5t36 -26t44.5 -9t45 8.5t36.5 25t24 40.5t8.5 54q0 28 -8.5 51t-23.5 39t-35 25t-43 9v0z" />
    <glyph glyph-name="seven.TOSF" horiz-adv-x="568" 
d="M122 -200l271 577h-348v111h486v-79l-277 -609h-132z" />
    <glyph glyph-name="eight.TOSF" horiz-adv-x="568" 
d="M35 186q0 31 9 58.5t25 49.5t38.5 38t49.5 24v4q-21 7 -39.5 22t-32 35.5t-21 44.5t-7.5 49q0 43 16.5 78t46.5 60t72 38t92 13t92 -13t72 -38t46.5 -60t16.5 -78q0 -25 -7.5 -49t-21 -44.5t-32 -35.5t-39.5 -22v-4q27 -8 49.5 -24t38.5 -38t25 -49.5t9 -58.5
q0 -47 -18 -84t-51 -62.5t-78.5 -38.5t-101.5 -13t-101.5 13t-78.5 38.5t-51 62.5t-18 84v0zM165 195q0 -26 9 -46.5t25 -34.5t37.5 -21t47.5 -7t47.5 7t37.5 21t25 34.5t9 46.5q0 24 -9 44.5t-25 35t-38 22t-47 7.5t-47 -7.5t-38 -22t-25 -35t-9 -44.5v0zM284 406
q22 0 41 7t33 20t22 32t8 42q0 22 -8 40t-22 31t-33 19.5t-41 6.5t-41 -6.5t-33 -19.5t-22 -31t-8 -40q0 -23 8 -42t22 -32t33 -20t41 -7v0z" />
    <glyph glyph-name="nine.TOSF" horiz-adv-x="568" 
d="M529 160q0 -101 -19 -173t-54 -115.5t-82 -63.5t-106 -20q-51 0 -90.5 13t-66.5 37.5t-43 58.5t-21 75h124q3 -18 9.5 -33t18.5 -26.5t29.5 -18t41.5 -6.5q29 0 51 12t38 39t25.5 71.5t11.5 107.5q-10 -16 -25.5 -29t-36 -22t-42.5 -14t-45 -5q-44 0 -83 14t-69 42.5
t-47 70.5t-17 95q0 54 19 97.5t52.5 73t77 44.5t90.5 15q56 0 102.5 -18t82 -58.5t55 -106t19.5 -157.5v0zM269 148q25 0 46.5 9t37 26t24 41t8.5 53q0 26 -8 48.5t-23.5 39.5t-36 26t-44.5 9t-44.5 -8.5t-36.5 -25t-24.5 -40.5t-8.5 -54q0 -28 8.5 -51t23.5 -39t35 -25
t43 -9v0z" />
    <glyph glyph-name="slashedzero.TOSF" horiz-adv-x="568" 
d="M33 244q0 55 17 102t50 81.5t80 53.5t104 19q59 0 106 -19t79.5 -53.5t49 -81t16.5 -102.5q0 -55 -17 -102t-50 -81.5t-80 -53.5t-104 -19q-59 0 -106 19t-79.5 53.5t-49 81t-16.5 102.5v0zM162 244q0 -13 1 -25t3.5 -23.5t6 -21.5t7.5 -19l167 227q-7 4 -14.5 7.5
t-15.5 6t-16 3.5t-17 1q-27 0 -49.5 -10.5t-38.5 -31t-25 -49.5t-9 -65v0zM406 244q0 13 -1 25t-3.5 23.5t-6 21.5t-7.5 19l-167 -227q7 -4 14 -7.5t15 -6t16.5 -3.5t17.5 -1q27 0 49.5 11t38.5 31.5t25 49.5t9 64v0z" />
    <glyph glyph-name="zero.oldstyle" horiz-adv-x="610" 
d="M36 244q0 54 18.5 101t54 82t85.5 54t111 19q62 0 112 -19t85 -54t53 -81.5t18 -101.5t-18.5 -101.5t-54 -81.5t-85 -54t-110.5 -19q-62 0 -112.5 19t-85.5 54t-53 81.5t-18 101.5v0zM165 244q0 -36 10.5 -65t30 -49.5t45 -31t54.5 -10.5t54.5 10.5t45 31t30 49.5
t10.5 65q0 37 -10.5 66.5t-30 49.5t-45 30t-54.5 10t-54.5 -10.5t-45 -31t-30 -49.5t-10.5 -65v0z" />
    <glyph glyph-name="one.oldstyle" horiz-adv-x="386" 
d="M65 254l-53 92l209 142h85v-488h-128v331z" />
    <glyph glyph-name="two.oldstyle" horiz-adv-x="523" 
d="M34 0q0 55 13 96.5t36 70t54 47.5t71 33l50 18q29 10 44 16t27.5 14.5t19.5 20t7 28.5q0 12 -4.5 23t-15 20.5t-28 15t-41.5 5.5t-42.5 -6t-31.5 -18t-20 -29.5t-9 -40.5h-122q1 49 20.5 85t51.5 58.5t71.5 32.5t83.5 10q48 0 87.5 -11t68 -31.5t43.5 -49t15 -64.5
q0 -37 -13 -63t-34 -43t-44 -27t-64 -25l-51 -18q-20 -7 -36.5 -15t-29 -17t-19.5 -19t-8 -21h295v-96h-445z" />
    <glyph glyph-name="three.oldstyle" horiz-adv-x="557" 
d="M20 8h126q0 -29 9 -52t25.5 -38.5t39 -23.5t50.5 -8q27 0 50 7.5t39.5 22t25.5 35t9 44.5t-9 44t-25.5 34.5t-39.5 22.5t-50 8h-50v102h50q23 0 42.5 7.5t33.5 21t22 32t8 40.5q0 21 -7.5 39t-22 30.5t-34 19t-42.5 6.5t-42.5 -7t-33.5 -20t-21.5 -33t-7.5 -46h-119
q0 48 16 86.5t46 64.5t71 39.5t91 13.5q51 0 93 -13t72.5 -37.5t47 -59.5t16.5 -77q0 -25 -8 -49t-22 -45t-33 -36.5t-41 -22.5v-4q28 -7 52 -22t41.5 -37t27 -49.5t9.5 -57.5q0 -47 -19 -85t-53.5 -64t-81 -39.5t-101.5 -13.5q-56 0 -102 13.5t-79 41t-51 69.5t-18 96v0z
" />
    <glyph glyph-name="four.oldstyle" horiz-adv-x="567" 
d="M18 -24v82l335 437h106v-415h98v-104h-98v-176h-128v176h-313zM150 80h181v232z" />
    <glyph glyph-name="five.oldstyle" horiz-adv-x="537" 
d="M30 -16h126q3 -18 11.5 -35t23 -30.5t35.5 -22t48 -8.5q24 0 45.5 8.5t38 24.5t26 39.5t9.5 52.5t-9 53t-25 40.5t-37.5 25t-45.5 8.5q-20 0 -36 -4.5t-29 -13t-23.5 -19t-20.5 -24.5l-113 10l24 399h403v-106h-290l-11 -183h4q9 9 21 16.5t26.5 13t32.5 8.5t38 3
q43 0 82.5 -13.5t70 -41t48.5 -69.5t18 -96q0 -56 -19.5 -100t-53.5 -73t-78 -44t-93 -15q-57 0 -101.5 14t-75.5 39.5t-48.5 61.5t-21.5 81v0z" />
    <glyph glyph-name="six.oldstyle" horiz-adv-x="585" 
d="M40 326q0 99 20.5 171t57 117t85 65.5t106.5 20.5q52 0 93 -13.5t69 -38.5t43.5 -59.5t20.5 -76.5h-125q-3 19 -10 35t-19.5 28t-30.5 18.5t-41 6.5q-28 0 -51 -11t-41.5 -37.5t-30 -71.5t-13.5 -111q10 16 25.5 29t36 22.5t44.5 14.5t50 5q45 0 85 -14t71 -42.5
t48.5 -70.5t17.5 -95q0 -54 -19.5 -97.5t-54 -73t-78.5 -44.5t-93 -15q-58 0 -106 17.5t-84 56.5t-56 105t-20 159v0zM305 340q-27 0 -49.5 -9.5t-38 -26.5t-24 -41t-8.5 -52q0 -26 8.5 -49t24.5 -39.5t37.5 -25.5t47.5 -9t48 8.5t38 25t24.5 40t8.5 53.5q0 27 -8.5 50
t-24.5 40t-37.5 26t-46.5 9v0z" />
    <glyph glyph-name="seven.oldstyle" horiz-adv-x="489" 
d="M64 -200l271 577h-319v111h457v-79l-277 -609h-132z" />
    <glyph glyph-name="eight.oldstyle" horiz-adv-x="574" 
d="M30 186q0 32 10 60t28 51t41.5 38t50.5 21v4q-22 7 -41 21t-33 34.5t-21.5 45t-7.5 50.5q0 43 16.5 78t47.5 60t73 38t93 13t93 -13t73 -38t47.5 -60t16.5 -78q0 -25 -7.5 -49.5t-21.5 -45t-33 -35t-41 -21.5v-4q27 -6 50.5 -21t41.5 -38t28 -51t10 -60q0 -47 -18.5 -84
t-52.5 -62.5t-81.5 -38.5t-104.5 -13t-104.5 13t-81.5 38.5t-52.5 62.5t-18.5 84v0zM161 195q0 -24 9 -44.5t25.5 -35t40 -22t51.5 -7.5t51.5 7.5t40 22t25.5 35t9 44.5t-9 44t-26 34.5t-40.5 22.5t-50.5 8t-50.5 -8t-40.5 -22.5t-26 -34.5t-9 -44v0zM287 406q23 0 43 7
t34.5 20.5t22.5 32t8 40.5t-8 40t-22.5 31t-34.5 20t-43 7t-43 -7t-34.5 -20t-22.5 -31t-8 -40t8 -40.5t22.5 -32t34.5 -20.5t43 -7v0z" />
    <glyph glyph-name="nine.oldstyle" horiz-adv-x="581" 
d="M541 164q0 -101 -20 -173.5t-56 -117t-84.5 -65t-107.5 -20.5q-52 0 -93 13.5t-70 39t-45 59.5t-19 76h125q2 -19 9.5 -35t20.5 -28t31 -18.5t41 -6.5q29 0 52 11t40.5 37.5t28.5 71.5t13 111q-9 -16 -25 -29t-36 -22.5t-44 -14.5t-50 -5q-45 0 -85 14t-71 42.5
t-48.5 70.5t-17.5 95q0 54 19.5 97.5t54 73t78.5 44.5t93 15q59 0 106.5 -17t83.5 -56t56 -104.5t20 -158.5v0zM276 148q27 0 49.5 9.5t38 26.5t24 41t8.5 52q0 26 -8.5 48.5t-24.5 39.5t-37.5 26t-46.5 9q-26 0 -48 -8.5t-38 -25t-25 -40.5t-9 -53q0 -27 9 -50t25 -40
t37 -26t46 -9v0z" />
    <glyph glyph-name="slashedzero.oldstyle" horiz-adv-x="610" 
d="M36 244q0 54 18.5 101t54 82t85.5 54t111 19q62 0 112 -19t85 -54t53 -81.5t18 -101.5t-18.5 -101.5t-54 -81.5t-85 -54t-110.5 -19q-62 0 -112.5 19t-85.5 54t-53 81.5t-18 101.5v0zM445 244q0 15 -2 29t-5.5 26.5t-8.5 23.5t-12 21l-177 -241q7 -4 14.5 -6.5t16 -4.5
t17 -3t17.5 -1q29 0 54.5 10.5t45 31t30 49.5t10.5 65v0zM165 244q0 -15 2 -29t5.5 -26.5t8.5 -23.5t12 -21l177 241q-7 4 -15 6.5t-16.5 4.5t-16.5 3t-17 1q-29 0 -54.5 -10.5t-45 -31t-30 -49.5t-10.5 -65v0z" />
    <glyph glyph-name="percent.sc" horiz-adv-x="613" 
d="M139 254q-30 0 -53.5 10t-38.5 28t-22.5 43t-7.5 55t7.5 55t22.5 43t38.5 28t53.5 10t53 -10t38 -28t22.5 -43t7.5 -55t-7.5 -55t-22.5 -43t-38 -28t-53 -10v0zM139 314q11 0 19.5 5t14 15t8 24t2.5 32t-2.5 32t-8 24t-14 15t-19.5 5t-20 -5t-14.5 -15t-8 -24t-2.5 -32
t2.5 -32t8 -24t14.5 -15t20 -5v0zM126 -9l299 538h63l-298 -538h-64zM475 -6q-30 0 -53.5 10t-38.5 28t-22.5 43t-7.5 55t7.5 55t22.5 43t38.5 28t53.5 10t53 -10t38 -28t22.5 -43t7.5 -55t-7.5 -55t-22.5 -43t-38 -28t-53 -10v0zM475 54q11 0 19.5 5t14 15t8.5 24t3 32
t-3 32t-8.5 24t-14 15t-19.5 5t-20 -5t-14.5 -15t-8 -24t-2.5 -32t2.5 -32t8 -24t14.5 -15t20 -5v0z" />
    <glyph glyph-name="perthousand.sc" horiz-adv-x="904" 
d="M139 254q-30 0 -53.5 10t-38.5 28t-22.5 43t-7.5 55t7.5 55t22.5 43t38.5 28t53.5 10t53 -10t38 -28t22.5 -43t7.5 -55t-7.5 -55t-22.5 -43t-38 -28t-53 -10v0zM139 314q11 0 19.5 5t14 15t8 24t2.5 32t-2.5 32t-8 24t-14 15t-19.5 5t-20 -5t-14.5 -15t-8 -24t-2.5 -32
t2.5 -32t8 -24t14.5 -15t20 -5v0zM126 -9l299 538h63l-298 -538h-64zM475 -6q-30 0 -53.5 10t-38.5 28t-22.5 43t-7.5 55t7.5 55t22.5 43t38.5 28t53.5 10t53 -10t38 -28t22.5 -43t7.5 -55t-7.5 -55t-22.5 -43t-38 -28t-53 -10v0zM475 54q11 0 19.5 5t14 15t8.5 24t3 32
t-3 32t-8.5 24t-14 15t-19.5 5t-20 -5t-14.5 -15t-8 -24t-2.5 -32t2.5 -32t8 -24t14.5 -15t20 -5v0zM765 -6q-30 0 -53 10t-38 28t-22.5 43t-7.5 55t7.5 55t22.5 43t38 28t53 10q31 0 54 -10t38 -28t22.5 -43t7.5 -55t-7.5 -55t-22.5 -43t-38 -28t-54 -10v0zM765 54
q11 0 20 5t14.5 15t8 24t2.5 32t-2.5 32t-8 24t-14.5 15t-20 5t-19.5 -5t-14 -15t-8.5 -24t-3 -32t3 -32t8.5 -24t14 -15t19.5 -5v0z" />
    <glyph glyph-name="a.inferior" horiz-adv-x="405" 
d="M34 -63q0 22 7 40t21 31.5t36 22t52 12.5l64 8q14 2 22.5 4t13 5.5t6.5 8.5t2 13q0 10 -3.5 18.5t-10 15.5t-17 10.5t-24.5 3.5q-13 0 -23.5 -3t-18.5 -9.5t-13 -16.5t-6 -24h-94q2 32 15 56t34.5 38.5t48 21.5t57.5 7q38 0 67.5 -8t49.5 -24t30 -41t10 -58v-221h-98v41
h-4q-7 -12 -17 -21t-23 -15t-30 -9.5t-38 -3.5q-28 0 -50 7t-36.5 19.5t-22 30.5t-7.5 40v0zM185 -91q15 0 28 4.5t23 13.5t16 23.5t6 34.5v26q-2 -3 -5 -5.5t-7 -4t-8.5 -2.5t-10.5 -2l-45 -6q-13 -1 -22 -5t-14 -9.5t-7.5 -12t-2.5 -14.5q0 -10 3.5 -17.5t9.5 -13t15 -8
t21 -2.5v0z" />
    <glyph glyph-name="b.inferior" horiz-adv-x="441" 
d="M46 -152v516h103v-109v-22.5t-0.5 -24.5t-1.5 -31t-2 -36h3q7 14 17.5 25t25 19t32.5 12t40 4q30 0 56.5 -11.5t47 -33.5t32.5 -56t12 -77q0 -44 -12.5 -78.5t-34.5 -58t-50 -35t-59 -11.5q-21 0 -37.5 3.5t-29.5 11t-23 18.5t-17 26h-3v-51h-99zM149 20q0 -23 5.5 -41.5
t16 -32t25 -20.5t32.5 -7t32.5 7.5t24.5 21t15.5 33t5.5 42.5q0 22 -5.5 40.5t-15.5 31t-24.5 19.5t-32.5 7t-32.5 -7t-25 -20.5t-16 -32t-5.5 -41.5v0z" />
    <glyph glyph-name="c.inferior" horiz-adv-x="407" 
d="M30 20q0 40 12.5 73t36.5 57.5t58.5 37.5t77.5 13q38 0 68.5 -10.5t51.5 -28.5t32.5 -42t13.5 -51h-99q-2 10 -6.5 19t-13 16t-20 11t-26.5 4q-19 0 -34 -7.5t-25.5 -21.5t-15.5 -32t-5 -38q0 -22 5 -40t15 -31t24.5 -20.5t33.5 -7.5q16 0 28 4t20 11.5t13 16t7 18.5h99
q-2 -27 -14 -50.5t-33.5 -42t-52 -28.5t-68.5 -10q-43 0 -77.5 13t-58 37t-35.5 57t-12 73v0z" />
    <glyph glyph-name="d.inferior" horiz-adv-x="441" 
d="M30 17q0 44 12.5 78.5t34.5 58t50.5 35.5t58.5 12q22 0 38.5 -4t29.5 -11.5t22.5 -18.5t16.5 -26h3q-1 19 -1.5 36.5t-1 32.5t-0.5 26v24v104h102v-516h-98v51h-4q-7 -15 -17.5 -26t-24.5 -18.5t-32 -11t-40 -3.5q-30 0 -56.5 11t-47.5 33.5t-33 56t-12 76.5v0zM136 17
q0 -22 5.5 -40.5t15.5 -31t24.5 -19.5t32.5 -7q17 0 31 6.5t24.5 18.5t16.5 29t7 38v9q0 23 -5.5 41.5t-16 32t-25 20.5t-32.5 7t-32.5 -7.5t-24.5 -21t-15.5 -32.5t-5.5 -43v0z" />
    <glyph glyph-name="e.inferior" horiz-adv-x="417" 
d="M30 20q0 40 13 73.5t37.5 57t57.5 36.5t73 13t72.5 -11.5t55.5 -34.5t35.5 -56t12.5 -76v-24h-253q2 -21 8.5 -36.5t17.5 -26t25 -15.5t32 -5q16 0 27.5 3t19 8t12.5 11.5t8 14.5h97q-4 -24 -17 -44t-34.5 -35t-51.5 -23.5t-66 -8.5q-41 0 -75 12.5t-58 35.5t-36.5 56.5
t-12.5 74.5v0zM211 126q-16 0 -28 -4.5t-21.5 -13t-16 -20.5t-9.5 -28h145q-3 17 -8.5 29t-14 20.5t-20.5 12.5t-27 4v0z" />
    <glyph glyph-name="f.inferior" horiz-adv-x="266" 
d="M75 -152v262h-65v82h65v33q0 37 7.5 63.5t23.5 43t41.5 24.5t62.5 8h58v-85h-40q-14 0 -23 -2.5t-15 -8.5t-8.5 -16.5t-2.5 -25.5v-34h77v-82h-77v-262h-104z" />
    <glyph glyph-name="g.inferior" horiz-adv-x="441" 
d="M42 -193h97q1 -12 6 -20.5t14 -14.5t22 -8.5t29 -2.5q23 0 39.5 6.5t27 20.5t15.5 36t5 52v23h-4q-7 -14 -17.5 -25t-24.5 -18.5t-32 -11.5t-40 -4q-30 0 -56.5 11t-47.5 33.5t-33 56t-12 76.5q0 44 12.5 78.5t34.5 58t50.5 35.5t58.5 12q21 0 38 -4t30 -11.5t22.5 -18.5
t16.5 -26h4v51h98v-315q0 -53 -12.5 -90t-36.5 -59t-58.5 -31.5t-79.5 -9.5q-38 0 -67.5 7t-50.5 22t-33 37.5t-15 53.5v0zM136 17q0 -22 5.5 -40.5t15.5 -31t24.5 -19.5t32.5 -7t32.5 7t25 20.5t16 32t5.5 41.5v9q-1 21 -7 38t-16.5 29t-24.5 18.5t-31 6.5
q-18 0 -32.5 -7.5t-24.5 -21t-15.5 -32.5t-5.5 -43v0z" />
    <glyph glyph-name="h.inferior" horiz-adv-x="427" 
d="M46 -152v516h103v-110v-22t-0.5 -24t-1.5 -31t-2 -35h3q7 15 18 26.5t24.5 18.5t30 10.5t35.5 3.5q26 0 49 -7.5t41 -24t28 -42.5t10 -62v-217h-102v193q0 21 -4.5 36t-12.5 24.5t-19.5 13.5t-25.5 4q-15 0 -28 -5.5t-22.5 -16.5t-15 -27t-5.5 -37v-185h-103z" />
    <glyph glyph-name="i.inferior" horiz-adv-x="191" 
d="M41 267v97h109v-97h-109zM44 -152v344h102v-344h-102z" />
    <glyph glyph-name="j.inferior" horiz-adv-x="191" 
d="M41 267v97h109v-97h-109zM44 -167v359h102v-361q0 -36 -5.5 -61.5t-19.5 -42.5t-39.5 -25.5t-63.5 -8.5h-34v87h20q12 0 19.5 3t12 9.5t6.5 16t2 24.5v0z" />
    <glyph glyph-name="k.inferior" horiz-adv-x="398" 
d="M46 -152v516h104v-302l117 130h115l-128 -137l140 -207h-116l-92 134l-36 -39v-95h-104z" />
    <glyph glyph-name="l.inferior" horiz-adv-x="195" 
d="M46 -152v516h103v-516h-103z" />
    <glyph glyph-name="m.inferior" horiz-adv-x="645" 
d="M46 -152v344h99v-50h3q7 15 17.5 26.5t23.5 18.5t29 10.5t35 3.5q18 0 34 -4t30.5 -12t26 -20.5t19.5 -30.5q9 19 21.5 32t27 20.5t31.5 11t37 3.5q25 0 46.5 -7.5t38.5 -23t27 -41.5t10 -61v-220h-102v197q0 20 -4 34.5t-11 23t-17 12.5t-24 4q-15 0 -28 -5.5t-22 -17
t-14 -28t-5 -38.5v-182h-101v196q0 20 -4 34.5t-11.5 23.5t-18 13t-24.5 4q-15 0 -27 -5.5t-21 -17t-14 -28t-5 -38.5v-182h-103z" />
    <glyph glyph-name="n.inferior" horiz-adv-x="427" 
d="M46 -152v344h99v-50h3q7 15 18 26.5t24.5 18.5t30 10.5t35.5 3.5q26 0 49 -7.5t41 -24t28 -42.5t10 -62v-217h-102v193q0 21 -4.5 36t-12.5 24.5t-19.5 13.5t-25.5 4q-16 0 -29 -6t-22.5 -17.5t-14.5 -28t-5 -37.5v-182h-103z" />
    <glyph glyph-name="o.inferior" horiz-adv-x="431" 
d="M30 20q0 41 13 74.5t37.5 57.5t58.5 36.5t76 12.5q43 0 77.5 -12.5t59 -36.5t37 -57.5t12.5 -74.5t-13 -74.5t-37.5 -57t-59 -36t-76.5 -12.5q-43 0 -77 12.5t-58.5 36t-37 57t-12.5 74.5v0zM136 20q0 -23 5.5 -41.5t15.5 -32t24.5 -20.5t33.5 -7t34 7t25.5 20.5t16 32
t5.5 41.5t-5.5 42t-16 32t-25.5 20t-34 7t-33.5 -7t-24.5 -20.5t-15.5 -32t-5.5 -41.5v0z" />
    <glyph glyph-name="p.inferior" horiz-adv-x="441" 
d="M149 -212v-95h-103v499h99v-51h3q7 15 17.5 26t25 18.5t32.5 11.5t40 4q30 0 56.5 -11.5t47 -33.5t32.5 -56t12 -77q0 -44 -12.5 -78.5t-34.5 -58t-50 -35t-59 -11.5q-21 0 -37.5 3.5t-29.5 11t-23 18.5t-17 26h-3q1 -19 2 -35.5t1.5 -30t0.5 -23.5v-22v0zM306 23
q0 22 -5.5 40.5t-15.5 31t-24.5 19.5t-32.5 7t-32.5 -7t-25 -20.5t-16 -32t-5.5 -41.5t5.5 -41.5t16 -32t25 -20.5t32.5 -7t32.5 7.5t24.5 21t15.5 33t5.5 42.5v0z" />
    <glyph glyph-name="q.inferior" horiz-adv-x="441" 
d="M293 -212v22t0.5 23.5t1 30t1.5 35.5h-3q-7 -15 -17.5 -26t-24.5 -18.5t-32 -11t-40 -3.5q-30 0 -56.5 11t-47.5 33.5t-33 56t-12 76.5q0 44 12.5 78.5t34 58t49.5 35.5t58 12q21 0 38 -4t30.5 -11.5t23.5 -18.5t17 -26h4v51h98v-499h-102v95zM136 17q0 -22 5.5 -40.5
t15.5 -31t24.5 -19.5t32.5 -7t32.5 7t25 20.5t16 32t5.5 41.5v9q-1 21 -7 38t-16.5 29t-24.5 18.5t-31 6.5q-18 0 -32.5 -7.5t-24.5 -21t-15.5 -32.5t-5.5 -43v0z" />
    <glyph glyph-name="r.inferior" horiz-adv-x="293" 
d="M46 -152v344h100v-65h4q6 16 14.5 29.5t19.5 23.5t24.5 15.5t30.5 5.5q6 0 11.5 -0.5t11.5 -2.5t12 -5t13 -8l-18 -92q-5 3 -11 5.5t-11 3.5t-10.5 1.5t-10.5 0.5q-19 0 -33.5 -9t-24 -25t-14 -36.5t-4.5 -44.5v-141h-104z" />
    <glyph glyph-name="s.inferior" horiz-adv-x="386" 
d="M28 -47h95q1 -11 6.5 -20t15 -15.5t21.5 -9.5t27 -3q14 0 25.5 2.5t20 7t13 11.5t4.5 16t-4 15.5t-11 10t-16 6t-22 4.5l-53 9q-29 4 -50.5 12t-36 20t-22 29t-7.5 40q0 27 11.5 48t33 35.5t50.5 22t64 7.5q34 0 62 -7.5t48.5 -21.5t32 -34t13.5 -45h-94q-2 11 -7 19
t-12.5 13t-18 7.5t-23.5 2.5q-14 0 -25 -2.5t-19 -7t-12 -10.5t-4 -14t3 -13.5t9 -9.5t15.5 -6.5t24.5 -5.5l53 -10q29 -5 50 -11t36.5 -17.5t24 -29t8.5 -43.5q0 -29 -12.5 -51t-35 -36t-52.5 -21t-66 -7t-65.5 7t-50.5 21t-33.5 35.5t-14.5 49.5v0z" />
    <glyph glyph-name="t.inferior" horiz-adv-x="272" 
d="M71 -30v140h-63v82h63v104h102v-104h82v-82h-82v-126q0 -14 2 -23.5t7 -15t14 -8.5t23 -3h36v-86h-50q-39 0 -64.5 6t-41 20t-22 37.5t-6.5 58.5v0z" />
    </font>
</defs>
</svg>
